<?xml version="1.0" standalone="no"?>
<!DOCTYPE svg PUBLIC "-//W3C//DTD SVG 1.1//EN" "http://www.w3.org/Graphics/SVG/1.1/DTD/svg11.dtd" >
<svg xmlns="http://www.w3.org/2000/svg" xmlns:xlink="http://www.w3.org/1999/xlink" version="1.1">
<metadata>
Created by FontForge 20170731 at Tue Apr 19 22:10:01 2016
 By Aleksey,,,
Copyright (c) 2016 by Cle'ment Nicolle / StereoType. All rights reserved.
</metadata>
<defs>
<font id="Marguerite" horiz-adv-x="833" >
  <font-face 
    font-family="Marguerite"
    font-weight="400"
    font-stretch="normal"
    units-per-em="1000"
    panose-1="0 0 0 0 0 0 0 0 0 0"
    ascent="750"
    descent="-250"
    x-height="596"
    cap-height="1034"
    bbox="-1160 -877 2126 1342.25"
    underline-thickness="50"
    underline-position="-150"
    unicode-range="U+000D-2212"
  />
<missing-glyph horiz-adv-x="329" 
 />
    <glyph glyph-name=".notdef" horiz-adv-x="329" 
 />
    <glyph glyph-name=".null" horiz-adv-x="0" 
 />
    <glyph glyph-name="nonmarkingreturn" unicode="&#xd;" horiz-adv-x="329" 
 />
    <glyph glyph-name="NULL" horiz-adv-x="0" 
 />
    <glyph glyph-name="NULL" horiz-adv-x="0" 
 />
    <glyph glyph-name="space" unicode=" " horiz-adv-x="329" 
 />
    <glyph glyph-name="exclam" unicode="!" horiz-adv-x="576" 
d="M496 949q0 -30 -23.5 -79t-59 -109t-77 -126.5t-77 -131t-59 -123t-23.5 -102.5q0 -8 -0.5 -17t-2.5 -16.5t-6.5 -13t-12.5 -5.5q-13 0 -25 8.5t-21 22.5t-14.5 33t-5.5 39q0 47 22.5 101.5t56 111.5t73 114t73 109.5t56 98.5t22.5 81q0 7 7.5 16t19.5 16.5t25 11.5t25 2
t19.5 -12t7.5 -30zM130 17q0 22 -2 42.5t-8 36t-17.5 24.5t-29.5 9q-8 0 -20.5 -3.5t-24 -11.5t-20 -21.5t-8.5 -32.5q0 -27 20.5 -40.5t44.5 -16.5t44.5 1.5t20.5 12.5z" />
    <glyph glyph-name="quotedbl" unicode="&#x22;" horiz-adv-x="467" 
d="M185 693q-15 0 -19 18t0 44.5t14.5 57.5t26 57.5t34.5 44.5t39 18q8 0 14.5 -7t11 -17.5t7 -22t2.5 -20.5t-7.5 -15t-18.5 -13.5t-25.5 -19t-27.5 -30.5q-14 -19 -22 -36t-13 -30t-8.5 -21t-7.5 -8zM326 693q-15 0 -19 18t0 44.5t14.5 57.5t26 57.5t34.5 44.5t39 18
q8 0 14.5 -7t11 -17.5t7 -22t2.5 -20.5t-7.5 -15t-18.5 -13.5t-25.5 -19t-27.5 -30.5q-14 -19 -22 -36t-12.5 -30t-8 -21t-8.5 -8z" />
    <glyph glyph-name="numbersign" unicode="#" horiz-adv-x="472" 
d="M838 768q20 0 39 -10.5t33.5 -28.5t23 -42t8.5 -51q0 -72 -29.5 -147t-81.5 -146t-122 -133t-152 -109t-171 -74t-178 -27q-74 0 -116 19t-62.5 45t-25 53.5t-4.5 44.5q0 37 14.5 83t40.5 94.5t62.5 94.5t81.5 82t97 58t108 22q51 0 68.5 -22.5t17.5 -54.5
q0 -45 -24.5 -86t-69.5 -73t-108.5 -52t-141.5 -22q-18 -47 -24 -91.5t4 -79.5t38 -56.5t78 -21.5q66 0 135 24.5t134 68t123 103t101 130t68 149t25 160.5q0 27 -6 45.5t-9 29.5t1 16t24 5zM417 546q-36 0 -72.5 -18.5t-70 -49t-62 -71t-49.5 -83.5q62 0 110 17t83 41.5
t56 53t28.5 53t1.5 41t-25 16.5z" />
    <glyph glyph-name="dollar" unicode="$" horiz-adv-x="758" 
d="M702 820q59 -30 59 -78q0 -26 -11.5 -46t-20.5 -30q-11 -12 -26 -23.5t-29 -11.5q-6 0 -12 4.5t-6 16.5q0 7 3 11t8 10q8 9 16.5 21t8.5 29q0 9 -17 17q-8 3 -18.5 5t-21.5 2q-51 0 -109 -13t-112 -36q-52 -25 -82 -48q-28 -25 -28 -43q0 -26 31 -45t73 -38
q29 -13 59.5 -29t54.5 -37q59 -49 59 -119q0 -87 -88 -139q-36 -21 -83.5 -33t-97.5 -12q-4 0 -7 0.5t-7 0.5q-7 -13 -16 -26.5t-19 -27.5q-7 -10 -13 -19t-11 -17q-7 -11 -8.5 -15.5t-1.5 -6.5q0 -14 -7.5 -29t-24.5 -15q-21 0 -34 14t-13 38q0 17 14.5 37.5t31.5 42.5
q8 11 15.5 20.5t12.5 17.5q-38 14 -63 33q-33 25 -33 55q0 16 8 27q10 10 21 10q9 0 15.5 -6t7.5 -15q2 -2 12.5 -9.5t33.5 -15.5q22 -8 44 -11.5t42 -3.5q32 0 66.5 10t63.5 29q14 9 25 19t19 20q8 11 12.5 21.5t4.5 21.5q0 27 -13.5 47.5t-35.5 37.5t-49.5 31t-55.5 27
q-26 12 -49.5 24.5t-42.5 26.5q-45 32 -45 75q0 15 7.5 31.5t23.5 33.5q13 17 32.5 32.5t43.5 30.5q48 30 105 52t112 32q7 11 14.5 21t15.5 21q11 14 22.5 29t11.5 22q0 17 15 30t31 13q15 0 23 -10q9 -12 9 -30q0 -16 -13.5 -37.5t-31.5 -46.5l-3 -6q34 -2 72 -22z" />
    <glyph glyph-name="percent" unicode="%" horiz-adv-x="594" 
d="M581 860q0 -22 -19.5 -61.5t-51 -90.5t-71.5 -110.5t-82.5 -122t-82.5 -124.5t-71.5 -118t-51 -103t-19.5 -79q0 -8 -0.5 -16.5t-2.5 -16.5t-6 -13t-12 -5q-13 0 -24.5 8.5t-20.5 22t-14 31.5t-5 38q0 46 33 110.5t82.5 137.5t107.5 148.5t107.5 144t82.5 125t33 89.5
q0 11 13.5 24t30 18.5t30.5 -1.5t14 -36zM317 711v1q-1 15 -8 22.5t-15 7.5q0 10 -3 20q-2 8 -7.5 17t-15.5 17q-38 23 -82 6q-42 -16 -66 -56v-1q-11 -20 -15.5 -41.5t0.5 -42.5q6 -46 45 -69h1q24 -13 46 -13q10 0 19 2t18 5q20 8 37 22t28 34q18 31 18 68v1zM248 672v-1
q-15 -23 -35 -30q-17 -6 -33 2q-15 9 -18 28q-3 24 9 45q14 24 35 31q1 0 2 1q8 2 12 2q13 -1 16.5 -7.5t4 -14t3 -14t14.5 -7.5q0 -19 -10 -35zM527 276v1q-1 15 -8 22.5t-15 7.5q0 10 -3 20q-2 8 -7.5 17t-15.5 17q-38 23 -82 6q-42 -16 -66 -56v-1q-11 -20 -15.5 -41.5
t0.5 -42.5q6 -46 45 -69h1q24 -13 46 -13q10 0 19 2t18 5q20 8 37 22t28 34q18 31 18 68v1zM458 237v-1q-15 -23 -35 -30q-17 -6 -33 2q-15 9 -18 28q-3 24 9 45q14 24 35 31q1 0 2 1q8 2 12 2q13 -1 16.5 -7.5t4 -14t3 -14t14.5 -7.5q0 -19 -10 -35z" />
    <glyph glyph-name="ampersand" unicode="&#x26;" horiz-adv-x="926" 
d="M1142 685q0 -42 -21 -78.5t-55.5 -67.5t-78.5 -57t-90 -46q-108 -48 -245 -80q20 -20 35 -58t15 -89q0 -68 -30 -133.5t-90.5 -118t-150.5 -84.5t-210 -32q-71 0 -128.5 23t-98 61.5t-62.5 87t-22 99.5q0 64 20.5 116.5t54 95t76 75t87.5 56.5q105 56 239 86
q-54 9 -95 34q-18 10 -35 24.5t-30.5 34t-21.5 44.5t-8 56q0 66 44.5 120t116.5 92t162.5 59t182.5 21q61 0 102 -14t65.5 -36.5t35 -50t10.5 -55.5t-14 -53t-35 -43.5t-45.5 -29t-46.5 -10.5t-36.5 6.5t-23 16t-12 20t-3.5 19.5q0 5 18.5 10.5t41 16.5t41.5 31.5t19 55.5
q0 39 -32.5 54.5t-95.5 15.5q-86 0 -157 -27t-121.5 -66t-78 -82t-27.5 -76q0 -23 10 -46t30 -41t49 -29.5t68 -11.5q44 0 72 6t44.5 13t25.5 13t15 6q12 0 17.5 -17.5t5.5 -41.5q0 -23 -26 -38.5t-69 -28t-97.5 -26t-111 -32t-111 -45t-97.5 -66.5t-69 -96t-26 -133
q0 -68 19.5 -111.5t48.5 -69t62.5 -35.5t62.5 -10q66 0 136.5 21t129 62t96 102t37.5 141q0 53 -11.5 83t-21.5 44q-39 -13 -86.5 -33t-89.5 -47t-70 -62t-28 -78q0 -28 7 -47t15 -31.5t15 -19t7 -9.5q0 -6 -6.5 -8.5t-12.5 -2.5q-3 0 -19 4t-33.5 16t-32 34.5t-14.5 59.5
q0 65 34.5 109.5t90.5 76t128 53.5t147 42.5t147 42.5t128 53.5t90.5 75.5t34.5 109q0 35 -9 59t-19.5 39.5t-19 24t-8.5 12.5q0 8 8.5 11t16.5 3q4 0 23.5 -5t42 -20.5t40.5 -44t18 -74.5z" />
    <glyph glyph-name="quotesingle" unicode="'" horiz-adv-x="285" 
d="M290 730q-3 4 3 12.5t17.5 22t26.5 34t30 50.5q13 28 18.5 48.5t7 34.5t2 21.5t3.5 10.5q3 2 12 5t19.5 3t21.5 -4t19 -16q13 -19 6 -47.5t-25 -58.5t-44.5 -58t-52.5 -46q-23 -15 -36 -19t-19 -2q-8 2 -9 9z" />
    <glyph glyph-name="parenleft" unicode="(" horiz-adv-x="366" 
d="M587 1033q22 0 39 -7.5t17 -17.5q0 -3 -34.5 -31t-86.5 -79.5t-113 -126t-113 -170.5t-86.5 -214t-34.5 -255q0 -66 6 -107.5t13.5 -69t13.5 -46.5t6 -40q0 -8 -4 -16.5t-13 -8.5q-5 0 -19 23.5t-29 73.5t-26.5 129.5t-11.5 191.5q0 92 25 184.5t66 178.5t92.5 160.5
t104.5 129.5t102.5 86.5t85.5 31.5z" />
    <glyph glyph-name="parenright" unicode=")" horiz-adv-x="390" 
d="M-101 -149q-22 0 -39 7.5t-17 17.5q0 3 34.5 31t86.5 79.5t113 126t113 170.5t86.5 213.5t34.5 255.5q0 66 -6 107.5t-13.5 69t-13.5 46.5t-6 40q0 8 4 16.5t13 8.5q5 0 19 -23.5t29 -73.5t26.5 -129.5t11.5 -191.5q0 -92 -25 -184.5t-66 -178.5t-92.5 -160.5
t-104.5 -129.5t-102.5 -86.5t-85.5 -31.5z" />
    <glyph glyph-name="asterisk" unicode="*" horiz-adv-x="461" 
d="M346 759q10 -2 20.5 -3.5t19 -5t14 -9.5t5.5 -15q0 -11 -10 -21q-11 -11 -25 -11q-2 0 -6.5 1t-12.5 2l-31.5 4.5t-35.5 4.5q26 -39 38 -63t10 -41q-4 -17 -15 -25.5t-23 -8.5q-4 0 -6 2q-14 2 -21 10.5t-5 19.5q1 4 -2.5 13.5t-10 21.5t-14.5 24.5t-16 24.5
q-46 -58 -46 -79v-8t-2 -9q-2 -11 -9.5 -15.5t-15.5 -4.5q-16 0 -27.5 15.5t-11.5 37.5q0 28 43 82q-36 -6 -53 -6q-5 -2 -8 -2.5t-5 -0.5q-10 0 -17 9q-5 6 -6 13.5t1 14.5q2 19 32 26t74 8q-14 25 -21.5 45.5t-5.5 36.5q4 17 16.5 32.5t30.5 15.5q11 0 19 -9q5 -7 5 -16
t-1 -14q-5 -20 18 -63q20 21 37.5 43.5t18.5 32.5q0 10 9.5 18t23.5 8q13 0 24 -9q4 -4 7 -10.5t3 -17.5q0 -16 -16 -37.5t-47 -56.5q16 -1 30 -2.5t27 -2.5z" />
    <glyph glyph-name="plus" unicode="+" horiz-adv-x="671" 
d="M520 452q42 -6 62 -14t20 -27q0 -14 -12 -26q-14 -14 -33 -14q-4 0 -11 1l-21 3q-13 3 -30.5 5.5t-37 4.5t-39.5 4t-39 2q-5 0 -10.5 0.5t-10.5 0.5q-17 -29 -33.5 -58.5t-29.5 -57t-20.5 -51t-7.5 -41.5q0 -6 -0.5 -12t-2.5 -11q-2 -13 -10 -19t-19 -6q-23 0 -38.5 22
t-15.5 53q0 29 20 73t58 107q-63 -2 -105.5 -8.5t-62.5 -8.5q-15 -3 -21 -3q-9 0 -18 9q-5 8 -5.5 18t1.5 19q2 20 27.5 29t66.5 12q32 4 74 5.5t90 0.5q14 25 29.5 51t28 49.5t21 42.5t8.5 30q0 14 12 23.5t30 9.5t30 -12q5 -5 9 -13.5t4 -23.5q0 -23 -19.5 -60.5
t-56.5 -98.5q35 -2 65 -4.5t53 -5.5z" />
    <glyph glyph-name="comma" unicode="," horiz-adv-x="338" 
d="M122 61q0 24 16.5 27.5t37 -5t37 -25.5t16.5 -35q0 -27 -22 -55t-53.5 -51t-65 -37.5t-55.5 -14.5q-16 0 -15 9.5t10.5 25t25.5 35.5t31 42t26 43.5t11 40.5z" />
    <glyph glyph-name="hyphen" unicode="-" horiz-adv-x="633" 
d="M531 377q8 -7 10 -15t2 -12v-14t-5 -12q-9 -11 -20 -11q-4 0 -17 4q-17 5 -40.5 7.5t-43.5 4.5q-63 2 -103.5 -6.5t-55.5 -13.5q-12 -3 -13 -3q-7 0 -12 8q-1 2 -3.5 10t-0.5 29q0 7 3.5 14.5t11.5 14.5q11 9 31.5 14t42.5 7.5t42 2.5t30 -1q7 0 26 -1t41.5 -4t43 -8.5
t30.5 -14.5z" />
    <glyph glyph-name="period" unicode="." horiz-adv-x="413" 
d="M243 15q0 -9 -21 -13.5t-46 -1t-46 17t-21 41.5q0 21 8.5 34.5t20.5 22t24.5 12t21.5 3.5q19 0 30.5 -9.5t18 -25.5t8.5 -37t2 -44z" />
    <glyph glyph-name="slash" unicode="/" horiz-adv-x="476" 
d="M534 860q0 -22 -19.5 -61.5t-51 -90.5t-71.5 -110.5t-82.5 -122t-82.5 -124.5t-71.5 -118t-51 -103t-19.5 -79q0 -8 -0.5 -16.5t-2.5 -16.5t-6 -13t-12 -5q-13 0 -24.5 8.5t-20.5 22t-14 31.5t-5 38q0 46 33 110.5t82.5 137.5t107.5 148.5t107.5 144t82.5 125t33 89.5
q0 11 13.5 24t30 18.5t30.5 -1.5t14 -36z" />
    <glyph glyph-name="zero" unicode="0" horiz-adv-x="860" 
d="M742 700q8 2 21 1.5t25 -4.5t21 -11.5t9 -19.5q0 -75 -29.5 -154t-79 -153t-114 -139.5t-134 -114t-139 -77t-129.5 -28.5q-50 0 -86.5 18.5t-60 50t-35 73t-11.5 87.5q0 53 19 123.5t54.5 145t87 147t117 129t143.5 91.5t167 35q38 0 67 -18.5t48.5 -47.5t29 -64
t9.5 -68v-2zM175 71q65 0 129 31.5t122 82.5t107.5 115.5t87 129.5t59.5 125t25 102q-12 12 -12 28q0 12 -3 34.5t-11.5 45t-25 39.5t-43.5 17q-53 0 -112 -31.5t-116 -84t-109.5 -119.5t-92 -137t-63 -138.5t-23.5 -122.5q0 -24 3.5 -45.5t13 -37.5t25 -25t39.5 -9z" />
    <glyph glyph-name="one" unicode="1" horiz-adv-x="404" 
d="M459 863q5 11 21 22t33 14t30.5 -5.5t13.5 -35.5q0 -22 -19.5 -61t-51 -90t-71.5 -110.5t-82.5 -122t-82.5 -125t-71.5 -118.5t-51 -103.5t-19.5 -80.5q0 -6 0.5 -19.5t0 -27.5t-4 -24.5t-11.5 -10.5q-21 0 -38 14t-29 34t-19 43.5t-7 43.5q0 35 19.5 80.5t51 97.5
t71.5 108t82 112.5t82.5 110t71.5 100.5q-36 -26 -80 -56.5t-85 -57t-72.5 -44.5t-40.5 -18q-13 0 -17.5 7t-5.5 15q-1 10 3 22q0 5 23 22.5t59 42.5t80 55t86 60t76.5 57t52.5 47z" />
    <glyph glyph-name="two" unicode="2" horiz-adv-x="894" 
d="M914 663q0 -46 -31 -96.5t-83.5 -103t-120.5 -103.5t-141.5 -98.5t-148 -88t-138.5 -71.5q56 5 111 10t103 9t86.5 6.5t62.5 2.5q29 0 47 -10.5t27.5 -26.5t12 -34t1 -34t-6 -26.5t-9.5 -10.5q-10 0 -16.5 6t-18.5 13.5t-33 14t-59 6.5q-32 0 -81 -2t-105.5 -5t-114 -6.5
t-105 -6.5t-79.5 -5t-37 -2q-8 0 -14 5t-10.5 12t-7 15.5t-2.5 15.5q0 3 1 5q-4 8 -4.5 16.5t4.5 13.5q3 3 39 20t93 45t129.5 66.5t147.5 84t147 97.5t128 106.5t90 111t34 112.5q0 5 -3.5 10t1.5 10q-5 13 -14 27t-24 25t-37.5 18.5t-54.5 7.5q-55 0 -101 -14.5t-83.5 -38
t-65.5 -51.5t-47 -54.5t-28.5 -49t-9.5 -33.5q0 -18 -8.5 -19.5t-18 8t-18 28.5t-8.5 43q0 33 29 77t80 84t121 67.5t152 27.5q54 0 93 -14.5t64.5 -36.5t38 -47.5t13.5 -47.5q13 -5 22 -25.5t9 -65.5z" />
    <glyph glyph-name="three" unicode="3" horiz-adv-x="779" 
d="M774 678q0 -39 -24 -72.5t-64 -63t-91.5 -54t-106.5 -45.5q22 -9 41 -22t33 -33t22.5 -46.5t8.5 -62.5q0 -40 -18.5 -76.5t-50.5 -67.5t-74 -56t-88.5 -42.5t-95.5 -27t-94 -9.5q-23 0 -50.5 5.5t-48.5 16.5q-39 21 -54 49.5t-18 54.5t1.5 45t6.5 22q4 7 10.5 12.5
t13.5 1.5q3 -2 6 -13t11 -27t24.5 -34.5t45.5 -34.5q34 -18 72 -18q64 0 121.5 19t100.5 51t68.5 74t25.5 88q0 37 -18.5 56t-44 27t-52.5 7.5t-44 -1.5q-42 -13 -68.5 -20t-28.5 -7q-4 0 -9.5 7t-10.5 17t-8.5 21.5t-3.5 19.5t20.5 16t54 17.5t76 22t87.5 29t87.5 38.5
t76 51t54 66t20.5 84v3q-5 9 -11 18t-18 16t-31.5 11t-51.5 4q-51 0 -103.5 -15t-95.5 -36.5t-70 -46.5t-27 -46q0 -14 -8 -14.5t-17 11t-17 34t-8 54.5q0 23 27 48.5t74 46.5t109.5 35t133.5 14q45 0 74.5 -11.5t47 -29t25 -38.5t8.5 -39q14 -8 25.5 -37t11.5 -67z" />
    <glyph glyph-name="four" unicode="4" horiz-adv-x="764" 
d="M549 377q7 0 15 -5.5t14.5 -13.5t11 -17t4.5 -17q0 -10 -38.5 -15t-96.5 -7q-48 -78 -79.5 -143.5t-31.5 -107.5q0 -8 -0.5 -16.5t-2.5 -16.5t-6 -13t-12 -5q-12 0 -23.5 8.5t-20.5 22t-14.5 31.5t-5.5 38q0 39 23 90t61 110q-49 0 -97.5 1t-90 1.5t-72 1.5t-42.5 1h-2
q-3 0 -7 2q-11 3 -23.5 12.5t-12.5 26.5q0 7 25.5 34t68 66t97.5 86.5t114.5 95.5t119 93.5t110.5 80.5t89.5 56.5t55.5 21.5q21 0 35 -11q7 10 20.5 19.5t27 11t23.5 -7t10 -33.5q0 -26 -27 -77t-69 -116t-93.5 -139.5t-99.5 -148.5q18 -1 29 -1h13zM400 379
q42 60 88 120.5t88 117t74.5 106t47.5 87.5q-22 -3 -60.5 -26.5t-87.5 -59t-104.5 -80.5t-110.5 -91t-105.5 -90.5t-90.5 -78.5q25 0 57 -0.5t66.5 -1.5t69.5 -1.5t68 -1.5z" />
    <glyph glyph-name="five" unicode="5" horiz-adv-x="793" 
d="M821 875q1 -9 -1.5 -20t-7.5 -20.5t-13.5 -16t-19.5 -7.5q-8 -1 -44.5 -1.5t-86 -1.5t-104.5 -1.5t-101 -0.5q-9 -18 -32 -59t-50 -88t-53.5 -92.5t-41.5 -72.5q24 8 50 15t51 12.5t48 9t42 3.5q36 0 62.5 -11t43.5 -26.5t26 -32t9 -28.5q13 -14 23 -40t10 -57
q0 -60 -37 -120.5t-99 -109t-143.5 -79t-169.5 -30.5q-11 0 -25.5 1.5t-29.5 4t-29.5 6.5t-24.5 10q-39 21 -54 49.5t-18 54t1.5 45t6.5 22.5q4 7 10.5 12t13.5 2q3 -2 6 -14.5t11 -30t24.5 -37.5t45.5 -36q33 -18 71 -18q76 0 142.5 33t115.5 81.5t77 104.5t28 101
q0 31 8 45q-13 8 -34.5 15t-59.5 7q-64 0 -112.5 -11.5t-83 -26t-54.5 -26t-26 -11.5t-13 5t-13.5 13.5t-10.5 19.5t-4 23v1q0 9 10 33t26.5 57t37.5 71.5t43 76t43.5 71.5t38.5 58q-2 7 -1 18.5t4.5 23t11.5 20.5t20 10q89 8 168 11.5t138 3t94 -6.5t36 -17z" />
    <glyph glyph-name="six" unicode="6" horiz-adv-x="695" 
d="M530 900q44 0 79.5 -22.5t57 -49.5t27 -49.5t-9.5 -22.5q-5 0 -11 9t-21 20t-41.5 20t-70.5 9q-62 0 -121 -29t-111.5 -77.5t-96 -112t-74.5 -132.5q23 19 50.5 36.5t58 30.5t63.5 21t67 9q48 0 79 -14.5t50 -36t27 -45t8 -40.5q8 -6 16 -16.5t15 -24.5t11 -30t4 -31
q0 -29 -13 -64t-36.5 -70.5t-57 -69.5t-74.5 -60t-88.5 -42t-99.5 -16q-46 0 -85.5 20t-69 57t-46 90t-16.5 119q0 54 20.5 120.5t56.5 134.5t86 133t109 115t124.5 80.5t133.5 30.5zM386 490q-32 0 -67 -12t-69 -32.5t-65 -48t-55 -58t-38 -63t-14 -62.5q0 -29 9 -55.5
t26 -46t40.5 -31t52.5 -11.5q53 0 107 25.5t98 70t71.5 103t27.5 124.5q0 9 1 15.5t3 11.5q-6 10 -15 22t-23.5 22.5t-36 18t-53.5 7.5z" />
    <glyph glyph-name="seven" unicode="7" horiz-adv-x="708" 
d="M725 849q5 -12 5 -28q0 -22 -27.5 -57t-73 -79t-103 -95t-118 -106t-118 -112t-103 -111.5t-73 -105.5t-27.5 -94q0 -8 -2 -18t-6.5 -20t-10.5 -16.5t-14 -6.5q-12 0 -22 13t-17 33t-11 42.5t-4 42.5q0 51 38.5 112.5t98 127t131 131t139 124t121 107.5t76.5 82
q-44 -2 -98.5 -4.5t-105 -4.5t-89.5 -4t-50 -2q-14 0 -23.5 6.5t-15.5 17t-9 23t-3 24.5q0 5 22 9t57 7t77.5 5.5t83.5 4t75 2.5t53 1q55 0 91 -3t41 -8q3 -2 8 -14t7 -26z" />
    <glyph glyph-name="eight" unicode="8" horiz-adv-x="777" 
d="M778 683q0 -40 -19.5 -78.5t-55.5 -70.5t-86.5 -55.5t-111.5 -32.5q47 -33 70 -79t23 -87q0 -56 -31.5 -107t-84.5 -89.5t-122.5 -61t-144.5 -22.5q-66 0 -102.5 22.5t-52.5 50t-16.5 50t5.5 22.5t17 -11.5t29 -25.5t44.5 -25.5t63.5 -11.5q77 0 136 20t98.5 52t60 71.5
t20.5 78.5t-14.5 65.5t-35.5 42t-44 22.5t-40 7q-60 0 -116.5 -23t-100.5 -57t-70.5 -74t-26.5 -74q0 -25 -11 -30t-24 1t-24 19.5t-11 26.5q0 50 25.5 92.5t66 76.5t90.5 57.5t98 34.5q-26 19 -41 42t-23 45.5t-10.5 42t-2.5 30.5q0 35 17.5 68t46 62t65.5 53t76.5 41
t78.5 26.5t72 9.5q39 0 67 -11t46 -26.5t27 -33t11 -30.5q12 -6 24 -16.5t21.5 -25.5t16 -33.5t6.5 -40.5zM397 505q71 0 129 19.5t99 48.5t63.5 63t22.5 63q0 24 -5.5 42t-11.5 30.5t-11 20.5t-4 11q-11 8 -30 14t-51 6q-49 0 -104.5 -17t-102.5 -47t-78 -70t-31 -86
q0 -40 17.5 -60.5t39.5 -28.5q26 -10 58 -9z" />
    <glyph glyph-name="nine" unicode="9" horiz-adv-x="754" 
d="M750 633q1 -5 1 -14q0 -40 -18 -102t-52.5 -130.5t-83 -137.5t-110 -124t-134 -89.5t-153.5 -34.5q-11 0 -26 1.5t-30 4t-29 6.5t-24 10q-39 21 -58.5 49.5t-26.5 54.5t-6 45.5t3 22.5q4 6 10.5 11.5t12.5 1.5q3 -2 6.5 -14.5t11.5 -30t24.5 -37.5t45.5 -36
q31 -17 71 -17q71 0 136.5 33.5t122 88t102 123.5t76.5 139q-31 -26 -66.5 -50t-71.5 -42t-72 -28.5t-68 -10.5t-67.5 11.5t-64.5 36t-48 62.5t-19 91q0 35 15 76.5t41 83t61.5 80t77 68t86.5 47t90 17.5q48 0 77 -17.5t44.5 -41t20.5 -46.5t5 -35t-8 -3t-24 24t-40 30
t-56 15q-56 0 -111.5 -31t-100 -80t-72 -108t-27.5 -116t26 -82t61 -25q31 0 70.5 14t79.5 38t78.5 55t68.5 65.5t48 69.5t18 66q0 35 12 40t26 -8t26 -38.5t12 -51.5z" />
    <glyph glyph-name="colon" unicode=":" horiz-adv-x="335" 
d="M262 351q0 -9 -21 -13.5t-46 -1t-46 17t-21 41.5q0 21 8.5 34.5t20.5 22t24.5 12t21.5 3.5q19 0 30.5 -9.5t18 -25.5t8.5 -37t2 -44zM161 86q0 -9 -21 -13.5t-46 -1t-46 17t-21 41.5q0 21 8.5 34.5t20.5 22t24.5 12t21.5 3.5q19 0 30.5 -9.5t18 -25.5t8.5 -37t2 -44z" />
    <glyph glyph-name="semicolon" unicode=";" horiz-adv-x="335" 
d="M262 351q0 -9 -21 -13.5t-46 -1t-46 17t-21 41.5q0 21 8.5 34.5t20.5 22t24.5 12t21.5 3.5q19 0 30.5 -9.5t18 -25.5t8.5 -37t2 -44zM67 180q0 24 16.5 27.5t37 -5t37 -25.5t16.5 -35q0 -27 -22 -55t-53.5 -51t-65 -37.5t-55.5 -14.5q-16 0 -15 9.5t10.5 25t25.5 35.5
t31 42t26 43.5t11 40.5z" />
    <glyph glyph-name="less" unicode="&#x3c;" horiz-adv-x="421" 
d="M386 461q0 -14 -11 -27.5t-29.5 -27t-41.5 -26.5t-47 -24q-57 -26 -129 -51q48 -16 81.5 -36t55 -40.5t32.5 -39.5t14.5 -34.5t1.5 -24.5t-6 -9q-7 0 -17.5 8t-26 20.5t-36 27.5t-47.5 29q-31 16 -57.5 26t-46 17.5t-31 15.5t-11.5 19t2 21.5t11.5 21t28.5 20.5t54 21
q41 13 83.5 33.5t77 40t58 33.5t26.5 14q8 0 9.5 -11.5t1.5 -16.5z" />
    <glyph glyph-name="equal" unicode="=" horiz-adv-x="633" 
d="M103 463q-5 0 -10 1.5t-7 6.5q-2 2 -6 10t-1 29q1 6 5 14t17 15q16 9 46.5 14t63 7t62 2h44.5q10 0 38.5 -1.5t60.5 -4.5t62.5 -8.5t45.5 -14.5q11 -6 14 -13.5t3 -12.5q0 -17 -14 -31q-13 -11 -28 -11q-4 0 -9.5 1t-17.5 3q-23 4 -55.5 9t-62.5 7q-93 3 -151.5 -6
t-81.5 -14q-8 -2 -11.5 -2h-6.5zM523 337q11 -7 14 -14t3 -12q0 -19 -14 -31q-13 -11 -29 -11q-2 0 -8 1l-18 3q-23 5 -55.5 10t-61.5 7q-93 1 -152 -7.5t-82 -12.5q-8 -2 -11.5 -2.5t-6.5 -0.5q-5 0 -10 2t-8 6q-2 2 -5.5 10t0.5 29q0 6 4 13.5t17 14.5q16 9 46.5 14
t63 7.5t62 2.5t43.5 -1q10 0 38.5 -1t61 -4t63 -8.5t45.5 -14.5z" />
    <glyph glyph-name="greater" unicode="&#x3e;" horiz-adv-x="421" 
d="M44 153q0 13 11 27t29 27.5t41.5 26.5t47.5 24q56 26 129 51q-72 24 -111.5 55.5t-57 60t-17.5 48.5t7 20t17.5 -8t26 -20.5t36 -27.5t47.5 -29q31 -16 57.5 -26t46 -17.5t31 -15.5t11.5 -19t-2 -21.5t-11.5 -21t-29 -21t-53.5 -20.5q-41 -13 -83.5 -33.5t-77 -40
t-58 -33.5t-26.5 -14q-8 0 -9.5 11.5t-1.5 16.5z" />
    <glyph glyph-name="question" unicode="?" horiz-adv-x="800" 
d="M180 129q19 0 30 -9t17 -24.5t8 -36t2 -42.5q0 -8 -20 -12.5t-44.5 -1.5t-44.5 16.5t-20 40.5q0 19 8 32.5t19.5 21.5t24 11.5t20.5 3.5zM392 992q55 0 99 -16t74.5 -42.5t46.5 -59.5t16 -66q0 -60 -27 -106t-67.5 -85.5t-87.5 -75.5t-87.5 -76.5t-67.5 -88.5t-27 -111
q0 -27 -15 -31t-32.5 8.5t-32.5 37.5t-15 55q0 64 30 108.5t75 79t97 63t97 60.5t75 72t30 97q0 22 -9.5 44.5t-29.5 41t-51.5 30t-76.5 11.5q-67 0 -114.5 -18.5t-79 -47.5t-50 -64.5t-27.5 -70.5t-11.5 -65.5t-2.5 -48.5q0 -24 -19 -28t-41.5 6.5t-41.5 33t-19 51.5
q0 21 8.5 52t27.5 64.5t49 66.5t73.5 59.5t101.5 43t132 16.5z" />
    <glyph glyph-name="at" unicode="@" horiz-adv-x="1067" 
d="M700 599q57 0 79.5 -34t22.5 -88q0 -12 -2.5 -26.5t-8.5 -29.5q8 -1 18 -4.5t19 -8t15 -9.5t6 -9q0 -2 -13 -20.5t-33 -48.5q-54 -83 -77 -135.5t-22.5 -79.5t19.5 -31t48 11t64.5 47t68 76t59 97.5t37 112.5t2 121t-44.5 123q-31 51 -80.5 73t-107.5 22.5t-119.5 -16
t-115.5 -42.5q-80 -39 -146.5 -102.5t-114 -140t-73.5 -160t-25.5 -162.5t31 -147.5t95.5 -114.5q54 -27 114 -39t120 -7t114 24t100 46q19 10 30 8.5t14 -9.5t-2.5 -18.5t-18.5 -16.5q-53 -35 -111.5 -55t-119.5 -26q-66 -4 -130 7t-120 41q-58 32 -102 79t-72 107
q-29 62 -36 138t7 153q8 62 33 120t63 114q22 34 49.5 68.5t59 66.5t66 59t70.5 47q72 39 145.5 55t151.5 4q87 -12 162 -66q71 -43 107 -107.5t41.5 -138.5t-15 -152t-62 -148t-101.5 -127t-131 -89q-39 -18 -69.5 -12t-50.5 28q-12 11 -19.5 23.5t-12.5 23.5q-5 13 -7 27
q-19 -29 -42 -51q-20 -19 -46 -34.5t-56 -15.5q-22 0 -46 7.5t-44 26t-33 49t-13 76.5q0 36 14.5 83t41 96t64 96t83.5 83.5t98.5 59t110.5 22.5zM643 307q0 3 14 17.5t30.5 37.5t30.5 52.5t14 62.5q0 23 -10 38.5t-30 15.5q-38 0 -75 -21t-70 -54.5t-61.5 -77t-49 -89
t-33 -89t-14 -77t9 -54.5t35.5 -21q26 0 55.5 21.5t59.5 55t59 74.5t56 80q-8 8 -14.5 17t-6.5 11z" />
    <glyph glyph-name="A" unicode="A" horiz-adv-x="1000" 
d="M858 232q0 -86 15.5 -144t39.5 -94t51 -54.5t51 -27t39.5 -10.5t15.5 -5q0 -8 -18.5 -19.5t-44.5 -11.5q-49 0 -96 21t-84 64.5t-60 109t-23 155.5q0 41 4 88t11 96q-57 0 -135 -6q-43 -67 -94.5 -136.5t-110 -134.5t-124 -122t-137 -99.5t-148.5 -67t-158 -24.5
q-99 0 -176.5 28.5t-130.5 80t-80.5 123t-27.5 158.5q0 58 20.5 116t54.5 111.5t79 100t93 81t97 54t91 19.5q46 0 72 -11.5t38.5 -27.5t15 -33t2.5 -28t-8.5 -14t-23 -2.5t-32.5 3t-36 2.5q-38 0 -79 -16.5t-80.5 -45.5t-75.5 -68.5t-62.5 -86.5t-42.5 -98.5t-16 -103.5
q0 -59 21.5 -112t63 -93.5t102.5 -64.5t141 -24q97 0 188.5 44.5t175 118t159.5 168.5t142 196q-8 -1 -16.5 -2t-16.5 -2q-68 -10 -118 -24t-86 -27t-59.5 -22.5t-36.5 -11.5q-14 -2 -24.5 13.5t-12.5 35.5q-1 7 13 15.5t38.5 17t56.5 16.5t65.5 15.5t67 13.5t60.5 10
q24 4 51 6t56 4q66 104 121 203t99 176.5t76 124.5t50 47q13 0 27.5 -3t26.5 -7t20 -9t8 -8q0 -6 -15.5 -50.5t-37 -116.5t-44 -167t-35.5 -201q52 -8 54 -22q2 -11 -5 -15t-13 -5q-2 -1 -12 0.5t-28 3.5q-9 -80 -9 -162zM765 443q9 63 19.5 122.5t20.5 105.5q11 54 23 102
q-19 -45 -45 -97q-22 -45 -53.5 -104t-73.5 -127q28 1 55.5 0.5t53.5 -2.5z" />
    <glyph glyph-name="B" unicode="B" horiz-adv-x="1232" 
d="M931 596q75 -10 135 -41q25 -13 49.5 -32t43.5 -44.5t30.5 -59t11.5 -75.5q0 -63 -22 -124.5t-60 -117.5t-88 -104t-106 -83t-114.5 -55t-112.5 -20q-35 0 -69 13.5t-61 37.5t-43.5 58.5t-16.5 76.5q0 28 11.5 56t31.5 54t45 48.5t53 39t55.5 26t51.5 9.5q27 0 41.5 -5.5
t22 -13t9 -16t1.5 -13.5q0 -11 -18 -8.5t-40 2.5q-32 0 -68 -17.5t-66 -46t-49.5 -65t-19.5 -74.5q0 -29 12.5 -47t31 -28.5t41.5 -14.5t44 -4q29 0 67.5 15t79.5 42.5t81 66.5t71 87t50.5 103.5t19.5 117.5t-16 102.5t-40.5 65t-54 36t-56.5 15.5t-48.5 3.5t-29.5 -0.5
q-12 0 -22.5 -2.5t-18 -3t-11.5 3.5t-4 17q0 6 23 13.5t57.5 19.5t74.5 30t74.5 46t57.5 66t23 91q0 25 -5.5 51t-19 48t-36.5 36t-57 14q-101 0 -182.5 -29t-139 -71t-88.5 -88t-31 -79q0 -35 14.5 -48t31.5 -13q29 0 52.5 17.5t46 44t44 57t45.5 57t51.5 44t61.5 17.5
q22 0 39 -7t27.5 -15t13 -15t-4.5 -7q-29 0 -61.5 -43.5t-71.5 -114.5t-87 -161.5t-108 -185t-134.5 -185t-167 -161.5t-204.5 -114.5t-247 -43.5q-100 0 -178 27.5t-132 78t-82.5 121t-28.5 157.5q0 57 20.5 115t54.5 111.5t79 100t93 81t97 54t91 19.5q46 0 72 -11.5
t38.5 -27t15 -32.5t2.5 -28t-8.5 -14.5t-23 -3t-32.5 3t-36 2.5q-38 0 -79 -16.5t-80.5 -45.5t-75.5 -68.5t-62.5 -86t-42.5 -98t-16 -103.5q0 -59 22 -111.5t64.5 -91.5t105 -62t142.5 -23q72 0 144 33t140 87t131 123.5t117 141.5q128 169 242 385q-11 -11 -25 -20
q-12 -8 -29.5 -14t-37.5 -6q-60 0 -87.5 28t-27.5 78q0 34 21.5 69t58.5 67.5t86 60.5t103.5 49.5t111.5 33.5t111 12q57 0 100 -14.5t72.5 -39t44 -57.5t14.5 -69q0 -29 -10.5 -55t-27 -48.5t-38 -42t-43.5 -35.5q-52 -38 -118 -67z" />
    <glyph glyph-name="C" unicode="C" horiz-adv-x="735" 
d="M754 1033q76 0 122 -28t66.5 -74t18 -105t-22.5 -120t-55 -120t-80.5 -105t-98 -74t-107.5 -28q-27 0 -46.5 12t-31.5 30t-17.5 38t-5.5 35q0 41 17 76.5t37 62.5q24 32 55 58q-68 -25 -140 -49q-62 -20 -136 -41t-146 -32q-57 -94 -90.5 -195.5t-33.5 -202.5
q0 -48 11.5 -94t37.5 -82t67.5 -57.5t100.5 -21.5t97.5 15t61 40.5t31.5 58t9 68.5q0 22 -7 34.5t-15.5 19t-15.5 9.5t-7 7q0 8 8 13t21 5q12 0 26 -4.5t25.5 -15t19 -28t7.5 -43.5q0 -39 -19 -82t-59 -79.5t-101.5 -60t-146.5 -23.5q-56 0 -99.5 17.5t-75 45.5t-53 64
t-34.5 73t-18.5 72.5t-5.5 63.5q0 94 32 188.5t87 184.5q-84 4 -141.5 26t-92.5 54.5t-50 71t-15 74.5q0 38 10 64.5t23.5 43t27 24t20.5 7.5q4 0 2 -20t-1 -50.5t11 -66.5t39 -67.5t82.5 -53.5t141.5 -24q63 83 141.5 154.5t164 124t174.5 82.5t173 30zM606 415
q28 0 60.5 24t63.5 63.5t58.5 90t47 103.5t28 103.5t1.5 90t-32 63.5t-73 24q-65 0 -134 -24t-136 -66.5t-130 -101t-116 -128.5q55 13 111 32t115 37t121.5 30.5t131.5 12.5q29 0 45 -8.5t16 -19.5q0 -6 -16.5 -17t-42 -26.5t-54.5 -36.5t-54.5 -46.5t-42 -55.5t-16.5 -65
q0 -22 5.5 -37t13 -24.5t15.5 -13.5t14 -4z" />
    <glyph glyph-name="D" unicode="D" horiz-adv-x="670" 
d="M297 1023q95 0 171 -37.5t128.5 -100t80.5 -143t28 -167.5q0 -101 -36 -194.5t-97 -174t-140 -146.5t-165.5 -113.5t-173.5 -73t-164 -25.5q-105 0 -185 26t-134 74.5t-81.5 117.5t-27.5 156q0 58 25.5 112.5t60.5 96t71.5 66.5t57.5 25q9 0 21 -4.5t12 -12.5
q0 -4 -21.5 -24.5t-47 -56t-47 -85t-21.5 -111.5q0 -72 16.5 -132t54 -103.5t98.5 -68t149 -24.5q72 0 148.5 31t149.5 83t138 120t114 142t77.5 149.5t28.5 141.5q0 95 -20.5 171.5t-56.5 130t-85 82.5t-107 29q-57 0 -114.5 -29t-103 -75.5t-74 -105t-28.5 -118.5
q0 -39 6.5 -74.5t20.5 -65t36 -51.5t53 -33q30 49 60 94.5t58 80t53.5 55.5t46.5 21q15 0 34 -2t35 -8.5t27 -19.5t11 -34q0 -20 -17 -54t-48 -69t-74 -64.5t-95 -38.5q-32 -57 -65 -114t-64.5 -102t-61.5 -73.5t-56 -28.5q-35 0 -54 6t-26.5 12.5t-5.5 12.5t8 6
q16 0 39 24.5t51 65t59.5 92t64.5 105.5q-43 13 -76.5 39.5t-56 61.5t-34 76.5t-11.5 84.5q0 58 26 122.5t75.5 118.5t120.5 89.5t160 35.5zM389 634q-16 0 -34.5 -17t-39.5 -45.5t-44 -66.5t-47 -80q40 11 73 37t57 55.5t37.5 55.5t13.5 37t-2.5 17.5t-13.5 6.5z" />
    <glyph glyph-name="E" unicode="E" horiz-adv-x="750" 
d="M190 -112q66 0 136 21t128.5 62t96 102t37.5 141q0 42 -7.5 73t-16 52t-16 32t-7.5 14q0 5 9.5 8.5t15.5 3.5q14 0 30.5 -15t31 -40.5t24 -60t9.5 -73.5q0 -68 -33.5 -133.5t-98 -118t-157.5 -84.5t-213 -32q-71 0 -125.5 23t-91 61.5t-55 87t-18.5 99.5q0 64 20.5 116.5
t54 95t76 75t87.5 56.5q105 56 239 86q-54 9 -95 34q-18 10 -35 24.5t-30.5 34t-21.5 44.5t-8 56q0 66 44.5 119.5t116.5 91.5t162.5 59t182.5 21q61 0 102 -14t65.5 -36.5t34.5 -50t10 -55.5t-13.5 -52.5t-34.5 -43t-46 -29t-47 -10.5t-36 6.5t-22.5 15.5t-12 19.5
t-3.5 19.5q0 5 18.5 10.5t41 16.5t41.5 31.5t19 56.5q0 39 -33 54t-96 15q-86 0 -156.5 -27t-121 -66t-78.5 -82t-28 -75q0 -23 10 -46t30 -41t49.5 -29.5t68.5 -11.5q44 0 71.5 6t44.5 13t25.5 13t14.5 6q13 0 18 -18t5 -41t-26 -38.5t-68.5 -28t-97 -26t-111.5 -32
t-111.5 -45t-97 -66.5t-68.5 -96t-26 -133q0 -68 19.5 -111.5t48.5 -69t62.5 -35.5t62.5 -10z" />
    <glyph glyph-name="F" unicode="F" horiz-adv-x="486" 
d="M696 627q41 0 61 -21t20 -46q0 -9 -4.5 -8t-15.5 6t-28.5 10.5t-43.5 5.5q-113 0 -210 -15q-62 -90 -127 -182t-118.5 -177.5t-88 -159.5t-34.5 -128q0 -10 -0.5 -21t-2.5 -20t-8 -15t-16 -6q-16 0 -31 10t-26.5 27t-18.5 40t-7 49q0 55 30 119.5t78.5 135.5t109 146.5
t120.5 153.5q-93 -24 -165 -56.5t-120.5 -65t-74 -60t-25.5 -42.5t-9.5 -17t-21 6t-21 25.5t-9.5 41.5q0 39 34.5 76.5t99.5 70.5t158.5 58.5t212.5 40.5q27 36 54.5 77t50 79.5t36.5 71t14 52.5q0 14 -2.5 30t-14 29.5t-35.5 22.5t-66 9q-137 0 -263 -33t-234.5 -85
t-197 -115.5t-151 -124.5t-96.5 -112.5t-34 -78.5q0 -14 -15 -15.5t-33 8.5t-33 29.5t-15 46.5q0 21 31 68.5t92 106.5t150.5 122.5t206.5 116t260.5 86t311.5 33.5q48 0 93 -7t80 -23.5t56.5 -42.5t21.5 -64q0 -17 -13.5 -47.5t-34.5 -68.5t-46.5 -79.5t-50.5 -79.5
q84 6 179 6z" />
    <glyph glyph-name="G" unicode="G" horiz-adv-x="727" 
d="M189 272q-11 0 -20.5 0.5t-19.5 1.5q-15 -48 -23.5 -90.5t-8.5 -78.5q0 -29 4.5 -65t17.5 -67.5t37.5 -53t65.5 -21.5q34 0 76 16t86 42t86.5 59t78.5 66q3 27 3 53q0 40 19 71.5t41.5 47.5t41.5 12.5t19 -33.5q0 -25 -12.5 -54t-35.5 -61q-1 -57 -23 -130t-60.5 -149.5
t-92.5 -150.5t-119.5 -131.5t-141.5 -93t-159 -35.5q-62 0 -114 29q-51 28 -71 64.5t-23.5 70.5t3 59t8.5 29q5 8 13.5 15t16.5 2q4 -2 8 -16.5t15 -35t32 -44.5t59 -45q22 -12 45.5 -17.5t47.5 -5.5q90 0 168.5 42.5t140 111.5t104 157t59.5 180q-38 -35 -81.5 -66.5
t-88.5 -55t-89 -37.5t-82 -14q-45 0 -79 14.5t-59 38t-41.5 54t-26 63t-13.5 65t-4 59.5q0 39 7 82.5t21 91.5q-30 21 -50 49t-32.5 59.5t-18 65.5t-5.5 67q0 52 24.5 108t65.5 108.5t95.5 99.5t115.5 82.5t123.5 56t120.5 20.5q18 0 30 -5t19.5 -12t11 -14.5t3.5 -13.5
q0 -5 -4 -4.5t-12.5 3t-21 5.5t-28.5 3q-40 0 -89 -19.5t-99.5 -52.5t-97.5 -76.5t-84 -91t-59.5 -96.5t-22.5 -93q0 -98 46 -161q30 74 73 149t98 144.5t120 130.5t139.5 106t156 71t169.5 26q32 0 51.5 -10t29.5 -25.5t13 -33.5t3 -33q0 -89 -36 -172.5t-95 -157
t-134.5 -134t-155.5 -104t-158 -67.5t-141 -24zM790 974q-59 0 -120 -27.5t-120.5 -74.5t-115.5 -110t-105 -134t-89.5 -146.5t-68.5 -146.5q8 -1 16.5 -1.5t17.5 -0.5q53 0 122 33.5t141.5 87t142 119t124 130t88 120.5t33.5 90q0 16 -6 27.5t-15.5 19t-21.5 11t-23 3.5z
M676 222q0 20 -11.5 7t-16.5 -64q28 37 28 57z" />
    <glyph glyph-name="H" unicode="H" horiz-adv-x="747" 
d="M913 837q0 -5 -20 -32t-50 -73t-65 -108t-65 -136t-50 -158.5t-20 -174.5q0 -70 16 -125t39.5 -96.5t51 -71t51 -48.5t39.5 -28.5t16 -12.5q0 -9 -18.5 -20.5t-44.5 -11.5q-16 0 -41.5 9t-55 28.5t-59 51t-53.5 77t-39 105.5t-15 138q0 74 10 134.5t22 104.5q14 51 32 91
q-33 -10 -76.5 -22t-93.5 -26q-40 -74 -78.5 -148t-68.5 -141.5t-48 -125t-18 -99.5q0 -10 -0.5 -22t-3 -22t-8.5 -17t-16 -7q-16 0 -31 11t-26.5 29.5t-18.5 42t-7 49.5q0 39 14 87t38 101t55 110t66 115q-78 -18 -150 -30.5t-123 -12.5q-36 0 -59.5 12t-37 28.5t-18.5 33
t-5 24.5q-1 3 0 7q2 7 7 7q6 0 11 -4t16 -9t31.5 -9t57.5 -4q27 0 63 3t77.5 8.5t87 12t91.5 14.5q39 64 75.5 124.5t65 114.5t46 99t17.5 77q0 14 -2.5 30t-14 29.5t-35.5 22.5t-67 9q-103 0 -199.5 -19t-184.5 -51.5t-166 -74.5t-143.5 -88.5t-117.5 -94t-88.5 -90
t-56 -77t-19.5 -55.5q0 -14 -15 -15.5t-33 8.5t-33 29.5t-15 47.5q0 21 31 68.5t92 106.5t150.5 122t206.5 115.5t260.5 86t311.5 33.5q47 0 92 -7t80.5 -23.5t57 -42.5t21.5 -63q0 -26 -14.5 -67t-39 -93t-57 -112.5t-67.5 -125.5q48 9 88 17t66 13q5 10 8 18t6 13
q3 6 6 11q47 84 89 150q18 28 37 55t37 48t34 34t28 13q24 0 38.5 -11t14.5 -24z" />
    <glyph glyph-name="I" unicode="I" horiz-adv-x="453" 
d="M-642 500q0 21 31 68.5t92 107t150.5 123t206.5 115.5t260.5 86t311.5 34q48 0 93 -7.5t80 -24t56.5 -42.5t21.5 -64q0 -29 -24 -77t-63 -109t-88.5 -132t-102 -145.5t-102 -148.5t-88.5 -142t-63 -126t-24 -99q0 -10 -0.5 -22t-2.5 -22t-8 -16.5t-16 -6.5q-16 0 -31 11
t-26.5 29t-18.5 41.5t-7 49.5q0 45 23.5 101t62.5 118t88.5 128t101.5 131.5t101.5 129t88.5 119t62.5 102t23.5 79.5q0 14 -2.5 30t-14 29.5t-35.5 22.5t-66 9q-138 0 -263.5 -33t-234 -85t-197 -115.5t-151 -124.5t-96.5 -112.5t-34 -78.5q0 -14 -15 -15.5t-33 8.5
t-33 29.5t-15 46.5z" />
    <glyph glyph-name="J" unicode="J" horiz-adv-x="670" 
d="M736 891q0 14 -2.5 30t-14 29t-35.5 21.5t-66 8.5q-137 0 -263 -33t-234.5 -84.5t-197 -115t-151 -124.5t-96.5 -112.5t-34 -78.5q0 -14 -15 -15.5t-33 8.5t-33 29.5t-15 47.5q0 21 31 68.5t92 106.5t150.5 122t206.5 115t260.5 85.5t311.5 33.5q48 0 93 -7t80 -23
t56.5 -42t21.5 -63q0 -32 -17 -94t-49.5 -141.5t-80 -170.5t-108.5 -181.5t-135.5 -173.5t-160.5 -147t-183 -102t-204 -38q-64 0 -114.5 19t-85 52.5t-52.5 80t-18 102.5q0 55 28.5 110.5t70.5 99.5t90.5 71.5t89.5 27.5q30 0 46.5 -7.5t24.5 -17.5t9.5 -20.5t1.5 -17.5
t-5.5 -9t-14.5 -2t-20.5 1.5t-23.5 1.5q-37 0 -77.5 -23t-74 -61t-55.5 -86t-22 -99q0 -38 14 -72.5t41.5 -61t67.5 -42.5t92 -16q66 0 136 36.5t139 97.5t136 140.5t126.5 166t110 174.5t87 165t57 137.5t20.5 92.5z" />
    <glyph glyph-name="K" unicode="K" 
d="M1206 -393q13 0 23.5 3.5t18 5.5t11 -0.5t3.5 -14.5q0 -15 -8 -31t-23.5 -30t-39.5 -23t-57 -9q-86 0 -161 28t-139.5 75.5t-118.5 109.5t-99 131.5t-80 141t-61.5 137t-45 120.5t-28.5 91q-33 -63 -63 -124t-52.5 -116t-36 -102.5t-13.5 -82.5q0 -10 -0.5 -22t-2.5 -22
t-8 -16.5t-16 -6.5q-16 0 -31 11t-26.5 29t-18.5 41.5t-7 49.5q0 45 18 101t48 118t68 128t77.5 131.5t77.5 129t68 119t48 102t18 79.5q0 14 -2.5 30t-14 29.5t-35.5 22.5t-66 9q-137 0 -263 -33t-234.5 -85t-197 -115.5t-151 -124.5t-96.5 -112.5t-34 -78.5
q0 -14 -15 -15.5t-33 8.5t-33 29.5t-15 46.5q0 21 31 68.5t92 107t150.5 123t206.5 115.5t260.5 86t311.5 34q48 0 93 -7.5t80 -24t56.5 -42.5t21.5 -64q0 -27 -16.5 -71t-43.5 -100.5t-62 -122t-72 -134.5q24 6 73 20.5t109 37t123 54t115 72t85 89t33 106.5q0 43 -11 73
t-24 49.5t-24 30t-11 15.5q0 10 10 14.5t20 4.5q5 0 30 -6.5t53 -26t50.5 -55t22.5 -93.5q0 -72 -39.5 -130t-101 -103.5t-136.5 -79t-147.5 -57t-133 -37t-92.5 -19.5q44 -173 102.5 -301.5t125 -219.5t136.5 -149t136.5 -91.5t127 -46t106.5 -12.5z" />
    <glyph glyph-name="L" unicode="L" horiz-adv-x="607" 
d="M882 -256q23 0 44.5 7t38 13.5t26 7.5t9.5 -11q0 -15 -10 -36t-30 -41t-49 -34t-67 -14q-83 0 -163.5 24.5t-158 66t-152 96.5t-145.5 116t-139.5 124.5t-132.5 121.5q-94 -79 -197 -127t-217 -48q-64 0 -114.5 16.5t-85 45t-53 68t-18.5 86.5q0 52 25.5 96t66 75
t90 48.5t97.5 17.5q57 0 110.5 -11.5t104 -32.5t98.5 -50t94 -63q32 38 64 79.5t64 85.5q-97 33 -143 98.5t-46 143.5q0 43 13.5 72.5t31 47.5t35 26t25.5 8q16 0 29 -9.5t13 -20.5q0 -5 -6.5 -14t-14 -23t-13.5 -35.5t-6 -51.5q0 -15 6 -38.5t21 -49t39 -50t60 -42.5
q57 78 113.5 157.5t115 153t119 137.5t123 111.5t129 74.5t136.5 27q32 0 53.5 -10.5t34 -26.5t17.5 -34t5 -34q0 -89 -36 -171t-95 -153.5t-134.5 -130.5t-155.5 -100.5t-158 -64.5t-141 -23q-13 0 -25 0.5t-24 1.5q-42 -54 -86 -103.5t-91 -94.5q64 -53 127 -111
t128 -114.5t132.5 -107t141.5 -89t155 -61.5t172 -23zM853 1155q-43 0 -88.5 -27t-93 -73.5t-97.5 -109.5t-102.5 -135.5t-108.5 -151t-116 -155.5h21q63 0 136 31t145.5 81.5t139 114.5t118 129.5t82 127t30.5 107.5q0 16 -6 27.5t-15.5 19t-21.5 11t-23 3.5zM-449 41
q91 0 175.5 54t167.5 143q-47 41 -92.5 75.5t-88 60t-83.5 39.5t-79 14q-36 0 -72.5 -11t-65.5 -35t-47 -62.5t-18 -93.5q0 -38 12.5 -71.5t37.5 -58.5t63.5 -39.5t89.5 -14.5z" />
    <glyph glyph-name="M" unicode="M" horiz-adv-x="1209" 
d="M-130 682q46 0 72 -11.5t38.5 -27.5t15 -33t2.5 -28t-8.5 -14t-23 -2.5t-32.5 3t-36 2.5q-38 0 -79 -16.5t-80.5 -45.5t-75.5 -68.5t-62.5 -86.5t-42.5 -98.5t-16 -103.5q0 -59 22 -112t64.5 -93.5t105 -64.5t142.5 -24q82 0 159.5 32t149.5 86.5t139 127t128 154.5
t115.5 168t101.5 168t87 154.5t72.5 127t56 86.5t38.5 32q13 0 26.5 -2.5t25 -6t19 -8t7.5 -7.5q0 -2 -7 -27t-19 -65.5t-27 -93.5t-31 -110.5t-31 -115.5t-27 -110t-19 -93t-7 -65q106 151 199 270q40 51 81 99.5t78 86.5t67.5 61.5t50.5 23.5q25 0 39 -11t14 -24
q0 -5 -20 -28t-50 -62.5t-64.5 -94.5t-64.5 -123t-50 -148t-20 -170q0 -70 16 -117t39.5 -76.5t51 -44.5t51 -21.5t39.5 -8.5t16 -5q0 -8 -18.5 -19.5t-44.5 -11.5q-16 0 -41.5 3t-55 12.5t-59 27.5t-53.5 47.5t-39 72.5t-15 103q0 78 16 150t36 128q23 65 53 121
q-12 0 -42 -37t-69 -92.5t-81 -120t-79 -120t-63 -92.5t-32 -37q-18 0 -31 12.5t-13 55.5q0 11 6.5 45.5t17 84t24 109t27.5 119.5q33 142 76 315q-121 -270 -271 -482q-64 -90 -141 -176.5t-165.5 -154t-187 -109t-205.5 -41.5q-100 0 -178 28.5t-132 80t-82.5 123
t-28.5 158.5q0 58 20.5 116t54.5 111.5t79 100t93 81t97 54t91 19.5z" />
    <glyph glyph-name="N" unicode="N" horiz-adv-x="1163" 
d="M687 -154q-18 0 -31 12.5t-13 55.5q0 10 5.5 47.5t14 90.5t19.5 117.5t23 130.5q27 154 62 343q-104 -224 -241 -399q-59 -75 -130.5 -146.5t-155.5 -127.5t-179.5 -90t-202.5 -34q-100 0 -178 28.5t-132 80t-82.5 123t-28.5 158.5q0 58 20.5 116t54.5 111.5t79 100
t93 81t97 54t91 19.5q46 0 72 -11.5t38.5 -27.5t15 -33t2.5 -28t-8.5 -14t-23 -2.5t-32.5 3t-36 2.5q-38 0 -79 -16.5t-80.5 -45.5t-75.5 -68.5t-62.5 -86.5t-42.5 -98.5t-16 -103.5q0 -59 22 -112t64.5 -93.5t105 -64.5t142.5 -24q102 0 195 41.5t175.5 109.5t155 155
t134.5 177.5t113.5 177.5t92.5 155t70.5 109.5t48.5 41.5q13 0 27 -2.5t25.5 -6t19 -8t7.5 -7.5q0 -2 -9 -38.5t-24 -96t-34 -136t-39 -156.5t-39 -158t-34 -141t-24 -106t-9 -52q7 0 35 34.5t70 92.5t92.5 134.5t102.5 160.5t101 171t87 166t61 144.5t23 106.5q0 10 0.5 22
t3 22t8 16.5t15.5 6.5q16 0 31 -11t26.5 -29t18.5 -41.5t7 -49.5q0 -45 -29 -114t-77 -151.5t-109.5 -173t-127 -178t-129.5 -166.5t-117 -139t-89.5 -95.5t-46.5 -35.5z" />
    <glyph glyph-name="O" unicode="O" horiz-adv-x="948" 
d="M715 1034q62 0 110.5 -24t81.5 -65t50.5 -96t17.5 -117q0 -116 -26.5 -226t-73 -208t-109 -180.5t-134 -142t-148.5 -92.5t-152 -33q-73 0 -116.5 27.5t-66 69.5t-29 91.5t-6.5 92.5v20t2 20q-24 15 -45.5 38.5t-37 56.5t-24.5 77t-9 101q0 71 26 142.5t73 137
t112.5 122.5t145 98.5t170.5 65.5t188 24zM339 -113q58 0 119.5 42t120 111t110 158.5t90.5 185t61.5 189.5t22.5 172q0 72 -18 117t-44 70t-55 34t-51 9q-84 0 -159.5 -25t-139.5 -67.5t-115.5 -98t-88 -117t-56 -124t-19.5 -118.5q0 -43 6.5 -75.5t17.5 -57.5
q19 62 50 126t68 123.5t79 111.5t84.5 90.5t83.5 61t76 22.5q21 0 36 -4.5t22.5 -10.5t6.5 -10.5t-12 -4.5q-6 0 -33.5 -23t-66.5 -64t-86 -96.5t-92.5 -120.5t-84.5 -136.5t-63 -143.5q22 -14 44 -20.5t39.5 -9.5t28.5 -4t11 -3q0 -17 -18.5 -31t-44.5 -14q-18 0 -38.5 2
t-40.5 7q-4 -21 -6 -42t-2 -42q0 -52 18 -85t43 -51.5t51.5 -25.5t44.5 -7z" />
    <glyph glyph-name="P" unicode="P" horiz-adv-x="715" 
d="M657 1154q119 0 197 -34.5t117.5 -91.5t43 -129.5t-25.5 -148t-88.5 -148t-146 -129.5t-197.5 -91.5t-243 -34.5h-17q-36 -54 -72.5 -110t-65.5 -111.5t-47 -109.5t-18 -104q0 -12 4 -23.5t6 -21.5t0.5 -16t-11.5 -6q-16 0 -36 11t-37.5 29t-29.5 41.5t-12 49.5
q0 37 20.5 81.5t53 93.5t73.5 100.5t82 103.5q-33 6 -64 16t-55 27.5t-38.5 42.5t-14.5 60q0 30 18 62t47.5 62.5t67.5 57t77 44.5t77 25.5t67.5 0.5t47.5 -31t18 -70q0 -40 -25.5 -91.5t-64.5 -111.5q99 7 187.5 37.5t161.5 75.5t127.5 100.5t85 112t34.5 110t-24 95
t-91 66.5t-166 25q-127 0 -232.5 -30t-189.5 -78t-147 -107t-104.5 -117t-62 -108.5t-20.5 -81.5q0 -14 -13.5 -15.5t-29 8.5t-29 29.5t-13.5 46.5q0 21 22 69t67 107.5t112.5 123t158.5 116t205.5 86.5t252.5 34zM276 446q48 66 80 125.5t32 110.5q0 14 -23.5 15.5
t-58.5 -8t-75.5 -27.5t-75.5 -43.5t-58.5 -57t-23.5 -66.5q0 -18 22 -28t54 -14.5t66.5 -5.5t60.5 -1z" />
    <glyph glyph-name="Q" unicode="Q" horiz-adv-x="876" 
d="M1056 -432q13 0 23.5 3.5t18 5.5t11 -0.5t3.5 -14.5q0 -15 -8 -31t-23.5 -30t-39.5 -23t-57 -9q-104 0 -193.5 32.5t-165.5 88.5t-136.5 131.5t-105.5 162.5q-56 -14 -106 -14q-73 0 -122.5 35.5t-79.5 87t-43 108.5t-13 101q0 69 23.5 133t62 121t89 105t104.5 85
q21 80 53.5 154t77 130.5t101 90t125.5 33.5q68 0 122.5 -33.5t92.5 -86t58 -117t20 -126.5q0 -140 -41.5 -265t-109.5 -227t-156.5 -176.5t-182.5 -113.5q52 -84 120.5 -147.5t147 -106.5t162.5 -65t168 -22zM284 -95q38 0 80 17q-51 108 -76.5 222t-25.5 221
q0 35 2.5 72.5t7.5 75.5q-38 -36 -71.5 -78t-58.5 -90t-40 -102.5t-15 -115.5q0 -52 19.5 -93.5t48.5 -70t64 -43.5t65 -15zM336 362q0 -119 24.5 -219.5t69.5 -185.5q50 33 99.5 84t95 113.5t84 132.5t67 141.5t44.5 142t16 133.5q0 72 -19.5 127t-48.5 92.5t-63 57
t-62 19.5q-49 0 -89.5 -24.5t-72.5 -66.5t-56.5 -97t-41.5 -116q47 23 89.5 35.5t77.5 12.5q21 0 35.5 -5t22 -10.5t7 -10.5t-11.5 -5q-5 0 -27.5 -8t-56 -24.5t-76 -40.5t-86.5 -57q-11 -60 -16 -116.5t-5 -104.5z" />
    <glyph glyph-name="R" unicode="R" 
d="M1375 -432q13 0 23.5 3.5t18 5.5t11 -0.5t3.5 -14.5q0 -15 -8 -31t-23.5 -30t-39.5 -23t-57 -9q-115 0 -213 39.5t-178 107t-142 156.5t-104 188.5t-63.5 203.5t-21.5 201v97q-40 -69 -87.5 -139.5t-103 -136t-120.5 -123.5t-140.5 -100.5t-162.5 -67.5t-187 -25t-178 29
t-132 80.5t-82.5 123.5t-28.5 159q0 57 20.5 115t54.5 111.5t79 100t93 81t97 54t91 19.5q46 0 72 -11.5t38.5 -27t15 -32.5t2.5 -28t-8.5 -14.5t-23 -3t-32.5 3t-36 2.5q-38 0 -79 -16.5t-80.5 -45.5t-75.5 -68.5t-62.5 -86t-42.5 -98t-16 -103.5q0 -59 22 -113t64.5 -94.5
t105 -64.5t142.5 -24q72 0 144 33.5t140 88t131 124.5t117 143q128 171 242 389q-11 -11 -25 -20q-12 -8 -29.5 -14t-37.5 -6q-60 0 -87.5 28t-27.5 78q0 34 21.5 69t58.5 67.5t86 60.5t103.5 49.5t111.5 33.5t111 12q92 0 151.5 -25t91 -66t36 -93t-14.5 -106.5t-60 -106.5
t-100.5 -93t-135.5 -66t-166 -25l-6 -111q0 -129 29.5 -238t81 -197t121 -155t149.5 -112.5t166.5 -68.5t172.5 -23zM786 931q22 0 39 -7t27.5 -15t13 -15t-4.5 -7q-23 0 -48.5 -28t-54.5 -76.5t-62.5 -113t-73.5 -136.5q7 0 14.5 -2t12.5 -4l12 -6q86 0 158.5 37t123 93
t77 120.5t22 120.5t-43 93t-118.5 37q-101 0 -182.5 -29t-139 -71t-88.5 -88t-31 -79q0 -35 14.5 -48t31.5 -13q28 0 52 17.5t46.5 44t44 57t45.5 57t51.5 44t61.5 17.5z" />
    <glyph glyph-name="S" unicode="S" 
d="M946 897q0 -54 -36.5 -99t-98 -84.5t-141 -76.5t-164.5 -75q39 -42 84 -86.5t83.5 -92t64 -96.5t25.5 -100q0 -56 -20 -104t-54 -88t-80 -70.5t-98.5 -51.5t-108 -32t-109.5 -11q-38 0 -76 14t-69 40.5t-50.5 65.5t-19.5 89t26 98.5t65 87t86 62t89 23.5q22 0 43.5 -3
t38.5 -10t27.5 -18.5t10.5 -27.5q0 -9 -2 -21.5t-7 -12.5q-8 0 -15 2.5t-17.5 6t-27 6t-43.5 2.5q-38 0 -76 -14t-69.5 -37t-51 -52t-19.5 -58t15.5 -53t40 -41t55.5 -26t62 -9q32 0 71.5 4.5t80.5 14t80.5 25.5t70 38.5t49 53t18.5 69.5q0 53 -26 102.5t-65.5 95.5t-86 89
t-87.5 84q-89 -41 -172 -86.5t-147.5 -101.5t-103.5 -123.5t-39 -151.5q0 -51 10 -85t21.5 -56.5t21.5 -36.5t10 -26q0 -9 -11.5 -16t-30.5 -7q-21 0 -44 9.5t-42.5 31.5t-32 57t-12.5 86q0 96 47 174.5t123.5 143.5t174 118.5t198.5 99.5q-35 37 -57 72t-22 68t17.5 70
t49.5 73t76 69t97 57.5t112.5 39.5t122.5 15q88 0 126.5 -30.5t38.5 -86.5zM478 592q84 36 159.5 69.5t133 65.5t91.5 64.5t34 67.5q0 9 -3 19.5t-14 19.5t-34.5 15t-63.5 6q-31 0 -70.5 -8.5t-80 -22.5t-80 -33.5t-70 -41.5t-49 -46t-18.5 -47q0 -30 18 -61.5t47 -66.5z
" />
    <glyph glyph-name="T" unicode="T" horiz-adv-x="368" 
d="M643 1010q104 11 205.5 20t193.5 15t171 8t136.5 0t90 -8.5t32.5 -18.5q0 -14 -2.5 -29t-8.5 -27t-17 -20t-27 -8q-10 0 -41.5 0.5t-78.5 1t-104.5 0.5t-120.5 -1t-126.5 -4t-121.5 -8q-54 -5 -104.5 -10t-98.5 -10q-21 -44 -56 -101t-78 -122.5t-91.5 -136.5t-96 -142
t-90.5 -140t-76 -130.5t-52.5 -113.5t-19.5 -88q0 -10 -0.5 -22t-3 -22t-8 -16.5t-15.5 -6.5q-17 0 -32 11t-26.5 29t-18.5 41.5t-7 49.5q0 36 17 82t45.5 98t66.5 109t81 116q1 41 -12 85t-36 86.5t-54 80.5t-67 66.5t-74.5 45.5t-76.5 17q-15 -2 -23 3t-13 11q-5 7 -7 17
q0 24 61.5 48t164.5 47.5t236.5 44.5t277.5 39q7 13 23 24.5t32.5 16.5t31 -0.5t19.5 -27.5zM197 457l92 122t87.5 118t75 107.5t54.5 92.5q-186 -23 -319 -45.5t-217 -39.5q45 -23 83.5 -63.5t67.5 -89.5t48.5 -101.5t27.5 -100.5z" />
    <glyph glyph-name="U" unicode="U" 
d="M319 757q0 35 -7 77.5t-26.5 79.5t-55 62t-92.5 25q-53 0 -98 -20.5t-78 -54t-52 -75.5t-19 -85t10 -66.5t21.5 -36t21.5 -18t10 -11.5t-10 -12.5t-27 -6.5q-9 0 -26 6t-34 21.5t-29.5 41.5t-12.5 67q0 40 22.5 89.5t65 92.5t102.5 72t135 29q68 0 116.5 -17.5
t81.5 -44.5t52.5 -59.5t30 -63.5t13.5 -55.5t3 -35.5q0 -76 -30.5 -154.5t-76.5 -155t-100 -148.5t-100 -136.5t-76.5 -118.5t-30.5 -94q0 -21 10 -30.5t23 -9.5q35 0 80.5 22.5t95.5 60t102 84.5t101 97q115 116 238 265q48 80 94 156.5t82 149.5t58 141.5t22 132.5
q0 13 14 13.5t30.5 -15t30.5 -47t14 -80.5q0 -41 -20 -94t-53 -115t-75.5 -131.5t-86.5 -143.5t-86.5 -151t-75.5 -154t-53 -152t-20 -146q0 -29 -12 -30t-26.5 20t-26.5 62.5t-12 97.5q0 45 10 89t27 86.5t38 84t44 82.5q-26 -32 -63.5 -78t-83 -95.5t-96 -98.5t-104 -87.5
t-107 -62.5t-103.5 -24q-67 0 -97.5 31.5t-30.5 87.5q0 42 30.5 100.5t76.5 126.5t100 142.5t100 148t76.5 142.5t30.5 128z" />
    <glyph glyph-name="V" unicode="V" horiz-adv-x="653" 
d="M137 -63q7 0 35 34.5t69.5 92.5t92.5 134.5t102.5 160.5t101 171t87.5 166t61 144.5t23 106.5q0 10 0.5 22t2.5 22t7.5 16.5t16.5 6.5q16 0 31 -11t26.5 -29t18.5 -41.5t7 -49.5q0 -45 -29 -114t-77 -151.5t-109.5 -173t-127 -178t-129.5 -166.5t-117 -139t-89.5 -95.5
t-46.5 -35.5q-19 0 -31.5 12.5t-12.5 55.5q0 25 10 84t24.5 135.5t31.5 165t31.5 173t24.5 158.5t10 123q0 35 -7 77.5t-26.5 79.5t-55.5 62t-93 25q-53 0 -98 -20.5t-78 -54t-52 -75.5t-19 -85t10 -66.5t21.5 -36t21.5 -18t10 -11.5t-10 -12.5t-27 -6.5q-9 0 -26 6
t-34 21.5t-29.5 41.5t-12.5 67q0 40 22.5 89.5t65 92.5t102.5 72t135 29q68 0 116.5 -17.5t81.5 -44.5t52.5 -59.5t30 -63.5t13.5 -55.5t3 -35.5q0 -45 -12 -116.5t-30 -155t-39 -170t-39 -160.5t-30 -128t-12 -71z" />
    <glyph glyph-name="W" unicode="W" horiz-adv-x="1119" 
d="M1264 1014q16 0 31.5 -11t27 -29t18.5 -41.5t7 -49.5q0 -45 -29 -114t-77 -151.5t-109.5 -173t-127 -178t-130 -166.5t-117.5 -139t-89.5 -95.5t-46.5 -35.5q-18 0 -31 12.5t-13 55.5q0 24 9 78.5t22.5 126.5t29.5 155t31 164q-51 -69 -110.5 -139.5t-120 -136
t-118 -123.5t-104.5 -100.5t-79 -67.5t-41 -25q-18 0 -31 12.5t-13 55.5q0 25 10 84t24.5 135.5t31.5 165t31.5 173t24.5 158.5t10 123q0 35 -7 77.5t-26.5 79.5t-55 62t-93.5 25q-53 0 -98 -20.5t-78 -54t-52 -75.5t-19 -85t10 -66.5t21.5 -36t21.5 -18t10 -11.5t-10 -12.5
t-27 -6.5q-9 0 -26 6t-34 21.5t-29.5 41.5t-12.5 67q0 40 22.5 89.5t65 92.5t103 72t135.5 29q68 0 116 -17.5t81 -44.5t52.5 -59.5t30 -63.5t13.5 -55.5t3 -35.5q0 -45 -12 -116.5t-30 -155t-39 -170t-39 -160.5t-30 -128t-12 -71q7 0 35.5 28.5t70 76.5t92.5 112
t103.5 135t101.5 145.5t87.5 143.5t61.5 128.5t23 100.5q0 10 0.5 22t2.5 22t7.5 16.5t16.5 6.5q16 0 31.5 -11.5t27.5 -31t19 -44t7 -49.5q0 -45 -12 -116.5t-30 -155t-39 -170t-39 -160.5t-30 -128t-12 -71q7 0 35 34.5t70 92.5t92.5 134.5t102.5 160.5t101 171t87 166
t61 144.5t23 106.5q0 10 0.5 22t3 22t8 16.5t15.5 6.5z" />
    <glyph glyph-name="X" unicode="X" horiz-adv-x="884" 
d="M1406 -415q13 0 23.5 3.5t18 5.5t11 -1t3.5 -15q0 -15 -7.5 -31t-23.5 -30t-40 -23t-57 -9q-94 0 -191.5 60t-193 159t-184.5 226t-165 262q-71 -77 -149 -144.5t-159.5 -118t-166 -80t-167.5 -29.5q-100 0 -178 27.5t-132 77.5t-82.5 120.5t-28.5 157.5q0 58 20.5 116
t54.5 111.5t79 99.5t93 80.5t97 54t91 19.5q46 0 72 -11.5t38.5 -27t15 -32.5t2.5 -28t-8.5 -14t-23 -2.5t-32.5 3t-36 2.5q-38 0 -79 -16.5t-80.5 -45.5t-75.5 -68.5t-62.5 -86.5t-42.5 -98.5t-16 -103.5q0 -59 22 -111t64.5 -91t105 -62t142.5 -23q74 0 150 32.5t149.5 88
t144 129t133.5 155.5q-54 102 -98.5 200t-76 183t-48.5 152.5t-17 108.5q0 29 17.5 50t39 30t39 5t17.5 -25q0 -72 13.5 -148.5t38 -156t59 -159.5t76.5 -159q62 88 113 176.5t88 166.5t57 141t20 99q0 10 0.5 22t3 22t8 16.5t15.5 6.5q16 0 31 -11t26.5 -29t18.5 -41.5
t7 -49.5q0 -39 -24.5 -105.5t-69.5 -148t-107 -173t-137 -180.5q54 -92 116.5 -178.5t128 -162.5t132.5 -138.5t131 -107.5t123.5 -69.5t109.5 -24.5z" />
    <glyph glyph-name="Y" unicode="Y" horiz-adv-x="655" 
d="M393 122q-44 -48 -100 -100t-120.5 -94.5t-135 -70t-143.5 -27.5q-66 0 -96.5 32t-30.5 88q0 42 30.5 100.5t76.5 126.5t100 142t100 147.5t76.5 142.5t30.5 128q0 35 -7 77.5t-26.5 79.5t-55 62t-92.5 25q-53 0 -98.5 -20.5t-78.5 -54t-52 -75.5t-19 -85t10 -66.5
t21.5 -36t21.5 -18t10 -11.5t-10 -12.5t-27 -6.5q-8 0 -25 6t-34 21.5t-29.5 41.5t-12.5 67q0 40 22.5 89.5t64.5 92.5t102.5 72t135.5 29q68 0 116 -17.5t81 -44.5t53 -59.5t30.5 -63.5t13.5 -55.5t3 -35.5q0 -76 -30.5 -154.5t-76.5 -154.5t-100 -148.5t-100 -136.5
t-76.5 -118t-30.5 -94q0 -21 10 -31t23 -10q35 0 78.5 19t90.5 50.5t95 71.5t93 82q106 99 216 224q48 80 100.5 169.5t97 177.5t73.5 169.5t29 145.5q0 12 13.5 12t30 -15t30.5 -46t14 -80q0 -44 -22.5 -101t-59 -123.5t-82.5 -142t-92 -154.5l-199 -388
q-25 -61 -59.5 -123t-78 -120t-94 -108.5t-108 -88.5t-120 -59.5t-129.5 -21.5q-64 0 -122 31q-54 30 -76 69.5t-25.5 76t3 63t8.5 31.5q5 8 12 14.5t15 6.5t14 -13.5t15 -33.5t22.5 -43t37 -43t59 -33.5t88.5 -13.5q52 0 102 24.5t95 64.5t85.5 91t75.5 104q81 125 149 285
z" />
    <glyph glyph-name="Z" unicode="Z" horiz-adv-x="480" 
d="M860 -436q23 0 44.5 7t37.5 13.5t25.5 7.5t9.5 -11q0 -15 -10 -36t-29.5 -41t-49 -34t-67.5 -14q-94 0 -183.5 24t-175 63t-167 89.5t-158.5 104.5t-150 106.5t-142 96.5q-77 -51 -158.5 -80.5t-170.5 -29.5h-2q-74 0 -114.5 35t-40.5 89q0 30 17.5 55t44.5 42.5
t59.5 27.5t63.5 10q83 0 156 -16.5t141 -45.5q78 77 152.5 176.5t150.5 205.5q-46 -10 -81 -21.5t-61 -21.5t-44 -17.5t-29 -8.5q-14 -2 -24.5 13.5t-12.5 35.5q-2 11 29.5 24t78 25t99.5 22.5t94 16.5q75 104 150.5 200.5t155.5 171.5q-63 23 -130 46.5t-134.5 42.5
t-134.5 31t-130 12q-53 0 -98.5 -20.5t-78.5 -54t-52 -75.5t-19 -85t10 -66.5t21.5 -36t21.5 -18t10 -11.5t-10 -12.5t-27 -6.5q-8 0 -25 6t-34 21.5t-29.5 41.5t-12.5 67q0 40 22.5 89.5t64.5 92.5t102.5 72t135.5 29q70 0 146.5 -10.5t153.5 -26t152.5 -34.5t143.5 -36
q64 50 131.5 78.5t139.5 28.5q51 0 84 -19t49.5 -47t15 -61t-20 -61t-54 -47t-88.5 -19q-46 0 -104.5 15.5t-127.5 39.5q-57 -66 -118 -150.5t-127 -175.5q55 1 108.5 -0.5t96 -6t69.5 -11.5t29 -17q2 -11 -5.5 -15t-13.5 -5q-3 0 -24.5 3t-62.5 5t-100 1.5t-137 -8.5
q-44 -61 -90.5 -121.5t-95.5 -117.5t-101 -109t-106 -95q73 -38 143 -84.5t141 -94t144.5 -92.5t154 -80t170 -56t192.5 -21zM831 975q-42 0 -84 -23.5t-87 -65.5q48 -11 87.5 -17t69.5 -6q46 0 68.5 17.5t23 38.5t-19 38.5t-58.5 17.5zM-471 -139q68 0 131.5 30.5
t125.5 83.5q-65 37 -125.5 59t-117.5 22q-19 0 -39.5 -5.5t-38 -17.5t-29 -31.5t-11.5 -47.5q0 -38 25.5 -65.5t78.5 -27.5z" />
    <glyph glyph-name="bracketleft" unicode="[" horiz-adv-x="650" 
d="M931 963q1 -12 -2 -26t-9.5 -26t-17.5 -21t-26 -10q-10 -1 -32.5 -2t-52 -1.5t-63.5 -1.5t-67 -2q-11 -23 -35.5 -63.5t-58 -92.5t-74 -112t-84 -123t-86.5 -125t-82.5 -118t-72.5 -102.5l-55 -77.5q47 3 85.5 6t66.5 4t43.5 -1t16.5 -9q1 -13 -11.5 -28t-38.5 -18
q-12 -1 -44 -2.5t-72 -3.5t-81.5 -4t-72.5 -3q-3 0 -4.5 4t-0.5 11t4.5 14.5t10.5 13.5q-2 4 -2 6q0 10 24.5 50.5t64 101t90.5 136t103.5 154.5t103.5 157t90.5 144.5t64 115.5t24.5 70q0 4 9 2.5t22 -6.5h2q69 3 127 7t100.5 4.5t66.5 -4t26 -18.5z" />
    <glyph glyph-name="backslash" unicode="\" horiz-adv-x="476" 
d="M47 860q0 29 13.5 36t30 1.5t30.5 -18.5t14 -24q0 -34 21 -90t53 -124.5t68.5 -144t68.5 -148.5t53 -137.5t21 -110.5q0 -20 -5 -38t-14 -31.5t-20.5 -22t-24.5 -8.5q-8 0 -12 5t-6 13t-2.5 16.5t-0.5 16.5q0 32 -12.5 79t-32.5 103t-46 118t-53 124.5t-53 122t-46 110.5
t-32.5 90.5t-12.5 61.5z" />
    <glyph glyph-name="bracketright" unicode="]" 
d="M834 971q19 -10 36.5 -28.5t17.5 -46.5q0 -10 -20 -46.5t-54 -89.5t-78 -119.5t-92.5 -137t-98 -141.5t-93 -133t-78.5 -111.5t-55 -77.5q-2 -2 -2.5 -3.5t-2.5 -3.5q-5 -6 -8 -10.5l-5 -7.5q-3 -4 -4 -6q-7 0 -13 1t-11 3q-13 -1 -45 -3t-71.5 -3.5t-80.5 -3.5t-72 -3
q-4 0 -5 8t3 18t14 19t27 10q60 4 109.5 7.5t87.5 5.5q13 27 48.5 82.5t83.5 127t103.5 153.5t108.5 163t99 155t76 130q-22 -1 -53 -1.5t-64 -1t-66 -0.5h-58q-5 0 -6.5 15.5t2 34t13 34.5t26.5 17q56 2 104.5 5t85 4t60.5 -2t31 -13z" />
    <glyph glyph-name="asciicircum" unicode="^" 
d="M518 785q21 -26 40.5 -42.5t34 -27t22 -17t5.5 -11.5q0 -7 -7 -11q-6 -3 -19 -2.5t-38 10.5q-24 9 -50 24.5t-48.5 34.5t-39.5 40t-23 41q-13 -9 -33.5 -23t-44.5 -30t-48.5 -31.5t-45.5 -28t-37 -20.5t-22 -8q-7 0 -9.5 4t-2.5 9q0 8 13 20.5t33 27t43 29.5t44 29
t42.5 29.5t42 29t38.5 22t32 8.5q15 0 21 -3q4 -2 6 -9t6.5 -20t14.5 -31.5t30 -42.5z" />
    <glyph glyph-name="underscore" unicode="_" horiz-adv-x="761" 
d="M605 -68q15 -6 19.5 -12.5t4.5 -10.5q0 -6 -0.5 -10.5t-9.5 -9.5q-9 -4 -18.5 -6t-21.5 -2q-3 0 -33 3q-17 1 -37.5 2.5t-43 3t-45 2.5t-41.5 1q-125 2 -204.5 -5t-109.5 -11l-16.5 -1.5t-8.5 -0.5q-6 0 -12.5 1.5t-11.5 5.5q-1 1 -3 2.5t-4 5t-2.5 9t1.5 13.5
q0 5 6.5 11.5t23.5 11.5q21 7 61.5 11.5t84.5 6t83.5 1.5h58.5q14 0 52 -1t82 -3t84.5 -6.5t60.5 -11.5z" />
    <glyph glyph-name="grave" unicode="`" 
d="M536 734q2 -8 -3 -13t-17.5 -9t-39.5 -4q-32 0 -69.5 8.5t-69.5 23t-53.5 34.5t-21.5 43q0 15 6.5 24.5t15.5 15t18 8t13 2.5t8.5 -6.5t14 -17t25 -24.5t42.5 -29q29 -17 53 -25.5t41.5 -13.5t27 -8t9.5 -9z" />
    <glyph glyph-name="a" unicode="a" horiz-adv-x="606" 
d="M759 469q5 7 11.5 8t11 -1t5.5 -7.5t-3 -11.5q-18 -25 -50 -69t-71 -94.5t-83 -103t-85.5 -94.5t-78.5 -69t-63 -27q-34 0 -49.5 15.5t-20.5 34.5q-6 22 -3 51q-19 -29 -42 -51q-20 -19 -46.5 -34.5t-55.5 -15.5q-21 0 -45 8t-44.5 26.5t-33.5 48.5t-13 74q0 37 14.5 84
t41 95.5t64 95.5t83 83.5t97.5 58.5t109 22q29 0 48.5 -9t31.5 -25t17.5 -38t5.5 -48q0 -25 -11 -55q9 -2 19 -6t19 -8.5t15 -9t6 -8.5q0 -3 -17.5 -26.5t-42 -57t-50 -72.5t-42.5 -71.5t-19 -54.5t21 -22q17 0 45.5 23.5t63 60t71.5 81t70 87.5t59.5 78.5t39.5 53.5z
M145 50q26 0 55 21t59 54t59.5 73.5t56.5 79.5q-8 9 -14.5 18t-6.5 11t13.5 16.5t30 37.5t30.5 52.5t14 62.5q0 23 -9.5 37.5t-30.5 14.5q-50 0 -98 -35.5t-87.5 -88.5t-68 -115t-40.5 -115t-4 -88.5t41 -35.5z" />
    <glyph glyph-name="b" unicode="b" horiz-adv-x="518" 
d="M675 469q5 6 11 7.5t10.5 -1t6 -7.5t-2.5 -11q-18 -25 -46.5 -69t-67.5 -94.5t-88.5 -103t-109 -94.5t-129 -69t-149.5 -27q-26 0 -46.5 14.5t-34.5 37.5t-21.5 53t-7.5 62q0 33 17.5 82t46 107t65 121.5t74.5 127t74.5 123.5t65 110.5t46 88t17.5 56.5q0 5 14.5 2
t31.5 -13.5t31.5 -29t14.5 -43.5q0 -11 -11 -33t-28.5 -51t-40 -62.5t-45.5 -66.5q-55 -78 -125 -171q19 23 43 41q20 15 47.5 28t60.5 13t53 -14t31 -35t15 -46.5t4 -49.5q0 -39 -14.5 -85.5t-40 -93.5t-59.5 -92.5t-74 -82.5q31 4 66 28.5t70.5 60t70.5 77.5t64.5 81.5
t53 72.5t36.5 51zM110 55q14 0 41.5 19t60.5 51.5t67.5 75.5t62.5 91.5t46 100t18 100.5q0 9 -2.5 19.5t-7 19.5t-11.5 14.5t-17 5.5q-25 0 -57 -24.5t-65.5 -63.5t-65.5 -87t-57 -95.5t-40.5 -89t-15.5 -66.5q0 -29 9.5 -50t33.5 -21z" />
    <glyph glyph-name="c" unicode="c" horiz-adv-x="524" 
d="M681 475q5 6 11 7.5t10.5 -1t6 -7.5t-2.5 -11q-18 -25 -52.5 -69t-80 -95.5t-99 -104.5t-110 -96t-112.5 -70.5t-107 -27.5q-21 0 -46.5 9t-47.5 28.5t-36.5 50.5t-14.5 75q0 37 14.5 83.5t41 94.5t64 94t83 81.5t97.5 57.5t109 22q14 0 24.5 -1t19.5 -4q15 35 32.5 59.5
t30.5 24.5t26.5 -7t24.5 -16.5t17.5 -20.5t6.5 -19q0 -18 -17 -34t-37.5 -36.5t-37.5 -49.5t-17 -74q0 -36 -9 -42t-19.5 7.5t-19 39.5t-8.5 55q0 16 2.5 32.5t7.5 33.5q-3 1 -6 1.5t-8 0.5q-33 0 -67.5 -21.5t-67 -57t-61 -80.5t-49.5 -91.5t-33.5 -91.5t-12.5 -80.5
t14 -57t45 -21.5t75.5 27t94.5 68.5t101.5 92t95.5 98.5t77 87t47 57z" />
    <glyph glyph-name="d" unicode="d" horiz-adv-x="591" 
d="M754 469q5 7 11.5 8t11 -1t5.5 -7.5t-3 -11.5q-18 -25 -50 -69t-71.5 -94.5t-83.5 -103t-86.5 -94.5t-79.5 -69t-62 -27q-24 0 -38.5 9t-22 22t-9.5 27t-2 25v13q0 3 1 5q-19 -29 -42 -51q-20 -19 -46.5 -34.5t-55.5 -15.5q-21 0 -45 8t-44.5 26.5t-33.5 48.5t-13 74
q0 37 14.5 84t41 96t64 95.5t83 83t97.5 59t109 22.5q50 0 74.5 -24t24.5 -54q51 78 97 151.5t81 134.5t55.5 104.5t20.5 61.5q0 15 14 13.5t31 -14t31 -33t14 -43.5q0 -13 -23.5 -54t-61.5 -98.5t-85.5 -127.5t-94.5 -141t-89.5 -139t-70.5 -121t-37 -87.5t11 -38.5
q2 0 3 -0.5t3 -0.5q17 0 46 23.5t63.5 60t72 81t71 87t60 78t39.5 53.5zM365 284q-9 5 -15 11q-5 5 -9.5 11t-4.5 12q0 2 16 15t34.5 34t34.5 48.5t16 60.5q0 23 -9.5 37.5t-30.5 14.5q-50 0 -98 -35.5t-87.5 -88.5t-68 -115t-40.5 -115t-4 -88.5t41 -35.5q20 0 42 12
t44.5 32.5t45.5 48t46 58.5q11 19 22 39.5t25 43.5z" />
    <glyph glyph-name="e" unicode="e" horiz-adv-x="472" 
d="M630 475q5 6 11.5 7.5t11 -1t5.5 -7.5t-3 -11q-18 -25 -48.5 -69t-70.5 -95.5t-87 -104.5t-97.5 -96t-103 -70.5t-103.5 -27.5q-21 0 -46.5 9t-47.5 28.5t-36.5 50.5t-14.5 75q0 37 14.5 83.5t41 94.5t64 94t83 81.5t97.5 57.5t109 22q52 0 70 -20t18 -52
q0 -46 -25 -87.5t-69 -74t-103 -52.5t-126 -22q-20 -46 -31.5 -90t-11.5 -78t14 -54.5t45 -20.5t72 27t85.5 68.5t89 92t83 98.5t68 87t42.5 57zM422 545q-30 0 -60.5 -17t-59.5 -45.5t-55.5 -66.5t-48.5 -79q51 1 93 17t73.5 39.5t51.5 50t28 49t2.5 37.5t-24.5 15z" />
    <glyph glyph-name="f" unicode="f" horiz-adv-x="380" 
d="M204 41q-16 -61 -46.5 -120.5t-69.5 -113t-83.5 -99t-87.5 -79t-82 -52.5t-68 -19q-43 0 -50.5 38.5t13 105t63.5 155t99.5 189t122 206.5t130.5 207.5t125.5 193t106.5 161.5t74 114t28 50q0 15 10.5 14t22.5 -14t22.5 -33.5t10.5 -44.5q0 -8 -10 -25t-27 -43
q-29 -47 -73.5 -116t-93.5 -147t-97 -157.5t-84 -148.5q21 -6 36.5 -34.5t15.5 -97.5q0 -9 -0.5 -18.5t-1.5 -19.5q27 21 59.5 53.5t65.5 69t65.5 75.5t60 73.5t48.5 62t32 42.5q5 7 11 8.5t10.5 -1t6 -7.5t-2.5 -11q-14 -20 -37 -52.5t-52 -70.5t-63 -80t-69.5 -81.5
t-71.5 -74t-69 -58.5zM37 79q-63 -100 -111 -184q-21 -36 -41 -73t-35.5 -69t-25 -58t-9.5 -40q0 -21 21 -15.5t54 30t73 64t77.5 86t68.5 96.5t46 96q-25 -10 -44 -10q-23 0 -37.5 12t-22.5 26q-10 17 -14 39zM168 66q8 43 8 67q0 46 -12.5 63.5t-26.5 19.5
q-16 -35 -25 -63.5t-9 -48.5t10.5 -31.5t33.5 -11.5q8 0 21 5z" />
    <glyph glyph-name="g" unicode="g" horiz-adv-x="613" 
d="M771 469q5 7 11.5 8.5t11 -1t5.5 -7.5t-3 -11q-33 -60 -83 -118.5t-111 -115t-130.5 -110t-141.5 -103.5q-45 -65 -93.5 -131.5t-98 -128.5t-98 -116.5t-92.5 -94.5t-82.5 -63.5t-67.5 -23.5q-63 0 -90 31t-27 83q0 33 36.5 70t99.5 80.5t146.5 94.5t176.5 110
q65 80 116 148q-10 -11 -23 -23.5t-28 -23t-32.5 -17t-35.5 -6.5q-21 0 -45 8t-44.5 26.5t-33.5 49t-13 74.5q0 37 14.5 83.5t41 95.5t64 95.5t83 83t97.5 59t109 22.5t79.5 -33.5t22.5 -87.5q0 -12 -2.5 -26t-7.5 -29q9 -2 19 -6t19 -8.5t15 -9t6 -8.5q0 -6 -13.5 -32
t-37 -66.5t-56.5 -92.5t-72 -111q109 82 210 176.5t179 205.5zM-248 -468q19 0 53 26t77.5 69t93 99.5t99.5 116.5q-75 -48 -141 -89.5t-115 -76t-77.5 -61.5t-28.5 -45q0 -11 4 -20q4 -8 11.5 -13.5t23.5 -5.5zM146 51q25 0 54 21t59 54t60 73.5t57 79.5q-8 8 -14.5 17
t-6.5 11q0 3 13.5 17.5t30 37t30 52t13.5 62.5q0 24 -9 38t-30 14q-50 0 -98 -35.5t-87.5 -88.5t-68 -114.5t-40.5 -114.5t-4 -88.5t41 -35.5z" />
    <glyph glyph-name="h" unicode="h" horiz-adv-x="549" 
d="M300 0q-32 0 -49 15t-24 33q-9 21 -8 49q0 42 22.5 90t54.5 95.5t66 92t58 78t30 54t-19 20.5q-20 0 -50 -22.5t-65.5 -59.5t-74.5 -84.5t-77.5 -97t-74.5 -97t-65 -84.5t-49.5 -59.5t-28.5 -22.5q-14 0 -26 5t-21 12t-13.5 13.5t-4.5 9.5q0 10 24.5 51.5t65 103
t92 137.5t105 156.5t105 160t92 146.5t65 117t24.5 72q0 4 14.5 1t31.5 -13.5t31.5 -28.5t14.5 -43q0 -12 -15.5 -41t-40 -68.5t-56.5 -86.5t-65 -94t-64.5 -90.5t-55.5 -77t-38.5 -54t-12.5 -20.5t16 17t36.5 42t51.5 55t61.5 55t66.5 42t66 17q34 0 49.5 -21t15.5 -59
q0 -33 -23 -78t-54.5 -93t-66 -94.5t-57 -83.5t-27 -59.5t22.5 -22.5q17 0 45.5 23.5t63 60t71.5 81t70 87.5t59.5 78.5t39.5 53.5q5 7 11.5 8t11 -1t5.5 -7.5t-3 -11.5q-18 -25 -49 -69t-69 -94.5t-81 -103t-84.5 -94.5t-79.5 -69t-67 -27z" />
    <glyph glyph-name="i" unicode="i" horiz-adv-x="271" 
d="M366 708q-8 -6 -28.5 -10t-41.5 0.5t-37.5 20.5t-16.5 49q0 24 7 40t18.5 26t26.5 14t31 4q30 0 44.5 -19t18 -44t-2.5 -48.5t-19 -32.5zM429 469q5 7 11.5 8t11 -1t5.5 -7.5t-3 -11.5q-18 -25 -50 -69t-71 -94.5t-82.5 -103t-85.5 -94.5t-79 -69t-62 -27q-31 0 -47 11.5
t-24 25.5q-9 17 -10 38q0 27 18.5 66.5t47 85.5t61 96.5t61 98.5t47 91.5t18.5 76.5q0 5 14.5 6t31.5 -4t31.5 -18t14.5 -37q0 -30 -21 -75t-50.5 -95t-61.5 -100.5t-55 -91t-31 -65.5t11 -25q17 0 45.5 23.5t63 60t71.5 81t70 87.5t59.5 78.5t39.5 53.5z" />
    <glyph glyph-name="j" unicode="j" horiz-adv-x="298" 
d="M370 696q0 -8 -21 -12.5t-46 -1t-46 17t-21 41.5q0 20 8.5 33.5t20.5 22t24.5 12t21.5 3.5q19 0 30.5 -9.5t18 -25t8.5 -36.5t2 -45zM448 466q5 6 11 7.5t10.5 -1t6 -7.5t-2.5 -11q-33 -59 -82 -116.5t-108.5 -112.5t-127 -108t-138.5 -103q-45 -69 -93.5 -138
t-97.5 -131.5t-97.5 -116.5t-93.5 -94t-85.5 -62.5t-74.5 -22.5q-63 0 -90.5 31t-27.5 83q0 33 38 71t102.5 83t150.5 97t181 113q50 72 97 146.5t89.5 145.5t78 134.5t61 113t40 82t14.5 40.5q0 5 14.5 7t31.5 -3.5t31.5 -22t14.5 -47.5q0 -10 -18 -49t-49.5 -98t-75 -133
t-94.5 -155q108 81 207 174.5t177 203.5zM-571 -472q32 0 72 25.5t86 70.5t95 105t99 129q-81 -51 -152 -95.5t-124 -81.5t-84 -66t-31 -48q0 -11 4 -20q3 -8 11 -13.5t24 -5.5z" />
    <glyph glyph-name="k" unicode="k" horiz-adv-x="576" 
d="M737 469q5 7 11.5 8t11 -1t5.5 -7.5t-3 -11.5q-18 -25 -49 -69t-69 -94.5t-81 -103t-84.5 -94.5t-79.5 -69t-67 -27q-44 0 -66.5 24.5t-30.5 61t-5 78.5t10 77q-10 -1 -18.5 1.5t-8.5 10.5q0 19 7 31t15 19q10 8 22 11q71 25 127 52q24 12 46.5 25.5t40.5 28.5t29 30.5
t11 32.5q0 26 -16.5 39.5t-45.5 13.5q-32 0 -68.5 -23t-75 -60.5t-78 -86t-77 -98.5t-71 -98.5t-60.5 -86t-45.5 -60.5t-26.5 -23q-14 0 -26 5t-21 12t-13.5 13.5t-4.5 9.5q0 10 24.5 51.5t65 103t92 137.5t105 156.5t105 160t92 146.5t65 117t24.5 72q0 4 14.5 1
t31.5 -13.5t31.5 -28.5t14.5 -43q0 -16 -19 -51t-48 -78.5t-62 -89.5t-61 -84.5t-45.5 -63t-15.5 -24.5q3 0 17.5 13.5t40 30t60.5 30t79 13.5q27 0 50 -5t40 -15.5t26.5 -27t9.5 -38.5q0 -33 -13.5 -61.5t-36 -53t-50.5 -45t-58 -36.5q-70 -38 -157 -64q-11 -59 -12 -105
q0 -20 2 -38.5t8 -33t16.5 -23.5t27.5 -9t48.5 26.5t70.5 68t81.5 92t80.5 98t67.5 86.5t42.5 57z" />
    <glyph glyph-name="l" unicode="l" horiz-adv-x="433" 
d="M598 469q5 7 11.5 8t11 -1t5.5 -7.5t-3 -11.5q-18 -25 -48.5 -69t-69.5 -94.5t-84 -103t-91.5 -94.5t-92 -69t-85.5 -27q-51 0 -81 16.5t-45.5 43t-20.5 59.5t-5 65q0 33 12.5 85t35 115t54 132t69.5 136.5t82 128.5t91.5 107.5t97.5 74t100 27.5q14 0 29.5 -3.5
t28 -13.5t20.5 -26.5t8 -42.5q0 -54 -40 -129t-108 -159t-158 -171t-189 -166q-11 -42 -13 -77.5t7 -61.5t29 -40.5t55 -14.5q31 0 68 23.5t75.5 60t76.5 81t70.5 87.5t58 78.5t38.5 53.5zM575 922q-25 0 -59.5 -25.5t-74 -68.5t-81 -100.5t-79.5 -121t-71 -130t-55 -127.5
q74 55 139.5 119.5t118.5 128t92 122.5t61 104t25 72t-16 27z" />
    <glyph glyph-name="m" unicode="m" horiz-adv-x="884" 
d="M505 330q2 0 18 19.5t41.5 49.5t58.5 64t68.5 64t71.5 49.5t68 19.5q33 0 48.5 -21t15.5 -59q0 -36 -23 -82t-55.5 -94t-67 -94t-57.5 -81.5t-26.5 -57.5t25.5 -22q17 0 45.5 23.5t63 60t71.5 81t70 87.5t59.5 78.5t39.5 53.5q5 7 11.5 8t11 -1t5.5 -7.5t-3 -11.5
q-18 -25 -50 -69t-71 -94.5t-82.5 -103t-85.5 -94.5t-79 -69t-62 -27q-31 0 -47 11.5t-24 25.5q-9 17 -10 38q0 52 23.5 105.5t56 104t67.5 94.5t58.5 77t28.5 52t-22 19q-20 0 -50 -22.5t-65.5 -59.5t-74.5 -84.5t-77.5 -97t-74.5 -97t-65 -84.5t-49.5 -59.5t-28.5 -22.5
q-14 0 -26 5t-21 12t-13.5 13.5t-4.5 9.5q0 19 14.5 50t37.5 69t51.5 80t56 83t51.5 78t37.5 65.5t14.5 45t-18 16.5q-20 0 -50 -22.5t-65 -59.5t-74 -84.5t-77 -97t-74 -97t-65 -84.5t-49 -59.5t-28 -22.5q-14 0 -26 5t-21 12t-13.5 13.5t-4.5 9.5t19.5 34t49 79t64.5 108
t65.5 120t52.5 115t25 94q0 5 14.5 6.5t31.5 -4t31.5 -18t14.5 -36.5t-13.5 -59.5t-29 -68.5t-27.5 -56.5t-9 -23.5q2 0 18 19.5t41.5 49.5t57.5 64t67.5 64t71.5 49.5t68 19.5q33 0 48.5 -21t15.5 -59q0 -19 -14.5 -50.5t-31.5 -61.5t-30 -52t-10 -22z" />
    <glyph glyph-name="n" unicode="n" horiz-adv-x="580" 
d="M330 0q-32 0 -49 15t-24 33q-9 21 -8 49q0 42 23 90t55 95.5t67 92t59 78t30.5 54t-18.5 20.5q-20 0 -50 -22.5t-66 -59.5t-75.5 -84.5t-78 -97t-75 -97t-66 -84.5t-50 -59.5t-28.5 -22.5q-14 0 -26 5t-21 12t-13.5 13.5t-4.5 9.5t20.5 35.5t51.5 83t67 112.5t67 122.5
t51.5 113t20.5 85.5q0 4 13.5 3.5t30 -8t30.5 -22.5t14 -39t-13 -57.5t-28.5 -64t-27 -52.5t-8.5 -22q2 0 18.5 19.5t42.5 49.5t59 64t69 64t72.5 49.5t68.5 19.5q34 0 49 -21t15 -59q0 -25 -13.5 -57t-34.5 -67t-46.5 -71.5t-50 -70.5t-45.5 -64t-31.5 -52.5t-8.5 -35.5
t22 -13q17 0 45.5 23.5t63 60t71.5 81t70 87.5t59.5 78.5t39.5 53.5q5 7 11.5 8t11 -1t5.5 -7.5t-3 -11.5q-18 -25 -49 -69t-69 -94.5t-81 -103t-84.5 -94.5t-79.5 -69t-67 -27z" />
    <glyph glyph-name="o" unicode="o" horiz-adv-x="498" 
d="M649 469q5 7 11 8t10.5 -1t6 -7.5t-2.5 -11.5q-20 -29 -46.5 -59t-58 -58.5t-67.5 -52t-76 -38.5q-30 -48 -67.5 -93t-78 -79.5t-82.5 -55.5t-83 -21q-14 0 -33.5 3t-37.5 16.5t-31 40.5t-13 75q0 31 8.5 69.5t22.5 78t32 76.5t37.5 66t39 46.5t35.5 17.5q19 0 30.5 -1.5
t19.5 -3.5q29 53 77.5 82.5t108.5 29.5q32 0 52.5 -11t32.5 -27.5t17 -37t5 -38.5q0 -33 -16 -79.5t-43 -98.5q31 14 59 34t52.5 42.5t44 45.5t34.5 43zM156 70q26 0 53 13t53 35t51 51t48 62q-21 -3 -44 -3q-40 0 -64.5 11.5t-37.5 29.5t-17.5 41t-4.5 47q0 2 0.5 5t0.5 5
q-16 -25 -32.5 -53.5t-30.5 -58.5t-23 -60t-9 -58q0 -19 5.5 -31.5t14 -20.5t18.5 -11.5t19 -3.5zM394 285q34 58 54 112t20 86q0 23 -10.5 36.5t-34.5 13.5q-29 0 -55.5 -17.5t-46.5 -43t-31.5 -54t-11.5 -51.5t7.5 -39t19.5 -26.5t26.5 -15t27.5 -4.5q18 0 35 3z" />
    <glyph glyph-name="p" unicode="p" horiz-adv-x="587" 
d="M742 468q5 6 11 7.5t10.5 -1t6 -7.5t-2.5 -11q-18 -25 -46.5 -69t-67.5 -94.5t-88.5 -103t-109 -94.5t-129 -69t-149.5 -27q-42 0 -69 34.5t-36 82.5q-50 -76 -98.5 -149.5t-88 -131t-67 -92.5t-36.5 -35q-8 0 -17.5 3.5t-18 10.5t-14 15.5t-5.5 19.5q0 5 19.5 35.5
t51.5 78.5t72.5 109.5t83.5 129.5t83.5 137.5t72.5 134t51.5 119t19.5 92.5q0 5 14 4t30.5 -9t30.5 -23t14 -39q0 -11 -3.5 -25t-8.5 -30q51 54 104.5 89t103.5 35q33 0 53 -13.5t31.5 -34.5t15.5 -46.5t4 -49.5q0 -39 -14.5 -85.5t-40 -93.5t-60 -92.5t-74.5 -82.5
q31 4 66 28.5t71 60t70.5 77.5t64.5 81.5t53 72.5t36 51zM177 54q14 0 41.5 19t60.5 51.5t67.5 75.5t63 91.5t46.5 100t18 100.5q0 19 -9.5 38.5t-28.5 19.5q-26 0 -58 -24.5t-65.5 -63t-65.5 -86.5t-57 -95.5t-40.5 -89t-15.5 -66.5q0 -29 9.5 -50t33.5 -21z" />
    <glyph glyph-name="q" unicode="q" horiz-adv-x="577" 
d="M772 469q5 7 11 8.5t10.5 -1t6 -7.5t-2.5 -11q-152 -161 -282.5 -290.5t-215.5 -230.5q-68 -81 -108.5 -142.5t-64.5 -102.5t-36.5 -62t-24.5 -21q-14 0 -26 8t-21 18t-13.5 19.5t-4.5 12.5q0 2 11.5 20.5t30 48t42.5 66.5t49.5 76t50 76.5t45 68.5t34 51.5t16.5 25.5
l-15 -20t-31.5 -34t-44 -32t-52.5 -14q-21 0 -45 8t-44.5 26.5t-33.5 49t-13 74.5q0 37 14.5 83.5t41 95.5t64 95.5t83 83t97.5 59t109 22.5q58 0 80.5 -34t22.5 -87q0 -24 -11 -55q9 -2 19 -6t19 -8.5t15 -9t6 -8.5q-1 0 -1 -1q-1 -1 -1 -1.5t-1 -1.5q-7 -11 -27 -40.5
t-46 -68t-54 -80.5t-50.5 -77t-37 -58t-12.5 -23q109 101 201 188q39 37 77.5 74.5t71.5 70.5t57.5 58.5t34.5 39.5zM145 51q26 0 55 21t59 54t59.5 73.5t56.5 79.5q-8 8 -14.5 17t-6.5 11q0 3 13.5 17.5t30 37t30.5 52t14 62.5q0 24 -9.5 38t-30.5 14q-50 0 -98 -35.5
t-87.5 -88.5t-68 -114.5t-40.5 -114.5t-4 -88.5t41 -35.5z" />
    <glyph glyph-name="r" unicode="r" horiz-adv-x="416" 
d="M222 85q17 0 45.5 23.5t63 60t71.5 81t70 87.5t59.5 78.5t40.5 53.5q5 7 11 8t10.5 -1t6 -7.5t-2.5 -11.5q-18 -25 -49 -69t-69 -94.5t-81 -103t-85 -94.5t-80 -69t-67 -27q-32 0 -48.5 15t-23.5 33q-8 21 -8 49q0 51 17 91t37.5 75t37.5 68t17 70q0 14 -8.5 23t-21.5 18
t-27.5 18.5t-27.5 24t-21.5 35.5t-8.5 53q0 33 13.5 62t35.5 50.5t50 33.5t57 12q14 0 23 -6.5t9 -14.5q0 -12 -11 -26.5t-24.5 -32.5t-24.5 -41t-11 -53t8.5 -49t21.5 -31t28.5 -19.5t28.5 -16t21.5 -20t8.5 -30.5q0 -17 -13.5 -46t-32 -63t-37 -69t-29 -63.5t-8 -46.5
t27.5 -18z" />
    <glyph glyph-name="s" unicode="s" horiz-adv-x="423" 
d="M576 469q5 7 11 8t10.5 -1t6 -7.5t-2.5 -11.5q-18 -25 -47.5 -69t-67 -94.5t-81.5 -103t-91 -94.5t-96 -69t-96 -27h-15q-33 0 -57 11t-39.5 28t-23 39t-7.5 43q0 19 6 28t13 9.5t13 -7t6 -21.5q0 -27 17.5 -49.5t59.5 -22.5q43 0 63 30t25 77.5t-0.5 106t-15 116
t-18 107t-8.5 78.5q0 33 15.5 62t39.5 50.5t54 33.5t59 12q14 0 23 -6.5t9 -14.5q0 -12 -12 -26.5t-26 -32.5t-26 -41t-12 -53q0 -45 8 -89t17.5 -87.5t17.5 -86t8 -85.5q0 -17 -2.5 -35.5t-7.5 -34.5q23 19 48.5 47t52.5 60t53 66t48.5 64.5t40 54.5t27.5 38z" />
    <glyph glyph-name="t" unicode="t" horiz-adv-x="388" 
d="M865 768q0 -8 -36.5 -24t-99 -34t-145.5 -34.5t-176 -25.5q-42 -62 -88 -130.5t-86.5 -134t-72 -124.5t-46 -104t-8.5 -71.5t42 -26.5q16 0 38.5 14.5t50 39t58 56.5t60.5 67t59 70.5t53.5 67t43.5 56.5t29 39q5 6 11 7.5t10.5 -1t6 -7.5t-2.5 -11q-18 -26 -49.5 -69.5
t-71 -94.5t-84 -103t-89 -94t-86 -69t-74.5 -27q-38 0 -62 13.5t-38.5 34t-20 43.5t-5.5 41q0 31 25 86.5t65.5 125t90.5 147t100 152.5q-96 0 -154 11t-90 28.5t-42.5 39t-10.5 42.5q0 18 12.5 25.5t21.5 7.5q4 0 13.5 -10.5t33.5 -24.5t66.5 -27t113.5 -18q15 -1 31 -1.5
t35 -0.5h17q33 49 62.5 93.5t51 79.5t34 59.5t12.5 33.5q0 15 14 13.5t31 -14t31 -33.5t14 -44q0 -15 -31 -64.5t-79 -120.5q92 5 158 15t109.5 20.5t67 18.5t31.5 8q17 0 31 -2t14 -10z" />
    <glyph glyph-name="u" unicode="u" horiz-adv-x="568" 
d="M723 469q5 7 11.5 8t11 -1t5.5 -7.5t-3 -11.5q-18 -25 -50 -69t-71 -94.5t-82.5 -103t-85.5 -94.5t-79 -69t-62 -27q-31 0 -47 10.5t-24 24.5q-9 16 -10 36q0 31 22.5 76.5t54.5 96.5q-10 -12 -27.5 -34.5t-41 -49.5t-51.5 -55.5t-57.5 -51.5t-60 -38t-58.5 -15
q-34 0 -51 23t-17 61q0 27 17.5 64t44 80.5t57.5 91.5t58.5 95.5t47 93t23.5 84.5q0 4 14.5 3.5t31.5 -8t31.5 -23t14.5 -39.5q0 -30 -21 -75t-50.5 -95.5t-62.5 -101t-56.5 -90.5t-31.5 -65.5t11 -25.5t47 20.5t60.5 54t68.5 77t71.5 89.5t69 91t62.5 82q11 25 18 54.5
t9 51.5q0 4 14.5 3t31.5 -9t31.5 -23t14.5 -38q0 -30 -20.5 -74t-49 -93t-60.5 -98t-54.5 -88t-30 -63.5t11.5 -24.5q17 0 45.5 23.5t63 60t71.5 81t70 87.5t59.5 78.5t39.5 53.5z" />
    <glyph glyph-name="v" unicode="v" horiz-adv-x="492" 
d="M649 469q5 7 11 8t10.5 -1t6 -7.5t-2.5 -11.5q-22 -34 -50 -60q-24 -23 -58.5 -41.5t-76.5 -18.5q-7 0 -17 2q-32 -58 -74.5 -118.5t-90 -109.5t-97 -80t-95.5 -31q-14 0 -33.5 3t-37.5 16.5t-31 40.5t-13 75q0 27 14 60.5t34.5 71.5t45.5 79t47 83t38 83.5t20 80.5
q0 4 14.5 4t31.5 -7.5t31.5 -23t14.5 -40.5q0 -30 -19.5 -75t-46 -95l-53 -100t-41.5 -90t-12 -65t37 -25q30 0 66 26t73.5 67.5t72 92t61.5 99.5q-25 24 -35 63.5t-3.5 78t29 66t63.5 27.5q17 0 28 -7t17.5 -18t9 -24t2.5 -26q0 -24 -14 -65t-40 -90q5 -1 8.5 -1.5
t8.5 -0.5q27 0 53 16t47 36q24 23 46 53zM445 392q20 38 31 71t11 54q0 47 -23 47q-14 0 -24.5 -19.5t-14.5 -46.5t0 -56.5t20 -49.5z" />
    <glyph glyph-name="w" unicode="w" horiz-adv-x="809" 
d="M963 469q5 7 11.5 8t11 -1t5.5 -7.5t-3 -11.5q-22 -34 -50 -60q-24 -23 -58.5 -41.5t-76.5 -18.5q-5 0 -8.5 0.5t-8.5 1.5q-32 -58 -74 -118.5t-89.5 -109.5t-97.5 -80t-96 -31q-13 0 -32.5 3t-37.5 15.5t-31 38.5t-14 72q-51 -57 -104.5 -93t-104.5 -36q-14 0 -33.5 3
t-37.5 16.5t-31 40.5t-13 75q0 27 14.5 62t37 75t48 82.5t48 84.5t37 81.5t14.5 72.5q0 4 14.5 3t31.5 -9t31.5 -23t14.5 -38q0 -30 -19.5 -75t-46 -95l-53 -100t-41.5 -90t-12 -65t37 -25q24 0 52 17t57.5 45.5t59 65t55.5 76.5q22 39 47 80.5t46.5 82.5t35.5 79.5t14 70.5
q0 4 14.5 3.5t31.5 -8.5t31.5 -23t14.5 -39q0 -30 -19.5 -75t-46 -95l-53 -100t-41.5 -90t-12 -65t37 -25q30 0 66.5 26t73.5 67.5t71.5 92t61.5 99.5q-25 24 -35 63.5t-3.5 78t29.5 66t63 27.5q17 0 28 -7t17.5 -18t9 -24t2.5 -26q0 -24 -14 -65t-39 -90q10 -2 17 -2
q27 0 53 16t46 36q24 23 46 53zM759 392q20 38 31 71t11 54q0 47 -23 47q-14 0 -24.5 -19.5t-14.5 -46.5t0 -56.5t20 -49.5z" />
    <glyph glyph-name="x" unicode="x" horiz-adv-x="637" 
d="M794 469q5 7 11 8.5t10.5 -1t6 -7.5t-2.5 -11q-18 -25 -44 -69t-58 -95t-69 -103.5t-76.5 -94.5t-81 -69t-81.5 -27q-42 0 -69.5 15t-44 40.5t-23 60t-7.5 72.5q-43 -36 -81.5 -68t-68.5 -56.5t-50 -40.5t-26 -19q-11 -6 -20.5 -2.5t-14.5 11.5t-3.5 19t12.5 19
q35 29 76 62q35 29 81 66t97 80q4 51 12 99.5t12.5 86.5t3 61.5t-16.5 23.5q-17 0 -34.5 -11t-31.5 -25q-17 -16 -31 -36q-5 -7 -11.5 -9t-11 0.5t-6 7.5t3.5 12q24 36 52 64q23 24 53.5 44t62.5 20q38 0 59.5 -17t31 -46t9.5 -67t-5 -80q73 63 132.5 116.5t88.5 84.5
q8 9 18.5 9.5t17 -5t7.5 -15t-9 -20.5q-16 -18 -43 -45t-62.5 -59.5t-76.5 -69t-84 -73.5q-8 -47 -14 -91t-4.5 -77.5t13.5 -54t41 -20.5q31 0 65 25t68.5 63.5t67.5 85.5t61.5 91.5t51 81.5t36.5 55z" />
    <glyph glyph-name="y" unicode="y" horiz-adv-x="571" 
d="M721 469q5 7 11.5 8.5t11 -1t5.5 -7.5t-3 -11q-33 -59 -81.5 -116.5t-108 -113t-127.5 -108.5t-138 -102q-45 -69 -94 -138t-98 -132t-97.5 -117t-93.5 -93.5t-85.5 -62t-74.5 -22.5q-63 0 -90 31t-27 83q0 31 34 66.5t92 77t136 89t166 103.5q51 65 96.5 126.5
t80.5 109.5q40 56 76 106q-10 -12 -27.5 -34.5t-41 -50t-51.5 -56t-57.5 -51.5t-60 -38t-58.5 -15q-34 0 -51 23t-17 61q0 27 17.5 64t44 80.5t57.5 91.5t58.5 95.5t47 93t23.5 84.5q0 5 14.5 4.5t31.5 -8t31.5 -23t14.5 -40.5q0 -29 -21 -74.5t-50.5 -95.5t-62.5 -100.5
t-56.5 -91t-31.5 -66t11 -25.5t47 20.5t60.5 54t68.5 77.5t71.5 90t69 91t62.5 82q11 24 17.5 54t8.5 51q0 5 14.5 4.5t32 -8t32 -23t14.5 -40.5q0 -10 -18 -48.5t-49.5 -97.5t-75 -133t-94.5 -155q108 81 207 174t176 203zM-298 -468q18 0 49 24.5t71 65t85 94t92 111.5
q-71 -45 -132 -84t-106.5 -71t-71.5 -57.5t-26 -43.5q0 -11 4 -20q4 -8 11.5 -13.5t23.5 -5.5z" />
    <glyph glyph-name="z" unicode="z" horiz-adv-x="472" 
d="M633 469q5 7 11 8.5t10.5 -1t6 -7.5t-2.5 -11q-65 -107 -155 -207.5t-187 -191.5q11 -44 0 -106t-38.5 -129.5t-69 -134t-92 -119t-107.5 -85t-116 -32.5q-63 0 -90.5 31t-27.5 83q0 40 38.5 88t104 106.5t151 128.5t179.5 155q5 26 -2 41t-28 15q-34 0 -62.5 -16
t-51 -34.5t-39 -34.5t-26.5 -16q-15 0 -27 8t-20.5 18t-13 19.5t-4.5 12.5t18 23.5t45 51.5t58 68.5t58 75t45 70.5t18 55q0 21 -18 32.5t-39.5 26.5t-39.5 40t-18 72q0 34 13.5 63t35.5 50t50 33t57 12q14 0 23 -6.5t9 -14.5q0 -12 -11 -26.5t-24.5 -32.5t-24.5 -41
t-11 -53t8.5 -49t21.5 -30.5t28.5 -19.5t28.5 -16t21.5 -19.5t8.5 -30.5q0 -15 -15 -44t-39 -65.5t-54.5 -77t-60.5 -77.5q25 6 55 6q29 0 48.5 -10.5t31.5 -29.5q86 81 170.5 173.5t161.5 201.5zM-153 -468q23 0 55.5 21.5t68.5 57t74 82t72.5 96t63 98.5t46.5 91
q-82 -72 -157.5 -135.5t-133.5 -116t-93 -92t-35 -63.5q0 -11 4 -20q4 -8 11.5 -13.5t23.5 -5.5z" />
    <glyph glyph-name="braceleft" unicode="{" horiz-adv-x="550" 
d="M715 996q15 0 22.5 -6.5t8.5 -14t-4 -14t-16 -6.5q-26 0 -54 -40t-60 -100.5t-67.5 -130.5t-77 -130.5t-88 -100.5t-100.5 -40q10 -10 18 -25q7 -13 13 -31.5t6 -42.5q0 -30 -18 -67.5t-45.5 -79t-59.5 -84.5t-59.5 -84t-45.5 -78t-18 -65q0 -13 1.5 -23t2 -16.5
t-1.5 -9.5t-9 -3t-17.5 7t-20 23.5t-16.5 43.5t-7 68q0 28 17.5 61.5t43 70.5t56 75.5t56 75.5t43 71t17.5 62q0 19 -10 35.5t-17.5 28.5t-5.5 19t27 7q32 0 61 23.5t56 61.5t53 87t53.5 100t56 100t60.5 87t68 61.5t78 23.5z" />
    <glyph glyph-name="bar" unicode="|" horiz-adv-x="500" 
d="M634 1082q14 0 26.5 -9t12.5 -36q0 -15 -16 -51t-43 -87.5t-63 -115.5t-77 -135.5t-83.5 -147.5t-83.5 -151t-77 -146t-63 -133t-43 -111.5t-16 -81.5q0 -20 2.5 -30.5t-9.5 -10.5q-5 0 -15 8.5t-20.5 25t-18 41.5t-7.5 57q0 28 25 90.5t66 146t93.5 181t107.5 195
t108 188t95.5 160t69 111.5t29.5 42z" />
    <glyph glyph-name="braceright" unicode="}" horiz-adv-x="550" 
d="M-31 -188q-15 0 -22.5 6.5t-8.5 14t4 14t16 6.5q26 0 54 40t60 100.5t67.5 130.5t77 130.5t88 100.5t100.5 40q-11 10 -19 25q-7 13 -12.5 31t-5.5 43q0 30 18 67.5t45.5 79t59.5 84.5t59.5 84t45.5 77.5t18 65.5q0 13 -1.5 23t-2 16.5t1.5 9.5t9 3t17 -7t20 -23.5
t17 -43.5t7 -68q0 -28 -17.5 -61.5t-43 -70.5t-56 -75.5t-56 -75.5t-43 -71t-17.5 -62q0 -20 10 -36.5t17.5 -28.5t5.5 -18.5t-27 -6.5q-32 0 -61 -23.5t-56 -61.5t-53 -87t-53.5 -100t-56 -100t-60.5 -87t-68 -61.5t-78 -23.5z" />
    <glyph glyph-name="asciitilde" unicode="~" horiz-adv-x="704" 
d="M324 819q25 0 43.5 -11.5t33.5 -25t27.5 -24.5t25.5 -11q20 0 39.5 8.5t35 19t26 19.5t12.5 9q13 0 3.5 -18t-31.5 -40t-50.5 -40t-54.5 -18t-44 11.5t-33 25.5t-28.5 25.5t-30.5 11.5t-33.5 -9t-31.5 -20t-26.5 -20t-17.5 -9q-15 0 -5.5 18t32 40t52.5 40t56 18z" />
    <glyph glyph-name="exclamdown" unicode="&#xa1;" horiz-adv-x="576" 
d="M2 42q0 30 23.5 79t59 109t77 126.5t77 131t59 123t23.5 102.5q0 7 0.5 16.5t2.5 17t6.5 13t12.5 5.5q13 0 25 -8.5t21 -23t14.5 -33t5.5 -38.5q0 -48 -22.5 -102t-56 -111t-73 -114t-73 -109.5t-56 -98.5t-22.5 -81q0 -11 -16.5 -24.5t-36 -19t-35.5 2t-16 37.5z
M368 974q0 8 20.5 12.5t44.5 1.5t44.5 -16.5t20.5 -40.5q0 -20 -8.5 -33t-20 -21t-24 -11.5t-20.5 -3.5q-18 0 -29.5 9t-17.5 24.5t-8 35.5t-2 43z" />
    <glyph glyph-name="cent" unicode="&#xa2;" horiz-adv-x="524" 
d="M452 592q24 -9 33 -28t9 -42q0 -30 -11.5 -58.5t-31.5 -54.5q-9 -11 -20 -12.5t-19 4t-9.5 16.5t9.5 25q14 18 22.5 36t11 32.5t-2 24t-15.5 12.5q-4 -7 -7.5 -14t-8.5 -15q-20 -36 -48.5 -90.5t-60 -118.5t-64.5 -133t-62 -132q3 0 6 -0.5t6 -0.5q25 0 59 18.5t74 48.5
q7 5 14.5 4t12 -6t3.5 -12.5t-12 -16.5q-48 -34 -94 -55.5t-89 -24.5q-13 -28 -23.5 -52.5t-19.5 -46.5q-6 -18 -20 -2q-11 14 -5.5 40.5t18.5 65.5q-19 6 -38 18.5t-34.5 32t-25 46t-9.5 61.5t13.5 80t38.5 92t59.5 92.5t77.5 82.5t92.5 61t103.5 28q16 29 30.5 53.5
t28.5 44.5q8 12 16 11t12 -12q8 -17 2.5 -42.5t-22.5 -60.5zM343 521q-31 -21 -61 -55t-55.5 -75t-46 -85t-33 -86t-16 -78.5t4.5 -60.5q16 40 39.5 92.5t51 111t57.5 119.5t59 117z" />
    <glyph glyph-name="sterling" unicode="&#xa3;" horiz-adv-x="852" 
d="M707 914q30 0 58.5 -8t50 -25.5t34.5 -45t13 -66.5q0 -38 -10 -69t-26.5 -53t-37.5 -34t-44 -12q-9 0 -17 4t-14 9t-10 10.5t-4 8.5q24 14 42 36q16 19 29.5 48.5t13.5 74.5q0 7 -3 20.5t-11.5 26.5t-24.5 22.5t-43 9.5q-51 0 -91.5 -33.5t-76 -88.5t-67 -127t-63.5 -148
q65 -2 109 -11q5 -2 6.5 -7.5t-1.5 -13.5q-8 -20 -25.5 -32.5t-50.5 -10.5q-13 2 -30 2.5t-39 1.5q-23 -50 -47 -98t-51.5 -91.5t-59 -80.5t-68.5 -65q54 -14 108 -34.5t107.5 -40t105.5 -33.5t102 -14q26 0 48 8.5t38 16t25 10t9 -9.5t-8.5 -28.5t-27.5 -31.5t-49.5 -25.5
t-74.5 -10.5q-50 0 -105 19.5t-111.5 46.5t-110.5 55t-100 45q-31 -16 -66 -25.5t-75 -9.5q-44 0 -58 12.5t-2.5 27.5t44.5 27.5t82 12.5h10.5t11.5 -1q30 22 56 55.5t50 75.5t46.5 89.5t45.5 98.5q-30 -1 -57 -3.5t-47 -6.5q-6 -1 -5 15q3 17 15 31.5t34 20.5
q12 5 36.5 7.5t55.5 4.5q37 82 78 161.5t91.5 141.5t113 100t143.5 38zM-53 47q14 0 27 2.5t27 7.5q-37 -2 -52.5 -6t-1.5 -4z" />
    <glyph glyph-name="dieresis" unicode="&#xa8;" 
d="M261 710q0 -11 -21 -18t-46 -5.5t-46 13.5t-21 40q0 21 8.5 34.5t20.5 22t24.5 12t21.5 3.5q38 0 48.5 -27.5t10.5 -74.5zM496 726q0 -21 -21 -31.5t-46 -10t-46 14t-21 41.5q0 25 8.5 39t20.5 21.5t24.5 9.5t21.5 2q38 0 48.5 -24.5t10.5 -61.5z" />
    <glyph glyph-name="copyright" unicode="&#xa9;" horiz-adv-x="637" 
d="M329 180q17 11 22 2.5t-13 -21.5q-28 -20 -55.5 -31t-53.5 -11q-12 0 -26.5 5.5t-27 16.5t-21 29t-8.5 43q0 22 8.5 49.5t23.5 55.5t37 55.5t48 48.5t56.5 34t63.5 13q29 0 39.5 -13t10.5 -32q0 -17 -6 -34.5t-17 -31.5q-6 -7 -13 -7.5t-11.5 2.5t-5.5 9.5t5 14.5
q20 23 21.5 43t-16.5 20q-26 0 -53 -22t-49.5 -55t-39.5 -71t-23.5 -71t0.5 -55t31 -22q14 0 33 10t40 26zM407 600q57 0 98.5 -23.5t64 -64.5t24 -96t-20.5 -118q-23 -63 -64.5 -117.5t-94 -95.5t-111.5 -64.5t-116 -23.5t-98.5 23.5t-64.5 64.5t-25 95.5t21 117.5t65 118
t94.5 96t111.5 64.5t116 23.5zM202 36q42 0 86.5 21t85 56.5t74.5 83t54 101.5q19 55 20.5 103t-13.5 84t-45 57t-72 21t-87 -21t-85.5 -57t-74 -84t-53.5 -103q-20 -54 -21 -101.5t14 -83t45 -56.5t72 -21z" />
    <glyph glyph-name="guillemotleft" unicode="&#xab;" horiz-adv-x="602" 
d="M338 571q16 0 16 -23q0 -17 -16 -38.5t-40.5 -43.5t-55 -43t-59 -38.5t-52 -30t-34.5 -16.5q10 -8 24.5 -25t27.5 -38.5t22.5 -44t9.5 -40.5q0 -15 -1 -23t-9 -8q-4 0 -16.5 16t-31.5 39t-44 49t-55 46q-24 17 -24 33q0 19 24 29q7 3 36.5 17.5t72 39t92.5 58t98 74.5
q11 11 15 11zM536 568q15 0 15 -22q0 -18 -15 -40.5t-38 -47.5t-51.5 -49t-55.5 -44t-50 -34t-34 -18q10 -7 21.5 -20.5t21 -30.5t16 -35.5t6.5 -36.5q0 -15 -1 -23t-9 -8q-4 0 -13.5 12t-25 30.5t-37.5 40.5t-52 42q-24 17 -24 33q0 17 24 29q71 36 138.5 85.5t148.5 126.5
q11 10 15 10z" />
    <glyph glyph-name="registered" unicode="&#xae;" horiz-adv-x="595" 
d="M459 842q12 -2 17.5 -8.5t7.5 -11.5q6 -17 -6 -36q-7 -12 -27.5 -26t-48.5 -19q2 -2 4 -6t6 -8q5 -9 7 -15t4 -10q3 -7 5.5 -11.5t8.5 -11.5l2 -4v-2q-2 -4 -5 -4q-1 0 -1.5 -0.5t-1.5 -0.5h-1q-10 0 -25 15q-11 12 -16 23.5t-10 22.5q-8 -14 -14 -27.5t-11 -28.5
q-2 -4 -5 -4q-4 -2 -8 2q-12 12 -1 42q9 27 27.5 63t39.5 68q6 6 8 6q3 0 5 -2q2 0 6 1t6 1q16 0 27 -8zM449 791q4 8 5.5 16t-1.5 13q-1 8 -11 12h-8t-7 -2q-1 -9 -5 -19t-10 -22q-2 -5 -4 -8t-4 -8q-3 -4 -5 -7.5t-5 -8.5q20 3 33.5 13.5t21.5 20.5zM472 918
q30 0 51.5 -12.5t32.5 -33.5t11.5 -49.5t-11.5 -61.5q-11 -32 -32 -60t-48 -49t-58 -33.5t-61 -12.5t-51.5 12.5t-33 33.5t-12 49t11.5 60q12 33 33 61.5t48 49.5t58 33.5t61 12.5zM520 761q20 58 4 97t-60 39q-22 0 -45 -10.5t-44 -28.5t-38 -43t-27 -54q-11 -28 -12 -52.5
t6.5 -42.5t23 -28.5t37.5 -10.5t45 10.5t44 28.5t38 42.5t28 52.5z" />
    <glyph glyph-name="degree" unicode="&#xb0;" horiz-adv-x="552" 
d="M120 -45q82 0 133 -36t73.5 -94.5t19.5 -133t-28 -152.5t-69.5 -153t-105 -133.5t-134.5 -94t-158 -35.5q-51 0 -98 30.5t-83 80.5t-57.5 114t-21.5 130q0 67 23.5 122t54.5 95q-75 -1 -158.5 -9.5t-164 -22t-153.5 -30.5t-128.5 -35t-88 -35t-32.5 -31q0 -8 -16.5 -8
t-36 8.5t-35.5 25t-16 43.5q0 19 37.5 39.5t103.5 40t155.5 37t193 30.5t216.5 21t226 8q14 0 31.5 -8t33.5 -20.5t26.5 -27t10.5 -27.5q0 -3 -13.5 -20t-33.5 -44.5t-43 -63t-43 -74.5t-33.5 -79t-13.5 -77q0 -41 11 -71.5t28.5 -51t38 -31t39.5 -10.5q88 0 156.5 30.5
t119 80t84.5 113t53.5 130t25.5 130t2 113t-18.5 80t-35.5 30.5q-49 0 -86.5 -13.5t-64.5 -30t-45.5 -30t-29.5 -13.5q-6 0 -20 8.5t-28 20.5t-25 25t-11 23q0 9 17.5 30.5t42.5 47t52 50.5t46 42q-20 20 -33 50t-13 75q0 37 12.5 83t36 94.5t57 94.5t75.5 82.5t92 58.5
t107 22h8q-1 5 -1 11v11q0 18 6.5 37.5t15.5 36t19 27t17 10.5q9 0 22 -9t24.5 -21t20 -23.5t8.5 -15.5q0 -9 -8 -16.5t-19 -17t-22 -21.5t-17 -29q50 -33 50 -99q0 -35 -21 -77t-46 -76q0 -1 2 -5q2 -2 4 -2q7 -5 24 -5q25 0 59.5 14.5t69.5 37t67 51t52 55.5q5 6 11.5 7.5
t11 -1t5.5 -7.5t-3 -11q-25 -35 -61.5 -75t-78 -75t-84.5 -61t-81 -33q-20 -32 -50 -70t-69 -70.5t-85 -54t-97 -21.5q-24 0 -47 10l-96 -89q15 9 34 16q17 6 40.5 11.5t54.5 5.5zM394 531q-50 0 -97.5 -35.5t-86 -89t-66 -116t-38.5 -116t-3 -89t41 -35.5q32 0 64 22.5
t61.5 56.5t54.5 73t44 71q-6 6 -12.5 15t-12 18.5t-9 17t-3.5 9.5t17 13t37 30t37 45t17 58q0 23 -12.5 37.5t-32.5 14.5zM418 -245q87 0 207 -2.5t256.5 -7.5t281.5 -12.5t283.5 -18t262 -24t216 -30.5t147 -37t54.5 -44q0 -10 -5 -13t-15 -3q-8 0 -71 8t-172.5 20
t-260.5 26t-336 26t-398.5 20t-447.5 8z" />
    <glyph glyph-name="acute" unicode="&#xb4;" horiz-adv-x="472" 
d="M263 734q0 6 9.5 9t27 8t41 13.5t52.5 25.5q27 15 43 29t25.5 24.5t14 17t8.5 6.5t12.5 -2.5t17.5 -8t15.5 -15t6.5 -24.5q0 -23 -21.5 -43t-53.5 -34.5t-69.5 -23t-69.5 -8.5q-27 0 -39 4t-17 9t-3 13z" />
    <glyph glyph-name="guillemotright" unicode="&#xbb;" horiz-adv-x="695" 
d="M318 147q-16 0 -16 23q0 17 16 38.5t40.5 43.5t55 43t59 38.5t52 30t34.5 16.5q-10 7 -24.5 24.5t-27.5 39t-22.5 44t-9.5 40.5q0 15 1 23t9 8q4 0 16.5 -16t31.5 -39t44 -49t55 -46q24 -17 24 -33q0 -19 -24 -29q-7 -3 -36.5 -17.5t-72 -39t-92.5 -58t-98 -74.5
q-11 -11 -15 -11zM120 150q-15 0 -15 22q0 17 15 40t38 48t51.5 49t55.5 44t49.5 34t34.5 18q-10 7 -21.5 20.5t-21 30.5t-16 35.5t-6.5 36.5q0 15 1 23t9 8q4 0 13.5 -12t25 -30.5t37.5 -40.5t52 -42q24 -17 24 -33q0 -17 -24 -29q-71 -36 -138.5 -85.5t-148.5 -126.5
q-11 -10 -15 -10z" />
    <glyph glyph-name="questiondown" unicode="&#xbf;" horiz-adv-x="800" 
d="M450 863q-19 0 -30 9t-17 24.5t-8 35.5t-2 43q0 8 20 12.5t44.5 1.5t44.5 -16.5t20 -40.5q0 -20 -8 -33t-19.5 -21t-24 -11.5t-20.5 -3.5zM238 0q-55 0 -99 16t-74.5 42.5t-46.5 59.5t-16 66q0 60 27 106t67.5 85.5t87.5 75.5t87.5 76.5t67.5 88.5t27 111q0 27 15 31
t32.5 -8.5t32.5 -37.5t15 -55q0 -64 -30 -108.5t-75 -79t-97 -63t-97 -60.5t-75 -72t-30 -97q0 -22 9.5 -44.5t29.5 -41t51.5 -30t76.5 -11.5q67 0 114.5 18.5t79 47.5t50 64.5t27.5 70.5t11.5 65.5t2.5 48.5q0 24 19 28t41.5 -6.5t41.5 -33t19 -51.5q0 -21 -8.5 -52
t-27.5 -64.5t-49 -66.5t-73.5 -59.5t-101.5 -43t-132 -16.5z" />
    <glyph glyph-name="Agrave" unicode="&#xc0;" horiz-adv-x="1000" 
d="M858 232q0 -86 15.5 -144t39.5 -94t51 -54.5t51 -27t39.5 -10.5t15.5 -5q0 -8 -18.5 -19.5t-44.5 -11.5q-49 0 -96 21t-84 64.5t-60 109t-23 155.5q0 41 4 88t11 96q-57 0 -135 -6q-43 -67 -94.5 -136.5t-110 -134.5t-124 -122t-137 -99.5t-148.5 -67t-158 -24.5
q-99 0 -176.5 28.5t-130.5 80t-80.5 123t-27.5 158.5q0 58 20.5 116t54.5 111.5t79 100t93 81t97 54t91 19.5q46 0 72 -11.5t38.5 -27.5t15 -33t2.5 -28t-8.5 -14t-23 -2.5t-32.5 3t-36 2.5q-38 0 -79 -16.5t-80.5 -45.5t-75.5 -68.5t-62.5 -86.5t-42.5 -98.5t-16 -103.5
q0 -59 21.5 -112t63 -93.5t102.5 -64.5t141 -24q97 0 188.5 44.5t175 118t159.5 168.5t142 196q-8 -1 -16.5 -2t-16.5 -2q-68 -10 -118 -24t-86 -27t-59.5 -22.5t-36.5 -11.5q-14 -2 -24.5 13.5t-12.5 35.5q-1 7 13 15.5t38.5 17t56.5 16.5t65.5 15.5t67 13.5t60.5 10
q24 4 51 6t56 4q66 104 121 203t99 176.5t76 124.5t50 47q13 0 27.5 -3t26.5 -7t20 -9t8 -8q0 -6 -15.5 -50.5t-37 -116.5t-44 -167t-35.5 -201q52 -8 54 -22q2 -11 -5 -15t-13 -5q-2 -1 -12 0.5t-28 3.5q-9 -80 -9 -162zM765 443q9 63 19.5 122.5t20.5 105.5q11 54 23 102
q-19 -45 -45 -97q-22 -45 -53.5 -104t-73.5 -127q28 1 55.5 0.5t53.5 -2.5zM1012 1076q2 -8 -3 -13t-17.5 -9t-39.5 -4q-32 0 -69.5 8.5t-69.5 23t-53.5 34.5t-21.5 43q0 15 6.5 24.5t15.5 15t18 8t13 2.5t8.5 -6.5t14 -17t25 -24.5t42.5 -29q29 -17 53 -25.5t41.5 -13.5
t27 -8t9.5 -9z" />
    <glyph glyph-name="Aacute" unicode="&#xc1;" horiz-adv-x="1000" 
d="M858 232q0 -86 15.5 -144t39.5 -94t51 -54.5t51 -27t39.5 -10.5t15.5 -5q0 -8 -18.5 -19.5t-44.5 -11.5q-49 0 -96 21t-84 64.5t-60 109t-23 155.5q0 41 4 88t11 96q-57 0 -135 -6q-43 -67 -94.5 -136.5t-110 -134.5t-124 -122t-137 -99.5t-148.5 -67t-158 -24.5
q-99 0 -176.5 28.5t-130.5 80t-80.5 123t-27.5 158.5q0 58 20.5 116t54.5 111.5t79 100t93 81t97 54t91 19.5q46 0 72 -11.5t38.5 -27.5t15 -33t2.5 -28t-8.5 -14t-23 -2.5t-32.5 3t-36 2.5q-38 0 -79 -16.5t-80.5 -45.5t-75.5 -68.5t-62.5 -86.5t-42.5 -98.5t-16 -103.5
q0 -59 21.5 -112t63 -93.5t102.5 -64.5t141 -24q97 0 188.5 44.5t175 118t159.5 168.5t142 196q-8 -1 -16.5 -2t-16.5 -2q-68 -10 -118 -24t-86 -27t-59.5 -22.5t-36.5 -11.5q-14 -2 -24.5 13.5t-12.5 35.5q-1 7 13 15.5t38.5 17t56.5 16.5t65.5 15.5t67 13.5t60.5 10
q24 4 51 6t56 4q66 104 121 203t99 176.5t76 124.5t50 47q13 0 27.5 -3t26.5 -7t20 -9t8 -8q0 -6 -15.5 -50.5t-37 -116.5t-44 -167t-35.5 -201q52 -8 54 -22q2 -11 -5 -15t-13 -5q-2 -1 -12 0.5t-28 3.5q-9 -80 -9 -162zM765 443q9 63 19.5 122.5t20.5 105.5q11 54 23 102
q-19 -45 -45 -97q-22 -45 -53.5 -104t-73.5 -127q28 1 55.5 0.5t53.5 -2.5zM834 1086q0 6 9.5 9t27 8t41 13.5t52.5 25.5q27 15 43 29t25.5 24.5t14 17t8.5 6.5t12.5 -2.5t17.5 -8t15.5 -15t6.5 -24.5q0 -23 -21.5 -43t-53.5 -34.5t-69.5 -23t-69.5 -8.5q-27 0 -39 4t-17 9
t-3 13z" />
    <glyph glyph-name="Acircumflex" unicode="&#xc2;" horiz-adv-x="1000" 
d="M858 232q0 -86 15.5 -144t39.5 -94t51 -54.5t51 -27t39.5 -10.5t15.5 -5q0 -8 -18.5 -19.5t-44.5 -11.5q-49 0 -96 21t-84 64.5t-60 109t-23 155.5q0 41 4 88t11 96q-57 0 -135 -6q-43 -67 -94.5 -136.5t-110 -134.5t-124 -122t-137 -99.5t-148.5 -67t-158 -24.5
q-99 0 -176.5 28.5t-130.5 80t-80.5 123t-27.5 158.5q0 58 20.5 116t54.5 111.5t79 100t93 81t97 54t91 19.5q46 0 72 -11.5t38.5 -27.5t15 -33t2.5 -28t-8.5 -14t-23 -2.5t-32.5 3t-36 2.5q-38 0 -79 -16.5t-80.5 -45.5t-75.5 -68.5t-62.5 -86.5t-42.5 -98.5t-16 -103.5
q0 -59 21.5 -112t63 -93.5t102.5 -64.5t141 -24q97 0 188.5 44.5t175 118t159.5 168.5t142 196q-8 -1 -16.5 -2t-16.5 -2q-68 -10 -118 -24t-86 -27t-59.5 -22.5t-36.5 -11.5q-14 -2 -24.5 13.5t-12.5 35.5q-1 7 13 15.5t38.5 17t56.5 16.5t65.5 15.5t67 13.5t60.5 10
q24 4 51 6t56 4q66 104 121 203t99 176.5t76 124.5t50 47q13 0 27.5 -3t26.5 -7t20 -9t8 -8q0 -6 -15.5 -50.5t-37 -116.5t-44 -167t-35.5 -201q52 -8 54 -22q2 -11 -5 -15t-13 -5q-2 -1 -12 0.5t-28 3.5q-9 -80 -9 -162zM765 443q9 63 19.5 122.5t20.5 105.5q11 54 23 102
q-19 -45 -45 -97q-22 -45 -53.5 -104t-73.5 -127q28 1 55.5 0.5t53.5 -2.5zM1093 1136q21 -26 40.5 -42.5t34 -27t22 -17t5.5 -11.5q0 -7 -7 -11q-6 -3 -19 -2.5t-38 10.5q-24 9 -50 24.5t-48.5 34.5t-39.5 40t-23 41q-13 -9 -33.5 -23t-44.5 -30t-48.5 -31.5t-45.5 -28
t-37 -20.5t-22 -8q-7 0 -9.5 4t-2.5 9q0 8 13 20.5t33 27t43 29.5t44 29t42.5 29.5t42 29t38.5 22t32 8.5q15 0 21 -3q4 -2 6 -9t6.5 -20t14.5 -31.5t30 -42.5z" />
    <glyph glyph-name="Atilde" unicode="&#xc3;" horiz-adv-x="1000" 
d="M858 232q0 -86 15.5 -144t39.5 -94t51 -54.5t51 -27t39.5 -10.5t15.5 -5q0 -8 -18.5 -19.5t-44.5 -11.5q-49 0 -96 21t-84 64.5t-60 109t-23 155.5q0 41 4 88t11 96q-57 0 -135 -6q-43 -67 -94.5 -136.5t-110 -134.5t-124 -122t-137 -99.5t-148.5 -67t-158 -24.5
q-99 0 -176.5 28.5t-130.5 80t-80.5 123t-27.5 158.5q0 58 20.5 116t54.5 111.5t79 100t93 81t97 54t91 19.5q46 0 72 -11.5t38.5 -27.5t15 -33t2.5 -28t-8.5 -14t-23 -2.5t-32.5 3t-36 2.5q-38 0 -79 -16.5t-80.5 -45.5t-75.5 -68.5t-62.5 -86.5t-42.5 -98.5t-16 -103.5
q0 -59 21.5 -112t63 -93.5t102.5 -64.5t141 -24q97 0 188.5 44.5t175 118t159.5 168.5t142 196q-8 -1 -16.5 -2t-16.5 -2q-68 -10 -118 -24t-86 -27t-59.5 -22.5t-36.5 -11.5q-14 -2 -24.5 13.5t-12.5 35.5q-1 7 13 15.5t38.5 17t56.5 16.5t65.5 15.5t67 13.5t60.5 10
q24 4 51 6t56 4q66 104 121 203t99 176.5t76 124.5t50 47q13 0 27.5 -3t26.5 -7t20 -9t8 -8q0 -6 -15.5 -50.5t-37 -116.5t-44 -167t-35.5 -201q52 -8 54 -22q2 -11 -5 -15t-13 -5q-2 -1 -12 0.5t-28 3.5q-9 -80 -9 -162zM765 443q9 63 19.5 122.5t20.5 105.5q11 54 23 102
q-19 -45 -45 -97q-22 -45 -53.5 -104t-73.5 -127q28 1 55.5 0.5t53.5 -2.5zM925 1177q25 0 43.5 -11.5t33.5 -25t27.5 -24.5t25.5 -11q20 0 39.5 8.5t35 19t26 19.5t12.5 9q13 0 3.5 -18t-31.5 -40t-50.5 -40t-54.5 -18t-44 11.5t-33 25.5t-28.5 25.5t-30.5 11.5t-33.5 -9
t-31.5 -20t-26.5 -20t-17.5 -9q-15 0 -5.5 18t32 40t52.5 40t56 18z" />
    <glyph glyph-name="Adieresis" unicode="&#xc4;" horiz-adv-x="1000" 
d="M858 232q0 -86 15.5 -144t39.5 -94t51 -54.5t51 -27t39.5 -10.5t15.5 -5q0 -8 -18.5 -19.5t-44.5 -11.5q-49 0 -96 21t-84 64.5t-60 109t-23 155.5q0 41 4 88t11 96q-57 0 -135 -6q-43 -67 -94.5 -136.5t-110 -134.5t-124 -122t-137 -99.5t-148.5 -67t-158 -24.5
q-99 0 -176.5 28.5t-130.5 80t-80.5 123t-27.5 158.5q0 58 20.5 116t54.5 111.5t79 100t93 81t97 54t91 19.5q46 0 72 -11.5t38.5 -27.5t15 -33t2.5 -28t-8.5 -14t-23 -2.5t-32.5 3t-36 2.5q-38 0 -79 -16.5t-80.5 -45.5t-75.5 -68.5t-62.5 -86.5t-42.5 -98.5t-16 -103.5
q0 -59 21.5 -112t63 -93.5t102.5 -64.5t141 -24q97 0 188.5 44.5t175 118t159.5 168.5t142 196q-8 -1 -16.5 -2t-16.5 -2q-68 -10 -118 -24t-86 -27t-59.5 -22.5t-36.5 -11.5q-14 -2 -24.5 13.5t-12.5 35.5q-1 7 13 15.5t38.5 17t56.5 16.5t65.5 15.5t67 13.5t60.5 10
q24 4 51 6t56 4q66 104 121 203t99 176.5t76 124.5t50 47q13 0 27.5 -3t26.5 -7t20 -9t8 -8q0 -6 -15.5 -50.5t-37 -116.5t-44 -167t-35.5 -201q52 -8 54 -22q2 -11 -5 -15t-13 -5q-2 -1 -12 0.5t-28 3.5q-9 -80 -9 -162zM765 443q9 63 19.5 122.5t20.5 105.5q11 54 23 102
q-19 -45 -45 -97q-22 -45 -53.5 -104t-73.5 -127q28 1 55.5 0.5t53.5 -2.5zM890 1068q0 -11 -21 -18t-46 -5.5t-46 13.5t-21 40q0 21 8.5 34.5t20.5 22t24.5 12t21.5 3.5q38 0 48.5 -27.5t10.5 -74.5zM1125 1084q0 -21 -21 -31.5t-46 -10t-46 14t-21 41.5q0 25 8.5 39
t20.5 21.5t24.5 9.5t21.5 2q38 0 48.5 -24.5t10.5 -61.5z" />
    <glyph glyph-name="Aring" unicode="&#xc5;" horiz-adv-x="1000" 
d="M858 232q0 -86 15.5 -144t39.5 -94t51 -54.5t51 -27t39.5 -10.5t15.5 -5q0 -8 -18.5 -19.5t-44.5 -11.5q-49 0 -96 21t-84 64.5t-60 109t-23 155.5q0 41 4 88t11 96q-57 0 -135 -6q-43 -67 -94.5 -136.5t-110 -134.5t-124 -122t-137 -99.5t-148.5 -67t-158 -24.5
q-99 0 -176.5 28.5t-130.5 80t-80.5 123t-27.5 158.5q0 58 20.5 116t54.5 111.5t79 100t93 81t97 54t91 19.5q46 0 72 -11.5t38.5 -27.5t15 -33t2.5 -28t-8.5 -14t-23 -2.5t-32.5 3t-36 2.5q-38 0 -79 -16.5t-80.5 -45.5t-75.5 -68.5t-62.5 -86.5t-42.5 -98.5t-16 -103.5
q0 -59 21.5 -112t63 -93.5t102.5 -64.5t141 -24q97 0 188.5 44.5t175 118t159.5 168.5t142 196q-8 -1 -16.5 -2t-16.5 -2q-68 -10 -118 -24t-86 -27t-59.5 -22.5t-36.5 -11.5q-14 -2 -24.5 13.5t-12.5 35.5q-1 7 13 15.5t38.5 17t56.5 16.5t65.5 15.5t67 13.5t60.5 10
q24 4 51 6t56 4q66 104 121 203t99 176.5t76 124.5t50 47q13 0 27.5 -3t26.5 -7t20 -9t8 -8q0 -6 -15.5 -50.5t-37 -116.5t-44 -167t-35.5 -201q52 -8 54 -22q2 -11 -5 -15t-13 -5q-2 -1 -12 0.5t-28 3.5q-9 -80 -9 -162zM765 443q9 63 19.5 122.5t20.5 105.5q11 54 23 102
q-19 -45 -45 -97q-22 -45 -53.5 -104t-73.5 -127q28 1 55.5 0.5t53.5 -2.5zM957 1052q-22 0 -42 11q-35 21 -41 62q-8 41 14 78q23 38 61 52q40 15 74 -5q34 -19 42 -62q6 -41 -15 -78q-22 -38 -60 -52q-17 -6 -33 -6zM982 1223q-5 0 -10 -1t-10 -3q-25 -9 -40 -35
q-15 -25 -10 -52q3 -23 23 -35q18 -11 41 -3q25 9 40 35q16 27 11 53q-5 24 -23 35q-11 6 -22 6z" />
    <glyph glyph-name="AE" unicode="&#xc6;" horiz-adv-x="1597" 
d="M1514 993q58 0 97 -13.5t62 -34.5t33 -47.5t10 -52.5q0 -27 -13 -50.5t-33 -41t-43.5 -28t-44.5 -10.5t-34.5 6t-22 15t-11.5 19.5t-3 18.5q0 5 18 10t39 15.5t39 30t18 53.5q0 37 -31 52t-91 15q-82 0 -149.5 -26t-115.5 -63t-74.5 -78t-26.5 -72q0 -22 9.5 -44
t28.5 -39t47 -28t65 -11q42 0 68.5 5.5t42.5 12.5t24 12.5t14 5.5q12 0 17 -16.5t5 -39.5q0 -22 -25 -36.5t-65.5 -27t-92.5 -24.5t-106 -30t-106 -43t-92.5 -63.5t-65.5 -91.5t-25 -127q0 -65 18.5 -106.5t46.5 -66t60 -34t59 -9.5q63 0 130 20t122.5 59t91.5 97t36 135
q0 40 -7 70t-15.5 50t-15.5 30.5t-7 12.5q0 5 9 8t15 3q13 0 29 -14t29.5 -38t22.5 -57t9 -71q0 -64 -32 -127t-93 -112.5t-150 -80t-203 -30.5h-19h-12q-54 0 -105.5 25t-89.5 78q-14 20 -25 43q-20 39 -31.5 90t-11.5 114q0 41 4 88t11 96q-57 0 -135 -6
q-43 -67 -94.5 -136.5t-110 -134.5t-124 -122t-137 -99.5t-148.5 -67t-158 -24.5q-99 0 -176.5 28.5t-130.5 80t-80.5 123t-27.5 158.5q0 58 20.5 116t54.5 111.5t79 100t93 81t97 54t91 19.5q46 0 72 -11.5t38.5 -27.5t15 -33t2.5 -28t-8.5 -14t-23 -2.5t-32.5 3t-36 2.5
q-38 0 -79 -16.5t-80.5 -45.5t-75.5 -68.5t-62.5 -86.5t-42.5 -98.5t-16 -103.5q0 -59 21.5 -112t63 -93.5t102.5 -64.5t141 -24q97 0 188.5 44.5t175 118t159.5 168.5t142 196q-8 -1 -16.5 -2t-16.5 -2q-68 -10 -118 -24t-86 -27t-59.5 -22.5t-36.5 -11.5
q-14 -2 -24.5 13.5t-12.5 35.5q-1 8 13 16t38.5 16.5t56.5 16.5t65.5 15.5t67 13.5t60.5 10q24 4 51 6t56 4q66 104 121 203t99 176.5t76 124.5t50 47q13 0 27.5 -3t26.5 -7t20 -9t8 -8q0 -6 -15.5 -50.5t-37 -116.5t-44 -167t-35.5 -201l-4 -38q-1 -8 -2 -17t-2 -17
q51 50 112 83t115 53q62 24 126 37q-51 9 -91 32q-17 10 -33 23.5t-29 32t-20.5 42t-7.5 53.5q0 42 19.5 79t53.5 68t80 55t99.5 41t112 26t117.5 9zM762 442q9 63 19.5 122.5t20.5 105.5q11 54 23 102q-19 -45 -45 -97q-22 -45 -53.5 -104t-73.5 -127q28 1 55.5 0.5
t53.5 -2.5z" />
    <glyph glyph-name="Ccedilla" unicode="&#xc7;" horiz-adv-x="735" 
d="M755 1033q76 0 122 -28t66.5 -74t18 -105t-22.5 -120t-55 -120t-80.5 -105t-98 -74t-107.5 -28q-27 0 -46.5 12t-31.5 30t-17.5 38t-5.5 35q0 41 17 76.5t37 62.5q24 32 55 58q-68 -25 -140 -49q-62 -20 -136 -41t-146 -32q-57 -94 -90.5 -195.5t-33.5 -202.5
q0 -48 11.5 -94t37.5 -82t67.5 -57.5t100.5 -21.5t97.5 15t61 40.5t31.5 58t9 68.5q0 22 -7 34.5t-15.5 19t-15.5 9.5t-7 7q0 8 8 13t21 5q12 0 26 -4.5t25.5 -15t19 -28t7.5 -43.5q0 -39 -18.5 -81.5t-57.5 -78.5t-99 -60t-142 -25l-5.5 -11t-23.5 -41l-2 -4l-2 -4
q6 2 12.5 3t12.5 1q19 0 30 -9.5t13 -20.5q4 -5 6.5 -12t2.5 -15q0 -18 -10 -34.5t-26.5 -29t-38 -20.5t-43.5 -8q-5 0 -14.5 1t-16.5 6q-11 6 -16 14t-6.5 16t-0.5 15t3 10l6 6q6 4 14 1q4 -2 6 -9q2 -4 4.5 -9.5t10.5 -9.5q4 -3 12 -3q16 0 30.5 7t24.5 17.5t16 22t6 19.5
v5q-3 1 -11 1q-7 0 -15.5 -0.5t-15.5 -4.5q-4 -2 -6 -2.5t-5 -0.5q-8 0 -13.5 7t-6.5 16v1v1v2l1 1q2 10 10.5 26.5t15.5 28.5q4 7 6.5 11.5t4.5 9.5q-52 3 -92 22t-69.5 47t-49 63t-32 71.5t-17.5 70.5t-5 61q0 94 32 188.5t87 184.5q-84 4 -141.5 26t-92.5 54.5t-50 71
t-15 74.5q0 38 10 64.5t23.5 43t27 24t20.5 7.5q5 0 2.5 -20t-1.5 -50.5t11 -66.5t39 -67.5t82.5 -53.5t141.5 -24q63 83 141.5 154.5t164 124t174.5 82.5t173 30zM607 415q28 0 60.5 24t63.5 63.5t58.5 90t47 103.5t28 103.5t1.5 90t-32 63.5t-73 24q-65 0 -134 -24
t-136 -66.5t-130 -101t-116 -128.5q55 13 111 32t115 37t121.5 30.5t131.5 12.5q29 0 45 -8.5t16 -19.5q0 -6 -16.5 -17t-42 -26.5t-54.5 -36.5t-54.5 -46.5t-42 -55.5t-16.5 -65q0 -22 5.5 -37t13 -24.5t15.5 -13.5t14 -4z" />
    <glyph glyph-name="Egrave" unicode="&#xc8;" horiz-adv-x="750" 
d="M190 -112q66 0 136 21t128.5 62t96 102t37.5 141q0 42 -7.5 73t-16 52t-16 32t-7.5 14q0 5 9.5 8.5t15.5 3.5q14 0 30.5 -15t31 -40.5t24 -60t9.5 -73.5q0 -68 -33.5 -133.5t-98 -118t-157.5 -84.5t-213 -32q-71 0 -125.5 23t-91 61.5t-55 87t-18.5 99.5q0 64 20.5 116.5
t54 95t76 75t87.5 56.5q105 56 239 86q-54 9 -95 34q-18 10 -35 24.5t-30.5 34t-21.5 44.5t-8 56q0 66 44.5 119.5t116.5 91.5t162.5 59t182.5 21q61 0 102 -14t65.5 -36.5t34.5 -50t10 -55.5t-13.5 -52.5t-34.5 -43t-46 -29t-47 -10.5t-36 6.5t-22.5 15.5t-12 19.5
t-3.5 19.5q0 5 18.5 10.5t41 16.5t41.5 31.5t19 56.5q0 39 -33 54t-96 15q-86 0 -156.5 -27t-121 -66t-78.5 -82t-28 -75q0 -23 10 -46t30 -41t49.5 -29.5t68.5 -11.5q44 0 71.5 6t44.5 13t25.5 13t14.5 6q13 0 18 -18t5 -41t-26 -38.5t-68.5 -28t-97 -26t-111.5 -32
t-111.5 -45t-97 -66.5t-68.5 -96t-26 -133q0 -68 19.5 -111.5t48.5 -69t62.5 -35.5t62.5 -10zM707 1115q2 -8 -3 -13t-17.5 -9t-39.5 -4q-32 0 -69.5 8.5t-69.5 23t-53.5 34.5t-21.5 43q0 15 6.5 24.5t15.5 15t18 8t13 2.5t8.5 -6.5t14 -17t25 -24.5t42.5 -29
q29 -17 53 -25.5t41.5 -13.5t27 -8t9.5 -9z" />
    <glyph glyph-name="Eacute" unicode="&#xc9;" horiz-adv-x="750" 
d="M190 -112q66 0 136 21t128.5 62t96 102t37.5 141q0 42 -7.5 73t-16 52t-16 32t-7.5 14q0 5 9.5 8.5t15.5 3.5q14 0 30.5 -15t31 -40.5t24 -60t9.5 -73.5q0 -68 -33.5 -133.5t-98 -118t-157.5 -84.5t-213 -32q-71 0 -125.5 23t-91 61.5t-55 87t-18.5 99.5q0 64 20.5 116.5
t54 95t76 75t87.5 56.5q105 56 239 86q-54 9 -95 34q-18 10 -35 24.5t-30.5 34t-21.5 44.5t-8 56q0 66 44.5 119.5t116.5 91.5t162.5 59t182.5 21q61 0 102 -14t65.5 -36.5t34.5 -50t10 -55.5t-13.5 -52.5t-34.5 -43t-46 -29t-47 -10.5t-36 6.5t-22.5 15.5t-12 19.5
t-3.5 19.5q0 5 18.5 10.5t41 16.5t41.5 31.5t19 56.5q0 39 -33 54t-96 15q-86 0 -156.5 -27t-121 -66t-78.5 -82t-28 -75q0 -23 10 -46t30 -41t49.5 -29.5t68.5 -11.5q44 0 71.5 6t44.5 13t25.5 13t14.5 6q13 0 18 -18t5 -41t-26 -38.5t-68.5 -28t-97 -26t-111.5 -32
t-111.5 -45t-97 -66.5t-68.5 -96t-26 -133q0 -68 19.5 -111.5t48.5 -69t62.5 -35.5t62.5 -10zM470 1105q0 6 9.5 9t27 8t41 13.5t52.5 25.5q27 15 43 29t25.5 24.5t14 17t8.5 6.5t12.5 -2.5t17.5 -8t15.5 -15t6.5 -24.5q0 -23 -21.5 -43t-53.5 -34.5t-69.5 -23t-69.5 -8.5
q-27 0 -39 4t-17 9t-3 13z" />
    <glyph glyph-name="Ecircumflex" unicode="&#xca;" horiz-adv-x="750" 
d="M190 -112q66 0 136 21t128.5 62t96 102t37.5 141q0 42 -7.5 73t-16 52t-16 32t-7.5 14q0 5 9.5 8.5t15.5 3.5q14 0 30.5 -15t31 -40.5t24 -60t9.5 -73.5q0 -68 -33.5 -133.5t-98 -118t-157.5 -84.5t-213 -32q-71 0 -125.5 23t-91 61.5t-55 87t-18.5 99.5q0 64 20.5 116.5
t54 95t76 75t87.5 56.5q105 56 239 86q-54 9 -95 34q-18 10 -35 24.5t-30.5 34t-21.5 44.5t-8 56q0 66 44.5 119.5t116.5 91.5t162.5 59t182.5 21q61 0 102 -14t65.5 -36.5t34.5 -50t10 -55.5t-13.5 -52.5t-34.5 -43t-46 -29t-47 -10.5t-36 6.5t-22.5 15.5t-12 19.5
t-3.5 19.5q0 5 18.5 10.5t41 16.5t41.5 31.5t19 56.5q0 39 -33 54t-96 15q-86 0 -156.5 -27t-121 -66t-78.5 -82t-28 -75q0 -23 10 -46t30 -41t49.5 -29.5t68.5 -11.5q44 0 71.5 6t44.5 13t25.5 13t14.5 6q13 0 18 -18t5 -41t-26 -38.5t-68.5 -28t-97 -26t-111.5 -32
t-111.5 -45t-97 -66.5t-68.5 -96t-26 -133q0 -68 19.5 -111.5t48.5 -69t62.5 -35.5t62.5 -10zM734 1186q21 -26 40.5 -42.5t34 -27t22 -17t5.5 -11.5q0 -7 -7 -11q-6 -3 -19 -2.5t-38 10.5q-24 9 -50 24.5t-48.5 34.5t-39.5 40t-23 41q-13 -9 -33.5 -23t-44.5 -30
t-48.5 -31.5t-45.5 -28t-37 -20.5t-22 -8q-7 0 -9.5 4t-2.5 9q0 8 13 20.5t33 27t43 29.5t44 29t42.5 29.5t42 29t38.5 22t32 8.5q15 0 21 -3q4 -2 6 -9t6.5 -20t14.5 -31.5t30 -42.5z" />
    <glyph glyph-name="Edieresis" unicode="&#xcb;" horiz-adv-x="750" 
d="M190 -112q66 0 136 21t128.5 62t96 102t37.5 141q0 42 -7.5 73t-16 52t-16 32t-7.5 14q0 5 9.5 8.5t15.5 3.5q14 0 30.5 -15t31 -40.5t24 -60t9.5 -73.5q0 -68 -33.5 -133.5t-98 -118t-157.5 -84.5t-213 -32q-71 0 -125.5 23t-91 61.5t-55 87t-18.5 99.5q0 64 20.5 116.5
t54 95t76 75t87.5 56.5q105 56 239 86q-54 9 -95 34q-18 10 -35 24.5t-30.5 34t-21.5 44.5t-8 56q0 66 44.5 119.5t116.5 91.5t162.5 59t182.5 21q61 0 102 -14t65.5 -36.5t34.5 -50t10 -55.5t-13.5 -52.5t-34.5 -43t-46 -29t-47 -10.5t-36 6.5t-22.5 15.5t-12 19.5
t-3.5 19.5q0 5 18.5 10.5t41 16.5t41.5 31.5t19 56.5q0 39 -33 54t-96 15q-86 0 -156.5 -27t-121 -66t-78.5 -82t-28 -75q0 -23 10 -46t30 -41t49.5 -29.5t68.5 -11.5q44 0 71.5 6t44.5 13t25.5 13t14.5 6q13 0 18 -18t5 -41t-26 -38.5t-68.5 -28t-97 -26t-111.5 -32
t-111.5 -45t-97 -66.5t-68.5 -96t-26 -133q0 -68 19.5 -111.5t48.5 -69t62.5 -35.5t62.5 -10zM573 1091q0 -11 -21 -18t-46 -5.5t-46 13.5t-21 40q0 21 8.5 34.5t20.5 22t24.5 12t21.5 3.5q38 0 48.5 -27.5t10.5 -74.5zM808 1107q0 -21 -21 -31.5t-46 -10t-46 14t-21 41.5
q0 25 8.5 39t20.5 21.5t24.5 9.5t21.5 2q38 0 48.5 -24.5t10.5 -61.5z" />
    <glyph glyph-name="Igrave" unicode="&#xcc;" horiz-adv-x="453" 
d="M-642 500q0 21 31 68.5t92 107t150.5 123t206.5 115.5t260.5 86t311.5 34q48 0 93 -7.5t80 -24t56.5 -42.5t21.5 -64q0 -29 -24 -77t-63 -109t-88.5 -132t-102 -145.5t-102 -148.5t-88.5 -142t-63 -126t-24 -99q0 -10 -0.5 -22t-2.5 -22t-8 -16.5t-16 -6.5q-16 0 -31 11
t-26.5 29t-18.5 41.5t-7 49.5q0 45 23.5 101t62.5 118t88.5 128t101.5 131.5t101.5 129t88.5 119t62.5 102t23.5 79.5q0 14 -2.5 30t-14 29.5t-35.5 22.5t-66 9q-138 0 -263.5 -33t-234 -85t-197 -115.5t-151 -124.5t-96.5 -112.5t-34 -78.5q0 -14 -15 -15.5t-33 8.5
t-33 29.5t-15 46.5zM501 1132q2 -8 -3 -13t-17.5 -9t-39.5 -4q-32 0 -69.5 8.5t-69.5 23t-53.5 34.5t-21.5 43q0 15 6.5 24.5t15.5 15t18 8t13 2.5t8.5 -6.5t14 -17t25 -24.5t42.5 -29q29 -17 53 -25.5t41.5 -13.5t27 -8t9.5 -9z" />
    <glyph glyph-name="Iacute" unicode="&#xcd;" horiz-adv-x="453" 
d="M-642 500q0 21 31 68.5t92 107t150.5 123t206.5 115.5t260.5 86t311.5 34q48 0 93 -7.5t80 -24t56.5 -42.5t21.5 -64q0 -29 -24 -77t-63 -109t-88.5 -132t-102 -145.5t-102 -148.5t-88.5 -142t-63 -126t-24 -99q0 -10 -0.5 -22t-2.5 -22t-8 -16.5t-16 -6.5q-16 0 -31 11
t-26.5 29t-18.5 41.5t-7 49.5q0 45 23.5 101t62.5 118t88.5 128t101.5 131.5t101.5 129t88.5 119t62.5 102t23.5 79.5q0 14 -2.5 30t-14 29.5t-35.5 22.5t-66 9q-138 0 -263.5 -33t-234 -85t-197 -115.5t-151 -124.5t-96.5 -112.5t-34 -78.5q0 -14 -15 -15.5t-33 8.5
t-33 29.5t-15 46.5zM311 1121q0 6 9.5 9t27 8t41 13.5t52.5 25.5q27 15 43 29t25.5 24.5t14 17t8.5 6.5t12.5 -2.5t17.5 -8t15.5 -15t6.5 -24.5q0 -23 -21.5 -43t-53.5 -34.5t-69.5 -23t-69.5 -8.5q-27 0 -39 4t-17 9t-3 13z" />
    <glyph glyph-name="Icircumflex" unicode="&#xce;" horiz-adv-x="453" 
d="M-642 500q0 21 31 68.5t92 107t150.5 123t206.5 115.5t260.5 86t311.5 34q48 0 93 -7.5t80 -24t56.5 -42.5t21.5 -64q0 -29 -24 -77t-63 -109t-88.5 -132t-102 -145.5t-102 -148.5t-88.5 -142t-63 -126t-24 -99q0 -10 -0.5 -22t-2.5 -22t-8 -16.5t-16 -6.5q-16 0 -31 11
t-26.5 29t-18.5 41.5t-7 49.5q0 45 23.5 101t62.5 118t88.5 128t101.5 131.5t101.5 129t88.5 119t62.5 102t23.5 79.5q0 14 -2.5 30t-14 29.5t-35.5 22.5t-66 9q-138 0 -263.5 -33t-234 -85t-197 -115.5t-151 -124.5t-96.5 -112.5t-34 -78.5q0 -14 -15 -15.5t-33 8.5
t-33 29.5t-15 46.5zM507 1188q21 -26 40.5 -42.5t34 -27t22 -17t5.5 -11.5q0 -7 -7 -11q-6 -3 -19 -2.5t-38 10.5q-24 9 -50 24.5t-48.5 34.5t-39.5 40t-23 41q-13 -9 -33.5 -23t-44.5 -30t-48.5 -31.5t-45.5 -28t-37 -20.5t-22 -8q-7 0 -9.5 4t-2.5 9q0 8 13 20.5t33 27
t43 29.5t44 29t42.5 29.5t42 29t38.5 22t32 8.5q15 0 21 -3q4 -2 6 -9t6.5 -20t14.5 -31.5t30 -42.5z" />
    <glyph glyph-name="Idieresis" unicode="&#xcf;" horiz-adv-x="453" 
d="M-642 500q0 21 31 68.5t92 107t150.5 123t206.5 115.5t260.5 86t311.5 34q48 0 93 -7.5t80 -24t56.5 -42.5t21.5 -64q0 -29 -24 -77t-63 -109t-88.5 -132t-102 -145.5t-102 -148.5t-88.5 -142t-63 -126t-24 -99q0 -10 -0.5 -22t-2.5 -22t-8 -16.5t-16 -6.5q-16 0 -31 11
t-26.5 29t-18.5 41.5t-7 49.5q0 45 23.5 101t62.5 118t88.5 128t101.5 131.5t101.5 129t88.5 119t62.5 102t23.5 79.5q0 14 -2.5 30t-14 29.5t-35.5 22.5t-66 9q-138 0 -263.5 -33t-234 -85t-197 -115.5t-151 -124.5t-96.5 -112.5t-34 -78.5q0 -14 -15 -15.5t-33 8.5
t-33 29.5t-15 46.5zM344 1123q0 -11 -21 -18t-46 -5.5t-46 13.5t-21 40q0 21 8.5 34.5t20.5 22t24.5 12t21.5 3.5q38 0 48.5 -27.5t10.5 -74.5zM579 1139q0 -21 -21 -31.5t-46 -10t-46 14t-21 41.5q0 25 8.5 39t20.5 21.5t24.5 9.5t21.5 2q38 0 48.5 -24.5t10.5 -61.5z" />
    <glyph glyph-name="Ntilde" unicode="&#xd1;" horiz-adv-x="1163" 
d="M687 -154q-18 0 -31 12.5t-13 55.5q0 10 5.5 47.5t14 90.5t19.5 117.5t23 130.5q27 154 62 343q-104 -224 -241 -399q-59 -75 -130.5 -146.5t-155.5 -127.5t-179.5 -90t-202.5 -34q-100 0 -178 28.5t-132 80t-82.5 123t-28.5 158.5q0 58 20.5 116t54.5 111.5t79 100
t93 81t97 54t91 19.5q46 0 72 -11.5t38.5 -27.5t15 -33t2.5 -28t-8.5 -14t-23 -2.5t-32.5 3t-36 2.5q-38 0 -79 -16.5t-80.5 -45.5t-75.5 -68.5t-62.5 -86.5t-42.5 -98.5t-16 -103.5q0 -59 22 -112t64.5 -93.5t105 -64.5t142.5 -24q102 0 195 41.5t175.5 109.5t155 155
t134.5 177.5t113.5 177.5t92.5 155t70.5 109.5t48.5 41.5q13 0 27 -2.5t25.5 -6t19 -8t7.5 -7.5q0 -2 -9 -38.5t-24 -96t-34 -136t-39 -156.5t-39 -158t-34 -141t-24 -106t-9 -52q7 0 35 34.5t70 92.5t92.5 134.5t102.5 160.5t101 171t87 166t61 144.5t23 106.5q0 10 0.5 22
t3 22t8 16.5t15.5 6.5q16 0 31 -11t26.5 -29t18.5 -41.5t7 -49.5q0 -45 -29 -114t-77 -151.5t-109.5 -173t-127 -178t-129.5 -166.5t-117 -139t-89.5 -95.5t-46.5 -35.5zM1021 1087q25 0 43.5 -11.5t33.5 -25t27.5 -24.5t25.5 -11q20 0 39.5 8.5t35 19t26 19.5t12.5 9
q13 0 3.5 -18t-31.5 -40t-50.5 -40t-54.5 -18t-44 11.5t-33 25.5t-28.5 25.5t-30.5 11.5t-33.5 -9t-31.5 -20t-26.5 -20t-17.5 -9q-15 0 -5.5 18t32 40t52.5 40t56 18z" />
    <glyph glyph-name="Ograve" unicode="&#xd2;" horiz-adv-x="948" 
d="M715 1034q62 0 110.5 -24t81.5 -65t50.5 -96t17.5 -117q0 -116 -26.5 -226t-73 -208t-109 -180.5t-134 -142t-148.5 -92.5t-152 -33q-73 0 -116.5 27.5t-66 69.5t-29 91.5t-6.5 92.5v20t2 20q-24 15 -45.5 38.5t-37 56.5t-24.5 77t-9 101q0 71 26 142.5t73 137
t112.5 122.5t145 98.5t170.5 65.5t188 24zM339 -113q58 0 119.5 42t120 111t110 158.5t90.5 185t61.5 189.5t22.5 172q0 72 -18 117t-44 70t-55 34t-51 9q-84 0 -159.5 -25t-139.5 -67.5t-115.5 -98t-88 -117t-56 -124t-19.5 -118.5q0 -43 6.5 -75.5t17.5 -57.5
q19 62 50 126t68 123.5t79 111.5t84.5 90.5t83.5 61t76 22.5q21 0 36 -4.5t22.5 -10.5t6.5 -10.5t-12 -4.5q-6 0 -33.5 -23t-66.5 -64t-86 -96.5t-92.5 -120.5t-84.5 -136.5t-63 -143.5q22 -14 44 -20.5t39.5 -9.5t28.5 -4t11 -3q0 -17 -18.5 -31t-44.5 -14q-18 0 -38.5 2
t-40.5 7q-4 -21 -6 -42t-2 -42q0 -52 18 -85t43 -51.5t51.5 -25.5t44.5 -7zM796 1125q2 -8 -3 -13t-17.5 -9t-39.5 -4q-32 0 -69.5 8.5t-69.5 23t-53.5 34.5t-21.5 43q0 15 6.5 24.5t15.5 15t18 8t13 2.5t8.5 -6.5t14 -17t25 -24.5t42.5 -29q29 -17 53 -25.5t41.5 -13.5
t27 -8t9.5 -9z" />
    <glyph glyph-name="Oacute" unicode="&#xd3;" horiz-adv-x="948" 
d="M715 1034q62 0 110.5 -24t81.5 -65t50.5 -96t17.5 -117q0 -116 -26.5 -226t-73 -208t-109 -180.5t-134 -142t-148.5 -92.5t-152 -33q-73 0 -116.5 27.5t-66 69.5t-29 91.5t-6.5 92.5v20t2 20q-24 15 -45.5 38.5t-37 56.5t-24.5 77t-9 101q0 71 26 142.5t73 137
t112.5 122.5t145 98.5t170.5 65.5t188 24zM339 -113q58 0 119.5 42t120 111t110 158.5t90.5 185t61.5 189.5t22.5 172q0 72 -18 117t-44 70t-55 34t-51 9q-84 0 -159.5 -25t-139.5 -67.5t-115.5 -98t-88 -117t-56 -124t-19.5 -118.5q0 -43 6.5 -75.5t17.5 -57.5
q19 62 50 126t68 123.5t79 111.5t84.5 90.5t83.5 61t76 22.5q21 0 36 -4.5t22.5 -10.5t6.5 -10.5t-12 -4.5q-6 0 -33.5 -23t-66.5 -64t-86 -96.5t-92.5 -120.5t-84.5 -136.5t-63 -143.5q22 -14 44 -20.5t39.5 -9.5t28.5 -4t11 -3q0 -17 -18.5 -31t-44.5 -14q-18 0 -38.5 2
t-40.5 7q-4 -21 -6 -42t-2 -42q0 -52 18 -85t43 -51.5t51.5 -25.5t44.5 -7zM584 1113q0 6 9.5 9t27 8t41 13.5t52.5 25.5q27 15 43 29t25.5 24.5t14 17t8.5 6.5t12.5 -2.5t17.5 -8t15.5 -15t6.5 -24.5q0 -23 -21.5 -43t-53.5 -34.5t-69.5 -23t-69.5 -8.5q-27 0 -39 4t-17 9
t-3 13z" />
    <glyph glyph-name="Ocircumflex" unicode="&#xd4;" horiz-adv-x="948" 
d="M715 1034q62 0 110.5 -24t81.5 -65t50.5 -96t17.5 -117q0 -116 -26.5 -226t-73 -208t-109 -180.5t-134 -142t-148.5 -92.5t-152 -33q-73 0 -116.5 27.5t-66 69.5t-29 91.5t-6.5 92.5v20t2 20q-24 15 -45.5 38.5t-37 56.5t-24.5 77t-9 101q0 71 26 142.5t73 137
t112.5 122.5t145 98.5t170.5 65.5t188 24zM339 -113q58 0 119.5 42t120 111t110 158.5t90.5 185t61.5 189.5t22.5 172q0 72 -18 117t-44 70t-55 34t-51 9q-84 0 -159.5 -25t-139.5 -67.5t-115.5 -98t-88 -117t-56 -124t-19.5 -118.5q0 -43 6.5 -75.5t17.5 -57.5
q19 62 50 126t68 123.5t79 111.5t84.5 90.5t83.5 61t76 22.5q21 0 36 -4.5t22.5 -10.5t6.5 -10.5t-12 -4.5q-6 0 -33.5 -23t-66.5 -64t-86 -96.5t-92.5 -120.5t-84.5 -136.5t-63 -143.5q22 -14 44 -20.5t39.5 -9.5t28.5 -4t11 -3q0 -17 -18.5 -31t-44.5 -14q-18 0 -38.5 2
t-40.5 7q-4 -21 -6 -42t-2 -42q0 -52 18 -85t43 -51.5t51.5 -25.5t44.5 -7zM828 1191q21 -26 40.5 -42.5t34 -27t22 -17t5.5 -11.5q0 -7 -7 -11q-6 -3 -19 -2.5t-38 10.5q-24 9 -50 24.5t-48.5 34.5t-39.5 40t-23 41q-13 -9 -33.5 -23t-44.5 -30t-48.5 -31.5t-45.5 -28
t-37 -20.5t-22 -8q-7 0 -9.5 4t-2.5 9q0 8 13 20.5t33 27t43 29.5t44 29t42.5 29.5t42 29t38.5 22t32 8.5q15 0 21 -3q4 -2 6 -9t6.5 -20t14.5 -31.5t30 -42.5z" />
    <glyph glyph-name="Otilde" unicode="&#xd5;" horiz-adv-x="948" 
d="M715 1034q62 0 110.5 -24t81.5 -65t50.5 -96t17.5 -117q0 -116 -26.5 -226t-73 -208t-109 -180.5t-134 -142t-148.5 -92.5t-152 -33q-73 0 -116.5 27.5t-66 69.5t-29 91.5t-6.5 92.5v20t2 20q-24 15 -45.5 38.5t-37 56.5t-24.5 77t-9 101q0 71 26 142.5t73 137
t112.5 122.5t145 98.5t170.5 65.5t188 24zM339 -113q58 0 119.5 42t120 111t110 158.5t90.5 185t61.5 189.5t22.5 172q0 72 -18 117t-44 70t-55 34t-51 9q-84 0 -159.5 -25t-139.5 -67.5t-115.5 -98t-88 -117t-56 -124t-19.5 -118.5q0 -43 6.5 -75.5t17.5 -57.5
q19 62 50 126t68 123.5t79 111.5t84.5 90.5t83.5 61t76 22.5q21 0 36 -4.5t22.5 -10.5t6.5 -10.5t-12 -4.5q-6 0 -33.5 -23t-66.5 -64t-86 -96.5t-92.5 -120.5t-84.5 -136.5t-63 -143.5q22 -14 44 -20.5t39.5 -9.5t28.5 -4t11 -3q0 -17 -18.5 -31t-44.5 -14q-18 0 -38.5 2
t-40.5 7q-4 -21 -6 -42t-2 -42q0 -52 18 -85t43 -51.5t51.5 -25.5t44.5 -7zM674 1231q25 0 43.5 -11.5t33.5 -25t27.5 -24.5t25.5 -11q20 0 39.5 8.5t35 19t26 19.5t12.5 9q13 0 3.5 -18t-31.5 -40t-50.5 -40t-54.5 -18t-44 11.5t-33 25.5t-28.5 25.5t-30.5 11.5t-33.5 -9
t-31.5 -20t-26.5 -20t-17.5 -9q-15 0 -5.5 18t32 40t52.5 40t56 18z" />
    <glyph glyph-name="Odieresis" unicode="&#xd6;" horiz-adv-x="948" 
d="M715 1034q62 0 110.5 -24t81.5 -65t50.5 -96t17.5 -117q0 -116 -26.5 -226t-73 -208t-109 -180.5t-134 -142t-148.5 -92.5t-152 -33q-73 0 -116.5 27.5t-66 69.5t-29 91.5t-6.5 92.5v20t2 20q-24 15 -45.5 38.5t-37 56.5t-24.5 77t-9 101q0 71 26 142.5t73 137
t112.5 122.5t145 98.5t170.5 65.5t188 24zM339 -113q58 0 119.5 42t120 111t110 158.5t90.5 185t61.5 189.5t22.5 172q0 72 -18 117t-44 70t-55 34t-51 9q-84 0 -159.5 -25t-139.5 -67.5t-115.5 -98t-88 -117t-56 -124t-19.5 -118.5q0 -43 6.5 -75.5t17.5 -57.5
q19 62 50 126t68 123.5t79 111.5t84.5 90.5t83.5 61t76 22.5q21 0 36 -4.5t22.5 -10.5t6.5 -10.5t-12 -4.5q-6 0 -33.5 -23t-66.5 -64t-86 -96.5t-92.5 -120.5t-84.5 -136.5t-63 -143.5q22 -14 44 -20.5t39.5 -9.5t28.5 -4t11 -3q0 -17 -18.5 -31t-44.5 -14q-18 0 -38.5 2
t-40.5 7q-4 -21 -6 -42t-2 -42q0 -52 18 -85t43 -51.5t51.5 -25.5t44.5 -7zM678 1113q0 -11 -21 -18t-46 -5.5t-46 13.5t-21 40q0 21 8.5 34.5t20.5 22t24.5 12t21.5 3.5q38 0 48.5 -27.5t10.5 -74.5zM913 1129q0 -21 -21 -31.5t-46 -10t-46 14t-21 41.5q0 25 8.5 39
t20.5 21.5t24.5 9.5t21.5 2q38 0 48.5 -24.5t10.5 -61.5z" />
    <glyph glyph-name="Ugrave" unicode="&#xd9;" 
d="M319 757q0 35 -7 77.5t-26.5 79.5t-55 62t-92.5 25q-53 0 -98 -20.5t-78 -54t-52 -75.5t-19 -85t10 -66.5t21.5 -36t21.5 -18t10 -11.5t-10 -12.5t-27 -6.5q-9 0 -26 6t-34 21.5t-29.5 41.5t-12.5 67q0 40 22.5 89.5t65 92.5t102.5 72t135 29q68 0 116.5 -17.5
t81.5 -44.5t52.5 -59.5t30 -63.5t13.5 -55.5t3 -35.5q0 -76 -30.5 -154.5t-76.5 -155t-100 -148.5t-100 -136.5t-76.5 -118.5t-30.5 -94q0 -21 10 -30.5t23 -9.5q35 0 80.5 22.5t95.5 60t102 84.5t101 97q115 116 238 265q48 80 94 156.5t82 149.5t58 141.5t22 132.5
q0 13 14 13.5t30.5 -15t30.5 -47t14 -80.5q0 -41 -20 -94t-53 -115t-75.5 -131.5t-86.5 -143.5t-86.5 -151t-75.5 -154t-53 -152t-20 -146q0 -29 -12 -30t-26.5 20t-26.5 62.5t-12 97.5q0 45 10 89t27 86.5t38 84t44 82.5q-26 -32 -63.5 -78t-83 -95.5t-96 -98.5t-104 -87.5
t-107 -62.5t-103.5 -24q-67 0 -97.5 31.5t-30.5 87.5q0 42 30.5 100.5t76.5 126.5t100 142.5t100 148t76.5 142.5t30.5 128zM774 1070q2 -8 -3 -13t-17.5 -9t-39.5 -4q-32 0 -69.5 8.5t-69.5 23t-53.5 34.5t-21.5 43q0 15 6.5 24.5t15.5 15t18 8t13 2.5t8.5 -6.5t14 -17
t25 -24.5t42.5 -29q29 -17 53 -25.5t41.5 -13.5t27 -8t9.5 -9z" />
    <glyph glyph-name="Uacute" unicode="&#xda;" 
d="M319 757q0 35 -7 77.5t-26.5 79.5t-55 62t-92.5 25q-53 0 -98 -20.5t-78 -54t-52 -75.5t-19 -85t10 -66.5t21.5 -36t21.5 -18t10 -11.5t-10 -12.5t-27 -6.5q-9 0 -26 6t-34 21.5t-29.5 41.5t-12.5 67q0 40 22.5 89.5t65 92.5t102.5 72t135 29q68 0 116.5 -17.5
t81.5 -44.5t52.5 -59.5t30 -63.5t13.5 -55.5t3 -35.5q0 -76 -30.5 -154.5t-76.5 -155t-100 -148.5t-100 -136.5t-76.5 -118.5t-30.5 -94q0 -21 10 -30.5t23 -9.5q35 0 80.5 22.5t95.5 60t102 84.5t101 97q115 116 238 265q48 80 94 156.5t82 149.5t58 141.5t22 132.5
q0 13 14 13.5t30.5 -15t30.5 -47t14 -80.5q0 -41 -20 -94t-53 -115t-75.5 -131.5t-86.5 -143.5t-86.5 -151t-75.5 -154t-53 -152t-20 -146q0 -29 -12 -30t-26.5 20t-26.5 62.5t-12 97.5q0 45 10 89t27 86.5t38 84t44 82.5q-26 -32 -63.5 -78t-83 -95.5t-96 -98.5t-104 -87.5
t-107 -62.5t-103.5 -24q-67 0 -97.5 31.5t-30.5 87.5q0 42 30.5 100.5t76.5 126.5t100 142.5t100 148t76.5 142.5t30.5 128zM533 990q0 6 9.5 9t27 8t41 13.5t52.5 25.5q27 15 43 29t25.5 24.5t14 17t8.5 6.5t12.5 -2.5t17.5 -8t15.5 -15t6.5 -24.5q0 -23 -21.5 -43
t-53.5 -34.5t-69.5 -23t-69.5 -8.5q-27 0 -39 4t-17 9t-3 13z" />
    <glyph glyph-name="Ucircumflex" unicode="&#xdb;" 
d="M319 757q0 35 -7 77.5t-26.5 79.5t-55 62t-92.5 25q-53 0 -98 -20.5t-78 -54t-52 -75.5t-19 -85t10 -66.5t21.5 -36t21.5 -18t10 -11.5t-10 -12.5t-27 -6.5q-9 0 -26 6t-34 21.5t-29.5 41.5t-12.5 67q0 40 22.5 89.5t65 92.5t102.5 72t135 29q68 0 116.5 -17.5
t81.5 -44.5t52.5 -59.5t30 -63.5t13.5 -55.5t3 -35.5q0 -76 -30.5 -154.5t-76.5 -155t-100 -148.5t-100 -136.5t-76.5 -118.5t-30.5 -94q0 -21 10 -30.5t23 -9.5q35 0 80.5 22.5t95.5 60t102 84.5t101 97q115 116 238 265q48 80 94 156.5t82 149.5t58 141.5t22 132.5
q0 13 14 13.5t30.5 -15t30.5 -47t14 -80.5q0 -41 -20 -94t-53 -115t-75.5 -131.5t-86.5 -143.5t-86.5 -151t-75.5 -154t-53 -152t-20 -146q0 -29 -12 -30t-26.5 20t-26.5 62.5t-12 97.5q0 45 10 89t27 86.5t38 84t44 82.5q-26 -32 -63.5 -78t-83 -95.5t-96 -98.5t-104 -87.5
t-107 -62.5t-103.5 -24q-67 0 -97.5 31.5t-30.5 87.5q0 42 30.5 100.5t76.5 126.5t100 142.5t100 148t76.5 142.5t30.5 128zM769 1088q21 -26 40.5 -42.5t34 -27t22 -17t5.5 -11.5q0 -7 -7 -11q-6 -3 -19 -2.5t-38 10.5q-24 9 -50 24.5t-48.5 34.5t-39.5 40t-23 41
q-13 -9 -33.5 -23t-44.5 -30t-48.5 -31.5t-45.5 -28t-37 -20.5t-22 -8q-7 0 -9.5 4t-2.5 9q0 8 13 20.5t33 27t43 29.5t44 29t42.5 29.5t42 29t38.5 22t32 8.5q15 0 21 -3q4 -2 6 -9t6.5 -20t14.5 -31.5t30 -42.5z" />
    <glyph glyph-name="Udieresis" unicode="&#xdc;" 
d="M319 757q0 35 -7 77.5t-26.5 79.5t-55 62t-92.5 25q-53 0 -98 -20.5t-78 -54t-52 -75.5t-19 -85t10 -66.5t21.5 -36t21.5 -18t10 -11.5t-10 -12.5t-27 -6.5q-9 0 -26 6t-34 21.5t-29.5 41.5t-12.5 67q0 40 22.5 89.5t65 92.5t102.5 72t135 29q68 0 116.5 -17.5
t81.5 -44.5t52.5 -59.5t30 -63.5t13.5 -55.5t3 -35.5q0 -76 -30.5 -154.5t-76.5 -155t-100 -148.5t-100 -136.5t-76.5 -118.5t-30.5 -94q0 -21 10 -30.5t23 -9.5q35 0 80.5 22.5t95.5 60t102 84.5t101 97q115 116 238 265q48 80 94 156.5t82 149.5t58 141.5t22 132.5
q0 13 14 13.5t30.5 -15t30.5 -47t14 -80.5q0 -41 -20 -94t-53 -115t-75.5 -131.5t-86.5 -143.5t-86.5 -151t-75.5 -154t-53 -152t-20 -146q0 -29 -12 -30t-26.5 20t-26.5 62.5t-12 97.5q0 45 10 89t27 86.5t38 84t44 82.5q-26 -32 -63.5 -78t-83 -95.5t-96 -98.5t-104 -87.5
t-107 -62.5t-103.5 -24q-67 0 -97.5 31.5t-30.5 87.5q0 42 30.5 100.5t76.5 126.5t100 142.5t100 148t76.5 142.5t30.5 128zM599 992q0 -11 -21 -18t-46 -5.5t-46 13.5t-21 40q0 21 8.5 34.5t20.5 22t24.5 12t21.5 3.5q38 0 48.5 -27.5t10.5 -74.5zM834 1008
q0 -21 -21 -31.5t-46 -10t-46 14t-21 41.5q0 25 8.5 39t20.5 21.5t24.5 9.5t21.5 2q38 0 48.5 -24.5t10.5 -61.5z" />
    <glyph glyph-name="germandbls" unicode="&#xdf;" 
d="M496 538q9 2 33.5 5t56 2t65 -9t62 -27t46.5 -52.5t18 -86.5q0 -47 -16.5 -92.5t-44.5 -87t-65.5 -76t-79 -60t-85.5 -40t-84 -14.5q-26 0 -51 9.5t-45.5 27.5t-33 43.5t-12.5 56.5t19 62t47 56t60 40t59 15q20 0 31 -4t16.5 -9.5t6.5 -11.5t1 -9q0 -9 -13 -6t-29 3
q-24 0 -51 -13t-49.5 -35t-37 -49.5t-14.5 -55.5q0 -21 9 -34.5t23 -22t31 -11.5t32 -3q32 0 79 24t90.5 66.5t74.5 101t31 127.5q0 46 -14 74t-35.5 43t-47.5 20.5t-49.5 5.5t-41.5 -2.5t-24 -2.5q-4 0 -8 1q-8 2 -8 10q0 10 11.5 31.5t36.5 50.5q53 64 92.5 123t61.5 104
t24.5 72t-16.5 27q-23 0 -60 -27t-82.5 -75t-95.5 -113.5t-99 -143t-94 -163.5t-79 -174t-54 -176t-20 -169q0 -18 2 -31.5t3 -22.5t-2 -13.5t-13 -4.5q-9 0 -23 10t-27.5 33t-23 61t-9.5 94q0 46 17 113t46.5 144.5t70.5 161.5t89 164.5t101 153t108 127.5t109 87t104 32
q14 0 29 -4t27.5 -13.5t20.5 -26t8 -41.5q0 -31 -13.5 -68t-38 -79t-58 -88t-73.5 -95q-12 -14 -18.5 -23t-13.5 -17z" />
    <glyph glyph-name="agrave" unicode="&#xe0;" horiz-adv-x="606" 
d="M759 469q5 7 11.5 8t11 -1t5.5 -7.5t-3 -11.5q-18 -25 -50 -69t-71 -94.5t-83 -103t-85.5 -94.5t-78.5 -69t-63 -27q-34 0 -49.5 15.5t-20.5 34.5q-6 22 -3 51q-19 -29 -42 -51q-20 -19 -46.5 -34.5t-55.5 -15.5q-21 0 -45 8t-44.5 26.5t-33.5 48.5t-13 74q0 37 14.5 84
t41 95.5t64 95.5t83 83.5t97.5 58.5t109 22q29 0 48.5 -9t31.5 -25t17.5 -38t5.5 -48q0 -25 -11 -55q9 -2 19 -6t19 -8.5t15 -9t6 -8.5q0 -3 -17.5 -26.5t-42 -57t-50 -72.5t-42.5 -71.5t-19 -54.5t21 -22q17 0 45.5 23.5t63 60t71.5 81t70 87.5t59.5 78.5t39.5 53.5z
M145 50q26 0 55 21t59 54t59.5 73.5t56.5 79.5q-8 9 -14.5 18t-6.5 11t13.5 16.5t30 37.5t30.5 52.5t14 62.5q0 23 -9.5 37.5t-30.5 14.5q-50 0 -98 -35.5t-87.5 -88.5t-68 -115t-40.5 -115t-4 -88.5t41 -35.5zM490 734q2 -8 -3 -13t-17.5 -9t-39.5 -4q-32 0 -69.5 8.5
t-69.5 23t-53.5 34.5t-21.5 43q0 15 6.5 24.5t15.5 15t18 8t13 2.5t8.5 -6.5t14 -17t25 -24.5t42.5 -29q29 -17 53 -25.5t41.5 -13.5t27 -8t9.5 -9z" />
    <glyph glyph-name="aacute" unicode="&#xe1;" horiz-adv-x="606" 
d="M759 469q5 7 11.5 8t11 -1t5.5 -7.5t-3 -11.5q-18 -25 -50 -69t-71 -94.5t-83 -103t-85.5 -94.5t-78.5 -69t-63 -27q-34 0 -49.5 15.5t-20.5 34.5q-6 22 -3 51q-19 -29 -42 -51q-20 -19 -46.5 -34.5t-55.5 -15.5q-21 0 -45 8t-44.5 26.5t-33.5 48.5t-13 74q0 37 14.5 84
t41 95.5t64 95.5t83 83.5t97.5 58.5t109 22q29 0 48.5 -9t31.5 -25t17.5 -38t5.5 -48q0 -25 -11 -55q9 -2 19 -6t19 -8.5t15 -9t6 -8.5q0 -3 -17.5 -26.5t-42 -57t-50 -72.5t-42.5 -71.5t-19 -54.5t21 -22q17 0 45.5 23.5t63 60t71.5 81t70 87.5t59.5 78.5t39.5 53.5z
M145 50q26 0 55 21t59 54t59.5 73.5t56.5 79.5q-8 9 -14.5 18t-6.5 11t13.5 16.5t30 37.5t30.5 52.5t14 62.5q0 23 -9.5 37.5t-30.5 14.5q-50 0 -98 -35.5t-87.5 -88.5t-68 -115t-40.5 -115t-4 -88.5t41 -35.5zM256 734q0 6 9.5 9t27 8t41 13.5t52.5 25.5q27 15 43 29
t25.5 24.5t14 17t8.5 6.5t12.5 -2.5t17.5 -8t15.5 -15t6.5 -24.5q0 -23 -21.5 -43t-53.5 -34.5t-69.5 -23t-69.5 -8.5q-27 0 -39 4t-17 9t-3 13z" />
    <glyph glyph-name="acircumflex" unicode="&#xe2;" horiz-adv-x="606" 
d="M759 469q5 7 11.5 8t11 -1t5.5 -7.5t-3 -11.5q-18 -25 -50 -69t-71 -94.5t-83 -103t-85.5 -94.5t-78.5 -69t-63 -27q-34 0 -49.5 15.5t-20.5 34.5q-6 22 -3 51q-19 -29 -42 -51q-20 -19 -46.5 -34.5t-55.5 -15.5q-21 0 -45 8t-44.5 26.5t-33.5 48.5t-13 74q0 37 14.5 84
t41 95.5t64 95.5t83 83.5t97.5 58.5t109 22q29 0 48.5 -9t31.5 -25t17.5 -38t5.5 -48q0 -25 -11 -55q9 -2 19 -6t19 -8.5t15 -9t6 -8.5q0 -3 -17.5 -26.5t-42 -57t-50 -72.5t-42.5 -71.5t-19 -54.5t21 -22q17 0 45.5 23.5t63 60t71.5 81t70 87.5t59.5 78.5t39.5 53.5z
M145 50q26 0 55 21t59 54t59.5 73.5t56.5 79.5q-8 9 -14.5 18t-6.5 11t13.5 16.5t30 37.5t30.5 52.5t14 62.5q0 23 -9.5 37.5t-30.5 14.5q-50 0 -98 -35.5t-87.5 -88.5t-68 -115t-40.5 -115t-4 -88.5t41 -35.5zM502 785q21 -26 40.5 -42.5t34 -27t22 -17t5.5 -11.5
q0 -7 -7 -11q-6 -3 -19 -2.5t-38 10.5q-24 9 -50 24.5t-48.5 34.5t-39.5 40t-23 41q-13 -9 -33.5 -23t-44.5 -30t-48.5 -31.5t-45.5 -28t-37 -20.5t-22 -8q-7 0 -9.5 4t-2.5 9q0 8 13 20.5t33 27t43 29.5t44 29t42.5 29.5t42 29t38.5 22t32 8.5q15 0 21 -3q4 -2 6 -9
t6.5 -20t14.5 -31.5t30 -42.5z" />
    <glyph glyph-name="atilde" unicode="&#xe3;" horiz-adv-x="606" 
d="M759 469q5 7 11.5 8t11 -1t5.5 -7.5t-3 -11.5q-18 -25 -50 -69t-71 -94.5t-83 -103t-85.5 -94.5t-78.5 -69t-63 -27q-34 0 -49.5 15.5t-20.5 34.5q-6 22 -3 51q-19 -29 -42 -51q-20 -19 -46.5 -34.5t-55.5 -15.5q-21 0 -45 8t-44.5 26.5t-33.5 48.5t-13 74q0 37 14.5 84
t41 95.5t64 95.5t83 83.5t97.5 58.5t109 22q29 0 48.5 -9t31.5 -25t17.5 -38t5.5 -48q0 -25 -11 -55q9 -2 19 -6t19 -8.5t15 -9t6 -8.5q0 -3 -17.5 -26.5t-42 -57t-50 -72.5t-42.5 -71.5t-19 -54.5t21 -22q17 0 45.5 23.5t63 60t71.5 81t70 87.5t59.5 78.5t39.5 53.5z
M145 50q26 0 55 21t59 54t59.5 73.5t56.5 79.5q-8 9 -14.5 18t-6.5 11t13.5 16.5t30 37.5t30.5 52.5t14 62.5q0 23 -9.5 37.5t-30.5 14.5q-50 0 -98 -35.5t-87.5 -88.5t-68 -115t-40.5 -115t-4 -88.5t41 -35.5zM303 819q25 0 43.5 -11.5t33.5 -25t27.5 -24.5t25.5 -11
q20 0 39.5 8.5t35 19t26 19.5t12.5 9q13 0 3.5 -18t-31.5 -40t-50.5 -40t-54.5 -18t-44 11.5t-33 25.5t-28.5 25.5t-30.5 11.5t-33.5 -9t-31.5 -20t-26.5 -20t-17.5 -9q-15 0 -5.5 18t32 40t52.5 40t56 18z" />
    <glyph glyph-name="adieresis" unicode="&#xe4;" horiz-adv-x="606" 
d="M759 469q5 7 11.5 8t11 -1t5.5 -7.5t-3 -11.5q-18 -25 -50 -69t-71 -94.5t-83 -103t-85.5 -94.5t-78.5 -69t-63 -27q-34 0 -49.5 15.5t-20.5 34.5q-6 22 -3 51q-19 -29 -42 -51q-20 -19 -46.5 -34.5t-55.5 -15.5q-21 0 -45 8t-44.5 26.5t-33.5 48.5t-13 74q0 37 14.5 84
t41 95.5t64 95.5t83 83.5t97.5 58.5t109 22q29 0 48.5 -9t31.5 -25t17.5 -38t5.5 -48q0 -25 -11 -55q9 -2 19 -6t19 -8.5t15 -9t6 -8.5q0 -3 -17.5 -26.5t-42 -57t-50 -72.5t-42.5 -71.5t-19 -54.5t21 -22q17 0 45.5 23.5t63 60t71.5 81t70 87.5t59.5 78.5t39.5 53.5z
M145 50q26 0 55 21t59 54t59.5 73.5t56.5 79.5q-8 9 -14.5 18t-6.5 11t13.5 16.5t30 37.5t30.5 52.5t14 62.5q0 23 -9.5 37.5t-30.5 14.5q-50 0 -98 -35.5t-87.5 -88.5t-68 -115t-40.5 -115t-4 -88.5t41 -35.5zM319 710q0 -11 -21 -18t-46 -5.5t-46 13.5t-21 40
q0 21 8.5 34.5t20.5 22t24.5 12t21.5 3.5q38 0 48.5 -27.5t10.5 -74.5zM554 726q0 -21 -21 -31.5t-46 -10t-46 14t-21 41.5q0 25 8.5 39t20.5 21.5t24.5 9.5t21.5 2q38 0 48.5 -24.5t10.5 -61.5z" />
    <glyph glyph-name="aring" unicode="&#xe5;" horiz-adv-x="606" 
d="M759 469q5 7 11.5 8t11 -1t5.5 -7.5t-3 -11.5q-18 -25 -50 -69t-71 -94.5t-83 -103t-85.5 -94.5t-78.5 -69t-63 -27q-34 0 -49.5 15.5t-20.5 34.5q-6 22 -3 51q-19 -29 -42 -51q-20 -19 -46.5 -34.5t-55.5 -15.5q-21 0 -45 8t-44.5 26.5t-33.5 48.5t-13 74q0 37 14.5 84
t41 95.5t64 95.5t83 83.5t97.5 58.5t109 22q29 0 48.5 -9t31.5 -25t17.5 -38t5.5 -48q0 -25 -11 -55q9 -2 19 -6t19 -8.5t15 -9t6 -8.5q0 -3 -17.5 -26.5t-42 -57t-50 -72.5t-42.5 -71.5t-19 -54.5t21 -22q17 0 45.5 23.5t63 60t71.5 81t70 87.5t59.5 78.5t39.5 53.5z
M145 50q26 0 55 21t59 54t59.5 73.5t56.5 79.5q-8 9 -14.5 18t-6.5 11t13.5 16.5t30 37.5t30.5 52.5t14 62.5q0 23 -9.5 37.5t-30.5 14.5q-50 0 -98 -35.5t-87.5 -88.5t-68 -115t-40.5 -115t-4 -88.5t41 -35.5zM371 655q-22 0 -42 11q-35 21 -41 62q-8 41 14 78q23 38 61 52
q40 15 74 -5q34 -19 42 -62q6 -41 -15 -78q-22 -38 -60 -52q-17 -6 -33 -6zM396 826q-5 0 -10 -1t-10 -3q-25 -9 -40 -35q-15 -25 -10 -52q3 -23 23 -35q18 -11 41 -3q25 9 40 35q16 27 11 53q-5 24 -23 35q-11 6 -22 6z" />
    <glyph glyph-name="ae" unicode="&#xe6;" horiz-adv-x="791" 
d="M963 475q5 6 11 7.5t10.5 -1t6 -7.5t-2.5 -11q-18 -25 -48 -68.5t-69 -94t-85 -103t-96 -95.5t-102 -71.5t-102 -30.5h-3h-1h-4q-68 0 -102.5 21t-48.5 47q-17 30 -15 68q-23 -38 -50 -68q-23 -26 -55.5 -47t-70.5 -21q-21 0 -45 8t-44.5 26.5t-33.5 48.5t-13 74
q0 37 14.5 84t41 95.5t64 95.5t83 83.5t97.5 58.5t109 22q52 0 75 -27t27 -72q49 45 107.5 72t123.5 27q52 0 69.5 -20t17.5 -52q0 -46 -25 -87.5t-68.5 -74t-102.5 -52.5t-127 -22q-20 -46 -31.5 -90t-11 -78t14.5 -54.5t44 -20.5q31 0 72 27t85.5 68.5t89.5 92t83.5 98.5
t68 87t42.5 57zM554 378q-7 -10 -12.5 -20t-11.5 -21q51 1 93.5 17t74 39.5t51.5 50t28 49t2.5 37.5t-24.5 15q-25 0 -51 -12t-51 -33.5t-48.5 -50t-44.5 -61.5q-1 -1 -2.5 -3.5t-3.5 -6.5zM375 278q-8 9 -14.5 18t-6.5 11t13.5 16.5t30 37.5t30.5 52.5t14 62.5
q0 23 -9.5 37.5t-30.5 14.5q-50 0 -98 -35.5t-87.5 -88.5t-68 -115t-40.5 -115t-4 -88.5t41 -35.5q26 0 55 21t59 54t59.5 73.5t56.5 79.5z" />
    <glyph glyph-name="ccedilla" unicode="&#xe7;" horiz-adv-x="524" 
d="M681 475q5 6 11 7.5t10.5 -1t6 -7.5t-2.5 -11q-18 -25 -52 -68.5t-79 -94.5t-98 -103.5t-108.5 -96t-111.5 -71.5t-107 -29q-2 -4 -7.5 -14t-19.5 -35l-2 -4l-2 -4q6 2 12.5 3t11.5 1q20 0 31 -9.5t13 -20.5q8 -11 8 -27q0 -18 -10 -34.5t-26.5 -29t-38 -20.5t-43.5 -8
q-5 0 -14 1t-17 6q-11 6 -16 14t-6.5 16t0 15t3.5 10q1 2 5 6q7 4 14 1q5 -2 7 -9q1 -4 3.5 -9.5t10.5 -9.5q6 -3 12 -3q16 0 30.5 7t24.5 17.5t16 22t6 19.5q0 2 0.5 3t0.5 2q-3 1 -11 1q-7 0 -16 -0.5t-16 -4.5q-6 -3 -10 -3q-8 0 -13.5 7t-6.5 16v1v1v2v1q2 10 11 26.5
t16 28.5q3 6 5.5 10.5t4.5 8.5q-21 4 -42.5 15.5t-39 31t-28.5 48t-11 66.5q0 37 14.5 83.5t41 94.5t64 94t83 81.5t97.5 57.5t109 22q14 0 24.5 -1t19.5 -4q15 35 32.5 59.5t30.5 24.5t26.5 -7t24.5 -16.5t17.5 -20.5t6.5 -19q0 -18 -17 -34t-37.5 -36.5t-37.5 -49.5
t-17 -74q0 -36 -9 -42t-19.5 7.5t-19 39.5t-8.5 55q0 16 2.5 32.5t7.5 33.5q-3 1 -6 1.5t-8 0.5q-33 0 -67.5 -21.5t-67 -57t-61 -80.5t-49.5 -91.5t-33.5 -91.5t-12.5 -80.5t14 -57t45 -21.5t75.5 27t94.5 68.5t101.5 92t95.5 98.5t77 87t47 57z" />
    <glyph glyph-name="egrave" unicode="&#xe8;" horiz-adv-x="472" 
d="M630 475q5 6 11.5 7.5t11 -1t5.5 -7.5t-3 -11q-18 -25 -48.5 -69t-70.5 -95.5t-87 -104.5t-97.5 -96t-103 -70.5t-103.5 -27.5q-21 0 -46.5 9t-47.5 28.5t-36.5 50.5t-14.5 75q0 37 14.5 83.5t41 94.5t64 94t83 81.5t97.5 57.5t109 22q52 0 70 -20t18 -52
q0 -46 -25 -87.5t-69 -74t-103 -52.5t-126 -22q-20 -46 -31.5 -90t-11.5 -78t14 -54.5t45 -20.5t72 27t85.5 68.5t89 92t83 98.5t68 87t42.5 57zM422 545q-30 0 -60.5 -17t-59.5 -45.5t-55.5 -66.5t-48.5 -79q51 1 93 17t73.5 39.5t51.5 50t28 49t2.5 37.5t-24.5 15z
M499 734q2 -8 -3 -13t-17.5 -9t-39.5 -4q-32 0 -69.5 8.5t-69.5 23t-53.5 34.5t-21.5 43q0 15 6.5 24.5t15.5 15t18 8t13 2.5t8.5 -6.5t14 -17t25 -24.5t42.5 -29q29 -17 53 -25.5t41.5 -13.5t27 -8t9.5 -9z" />
    <glyph glyph-name="eacute" unicode="&#xe9;" horiz-adv-x="472" 
d="M630 475q5 6 11.5 7.5t11 -1t5.5 -7.5t-3 -11q-18 -25 -48.5 -69t-70.5 -95.5t-87 -104.5t-97.5 -96t-103 -70.5t-103.5 -27.5q-21 0 -46.5 9t-47.5 28.5t-36.5 50.5t-14.5 75q0 37 14.5 83.5t41 94.5t64 94t83 81.5t97.5 57.5t109 22q52 0 70 -20t18 -52
q0 -46 -25 -87.5t-69 -74t-103 -52.5t-126 -22q-20 -46 -31.5 -90t-11.5 -78t14 -54.5t45 -20.5t72 27t85.5 68.5t89 92t83 98.5t68 87t42.5 57zM422 545q-30 0 -60.5 -17t-59.5 -45.5t-55.5 -66.5t-48.5 -79q51 1 93 17t73.5 39.5t51.5 50t28 49t2.5 37.5t-24.5 15z
M278 734q0 6 9.5 9t27 8t41 13.5t52.5 25.5q27 15 43 29t25.5 24.5t14 17t8.5 6.5t12.5 -2.5t17.5 -8t15.5 -15t6.5 -24.5q0 -23 -21.5 -43t-53.5 -34.5t-69.5 -23t-69.5 -8.5q-27 0 -39 4t-17 9t-3 13z" />
    <glyph glyph-name="ecircumflex" unicode="&#xea;" horiz-adv-x="472" 
d="M630 475q5 6 11.5 7.5t11 -1t5.5 -7.5t-3 -11q-18 -25 -48.5 -69t-70.5 -95.5t-87 -104.5t-97.5 -96t-103 -70.5t-103.5 -27.5q-21 0 -46.5 9t-47.5 28.5t-36.5 50.5t-14.5 75q0 37 14.5 83.5t41 94.5t64 94t83 81.5t97.5 57.5t109 22q52 0 70 -20t18 -52
q0 -46 -25 -87.5t-69 -74t-103 -52.5t-126 -22q-20 -46 -31.5 -90t-11.5 -78t14 -54.5t45 -20.5t72 27t85.5 68.5t89 92t83 98.5t68 87t42.5 57zM422 545q-30 0 -60.5 -17t-59.5 -45.5t-55.5 -66.5t-48.5 -79q51 1 93 17t73.5 39.5t51.5 50t28 49t2.5 37.5t-24.5 15z
M480 785q21 -26 40.5 -42.5t34 -27t22 -17t5.5 -11.5q0 -7 -7 -11q-6 -3 -19 -2.5t-38 10.5q-24 9 -50 24.5t-48.5 34.5t-39.5 40t-23 41q-13 -9 -33.5 -23t-44.5 -30t-48.5 -31.5t-45.5 -28t-37 -20.5t-22 -8q-7 0 -9.5 4t-2.5 9q0 8 13 20.5t33 27t43 29.5t44 29
t42.5 29.5t42 29t38.5 22t32 8.5q15 0 21 -3q4 -2 6 -9t6.5 -20t14.5 -31.5t30 -42.5z" />
    <glyph glyph-name="edieresis" unicode="&#xeb;" horiz-adv-x="472" 
d="M630 475q5 6 11.5 7.5t11 -1t5.5 -7.5t-3 -11q-18 -25 -48.5 -69t-70.5 -95.5t-87 -104.5t-97.5 -96t-103 -70.5t-103.5 -27.5q-21 0 -46.5 9t-47.5 28.5t-36.5 50.5t-14.5 75q0 37 14.5 83.5t41 94.5t64 94t83 81.5t97.5 57.5t109 22q52 0 70 -20t18 -52
q0 -46 -25 -87.5t-69 -74t-103 -52.5t-126 -22q-20 -46 -31.5 -90t-11.5 -78t14 -54.5t45 -20.5t72 27t85.5 68.5t89 92t83 98.5t68 87t42.5 57zM422 545q-30 0 -60.5 -17t-59.5 -45.5t-55.5 -66.5t-48.5 -79q51 1 93 17t73.5 39.5t51.5 50t28 49t2.5 37.5t-24.5 15z
M290 710q0 -11 -21 -18t-46 -5.5t-46 13.5t-21 40q0 21 8.5 34.5t20.5 22t24.5 12t21.5 3.5q38 0 48.5 -27.5t10.5 -74.5zM525 726q0 -21 -21 -31.5t-46 -10t-46 14t-21 41.5q0 25 8.5 39t20.5 21.5t24.5 9.5t21.5 2q38 0 48.5 -24.5t10.5 -61.5z" />
    <glyph glyph-name="igrave" unicode="&#xec;" horiz-adv-x="271" 
d="M429 469q5 7 11.5 8t11 -1t5.5 -7.5t-3 -11.5q-18 -25 -50 -69t-71 -94.5t-82.5 -103t-85.5 -94.5t-79 -69t-62 -27q-31 0 -47 11.5t-24 25.5q-9 17 -10 38q0 27 18.5 66.5t47 85.5t61 96.5t61 98.5t47 91.5t18.5 76.5q0 5 14.5 6t31.5 -4t31.5 -18t14.5 -37
q0 -30 -21 -75t-50.5 -95t-61.5 -100.5t-55 -91t-31 -65.5t11 -25q17 0 45.5 23.5t63 60t71.5 81t70 87.5t59.5 78.5t39.5 53.5zM318 734q2 -8 -3 -13t-17.5 -9t-39.5 -4q-32 0 -69.5 8.5t-69.5 23t-53.5 34.5t-21.5 43q0 15 6.5 24.5t15.5 15t18 8t13 2.5t8.5 -6.5t14 -17
t25 -24.5t42.5 -29q29 -17 53 -25.5t41.5 -13.5t27 -8t9.5 -9z" />
    <glyph glyph-name="iacute" unicode="&#xed;" horiz-adv-x="271" 
d="M429 469q5 7 11.5 8t11 -1t5.5 -7.5t-3 -11.5q-18 -25 -50 -69t-71 -94.5t-82.5 -103t-85.5 -94.5t-79 -69t-62 -27q-31 0 -47 11.5t-24 25.5q-9 17 -10 38q0 27 18.5 66.5t47 85.5t61 96.5t61 98.5t47 91.5t18.5 76.5q0 5 14.5 6t31.5 -4t31.5 -18t14.5 -37
q0 -30 -21 -75t-50.5 -95t-61.5 -100.5t-55 -91t-31 -65.5t11 -25q17 0 45.5 23.5t63 60t71.5 81t70 87.5t59.5 78.5t39.5 53.5zM169 734q0 6 9.5 9t27 8t41 13.5t52.5 25.5q27 15 43 29t25.5 24.5t14 17t8.5 6.5t12.5 -2.5t17.5 -8t15.5 -15t6.5 -24.5q0 -23 -21.5 -43
t-53.5 -34.5t-69.5 -23t-69.5 -8.5q-27 0 -39 4t-17 9t-3 13z" />
    <glyph glyph-name="icircumflex" unicode="&#xee;" horiz-adv-x="271" 
d="M429 469q5 7 11.5 8t11 -1t5.5 -7.5t-3 -11.5q-18 -25 -50 -69t-71 -94.5t-82.5 -103t-85.5 -94.5t-79 -69t-62 -27q-31 0 -47 11.5t-24 25.5q-9 17 -10 38q0 27 18.5 66.5t47 85.5t61 96.5t61 98.5t47 91.5t18.5 76.5q0 5 14.5 6t31.5 -4t31.5 -18t14.5 -37
q0 -30 -21 -75t-50.5 -95t-61.5 -100.5t-55 -91t-31 -65.5t11 -25q17 0 45.5 23.5t63 60t71.5 81t70 87.5t59.5 78.5t39.5 53.5zM380 785q21 -26 40.5 -42.5t34 -27t22 -17t5.5 -11.5q0 -7 -7 -11q-6 -3 -19 -2.5t-38 10.5q-24 9 -50 24.5t-48.5 34.5t-39.5 40t-23 41
q-13 -9 -33.5 -23t-44.5 -30t-48.5 -31.5t-45.5 -28t-37 -20.5t-22 -8q-7 0 -9.5 4t-2.5 9q0 8 13 20.5t33 27t43 29.5t44 29t42.5 29.5t42 29t38.5 22t32 8.5q15 0 21 -3q4 -2 6 -9t6.5 -20t14.5 -31.5t30 -42.5z" />
    <glyph glyph-name="idieresis" unicode="&#xef;" horiz-adv-x="271" 
d="M429 469q5 7 11.5 8t11 -1t5.5 -7.5t-3 -11.5q-18 -25 -50 -69t-71 -94.5t-82.5 -103t-85.5 -94.5t-79 -69t-62 -27q-31 0 -47 11.5t-24 25.5q-9 17 -10 38q0 27 18.5 66.5t47 85.5t61 96.5t61 98.5t47 91.5t18.5 76.5q0 5 14.5 6t31.5 -4t31.5 -18t14.5 -37
q0 -30 -21 -75t-50.5 -95t-61.5 -100.5t-55 -91t-31 -65.5t11 -25q17 0 45.5 23.5t63 60t71.5 81t70 87.5t59.5 78.5t39.5 53.5zM180 710q0 -11 -21 -18t-46 -5.5t-46 13.5t-21 40q0 21 8.5 34.5t20.5 22t24.5 12t21.5 3.5q38 0 48.5 -27.5t10.5 -74.5zM415 726
q0 -21 -21 -31.5t-46 -10t-46 14t-21 41.5q0 25 8.5 39t20.5 21.5t24.5 9.5t21.5 2q38 0 48.5 -24.5t10.5 -61.5z" />
    <glyph glyph-name="ntilde" unicode="&#xf1;" horiz-adv-x="580" 
d="M330 0q-32 0 -49 15t-24 33q-9 21 -8 49q0 42 23 90t55 95.5t67 92t59 78t30.5 54t-18.5 20.5q-20 0 -50 -22.5t-66 -59.5t-75.5 -84.5t-78 -97t-75 -97t-66 -84.5t-50 -59.5t-28.5 -22.5q-14 0 -26 5t-21 12t-13.5 13.5t-4.5 9.5t20.5 35.5t51.5 83t67 112.5t67 122.5
t51.5 113t20.5 85.5q0 4 13.5 3.5t30 -8t30.5 -22.5t14 -39t-13 -57.5t-28.5 -64t-27 -52.5t-8.5 -22q2 0 18.5 19.5t42.5 49.5t59 64t69 64t72.5 49.5t68.5 19.5q34 0 49 -21t15 -59q0 -25 -13.5 -57t-34.5 -67t-46.5 -71.5t-50 -70.5t-45.5 -64t-31.5 -52.5t-8.5 -35.5
t22 -13q17 0 45.5 23.5t63 60t71.5 81t70 87.5t59.5 78.5t39.5 53.5q5 7 11.5 8t11 -1t5.5 -7.5t-3 -11.5q-18 -25 -49 -69t-69 -94.5t-81 -103t-84.5 -94.5t-79.5 -69t-67 -27zM364 819q25 0 43.5 -11.5t33.5 -25t27.5 -24.5t25.5 -11q20 0 39.5 8.5t35 19t26 19.5t12.5 9
q13 0 3.5 -18t-31.5 -40t-50.5 -40t-54.5 -18t-44 11.5t-33 25.5t-28.5 25.5t-30.5 11.5t-33.5 -9t-31.5 -20t-26.5 -20t-17.5 -9q-15 0 -5.5 18t32 40t52.5 40t56 18z" />
    <glyph glyph-name="ograve" unicode="&#xf2;" horiz-adv-x="498" 
d="M649 469q5 7 11 8t10.5 -1t6 -7.5t-2.5 -11.5q-20 -29 -46.5 -59t-58 -58.5t-67.5 -52t-76 -38.5q-30 -48 -67.5 -93t-78 -79.5t-82.5 -55.5t-83 -21q-14 0 -33.5 3t-37.5 16.5t-31 40.5t-13 75q0 31 8.5 69.5t22.5 78t32 76.5t37.5 66t39 46.5t35.5 17.5q19 0 30.5 -1.5
t19.5 -3.5q29 53 77.5 82.5t108.5 29.5q32 0 52.5 -11t32.5 -27.5t17 -37t5 -38.5q0 -33 -16 -79.5t-43 -98.5q31 14 59 34t52.5 42.5t44 45.5t34.5 43zM156 70q26 0 53 13t53 35t51 51t48 62q-21 -3 -44 -3q-40 0 -64.5 11.5t-37.5 29.5t-17.5 41t-4.5 47q0 2 0.5 5t0.5 5
q-16 -25 -32.5 -53.5t-30.5 -58.5t-23 -60t-9 -58q0 -19 5.5 -31.5t14 -20.5t18.5 -11.5t19 -3.5zM394 285q34 58 54 112t20 86q0 23 -10.5 36.5t-34.5 13.5q-29 0 -55.5 -17.5t-46.5 -43t-31.5 -54t-11.5 -51.5t7.5 -39t19.5 -26.5t26.5 -15t27.5 -4.5q18 0 35 3zM491 734
q2 -8 -3 -13t-17.5 -9t-39.5 -4q-32 0 -69.5 8.5t-69.5 23t-53.5 34.5t-21.5 43q0 15 6.5 24.5t15.5 15t18 8t13 2.5t8.5 -6.5t14 -17t25 -24.5t42.5 -29q29 -17 53 -25.5t41.5 -13.5t27 -8t9.5 -9z" />
    <glyph glyph-name="oacute" unicode="&#xf3;" horiz-adv-x="498" 
d="M649 469q5 7 11 8t10.5 -1t6 -7.5t-2.5 -11.5q-20 -29 -46.5 -59t-58 -58.5t-67.5 -52t-76 -38.5q-30 -48 -67.5 -93t-78 -79.5t-82.5 -55.5t-83 -21q-14 0 -33.5 3t-37.5 16.5t-31 40.5t-13 75q0 31 8.5 69.5t22.5 78t32 76.5t37.5 66t39 46.5t35.5 17.5q19 0 30.5 -1.5
t19.5 -3.5q29 53 77.5 82.5t108.5 29.5q32 0 52.5 -11t32.5 -27.5t17 -37t5 -38.5q0 -33 -16 -79.5t-43 -98.5q31 14 59 34t52.5 42.5t44 45.5t34.5 43zM156 70q26 0 53 13t53 35t51 51t48 62q-21 -3 -44 -3q-40 0 -64.5 11.5t-37.5 29.5t-17.5 41t-4.5 47q0 2 0.5 5t0.5 5
q-16 -25 -32.5 -53.5t-30.5 -58.5t-23 -60t-9 -58q0 -19 5.5 -31.5t14 -20.5t18.5 -11.5t19 -3.5zM394 285q34 58 54 112t20 86q0 23 -10.5 36.5t-34.5 13.5q-29 0 -55.5 -17.5t-46.5 -43t-31.5 -54t-11.5 -51.5t7.5 -39t19.5 -26.5t26.5 -15t27.5 -4.5q18 0 35 3zM303 734
q0 6 9.5 9t27 8t41 13.5t52.5 25.5q27 15 43 29t25.5 24.5t14 17t8.5 6.5t12.5 -2.5t17.5 -8t15.5 -15t6.5 -24.5q0 -23 -21.5 -43t-53.5 -34.5t-69.5 -23t-69.5 -8.5q-27 0 -39 4t-17 9t-3 13z" />
    <glyph glyph-name="ocircumflex" unicode="&#xf4;" horiz-adv-x="498" 
d="M649 469q5 7 11 8t10.5 -1t6 -7.5t-2.5 -11.5q-20 -29 -46.5 -59t-58 -58.5t-67.5 -52t-76 -38.5q-30 -48 -67.5 -93t-78 -79.5t-82.5 -55.5t-83 -21q-14 0 -33.5 3t-37.5 16.5t-31 40.5t-13 75q0 31 8.5 69.5t22.5 78t32 76.5t37.5 66t39 46.5t35.5 17.5q19 0 30.5 -1.5
t19.5 -3.5q29 53 77.5 82.5t108.5 29.5q32 0 52.5 -11t32.5 -27.5t17 -37t5 -38.5q0 -33 -16 -79.5t-43 -98.5q31 14 59 34t52.5 42.5t44 45.5t34.5 43zM156 70q26 0 53 13t53 35t51 51t48 62q-21 -3 -44 -3q-40 0 -64.5 11.5t-37.5 29.5t-17.5 41t-4.5 47q0 2 0.5 5t0.5 5
q-16 -25 -32.5 -53.5t-30.5 -58.5t-23 -60t-9 -58q0 -19 5.5 -31.5t14 -20.5t18.5 -11.5t19 -3.5zM394 285q34 58 54 112t20 86q0 23 -10.5 36.5t-34.5 13.5q-29 0 -55.5 -17.5t-46.5 -43t-31.5 -54t-11.5 -51.5t7.5 -39t19.5 -26.5t26.5 -15t27.5 -4.5q18 0 35 3zM533 785
q21 -26 40.5 -42.5t34 -27t22 -17t5.5 -11.5q0 -7 -7 -11q-6 -3 -19 -2.5t-38 10.5q-24 9 -50 24.5t-48.5 34.5t-39.5 40t-23 41q-13 -9 -33.5 -23t-44.5 -30t-48.5 -31.5t-45.5 -28t-37 -20.5t-22 -8q-7 0 -9.5 4t-2.5 9q0 8 13 20.5t33 27t43 29.5t44 29t42.5 29.5t42 29
t38.5 22t32 8.5q15 0 21 -3q4 -2 6 -9t6.5 -20t14.5 -31.5t30 -42.5z" />
    <glyph glyph-name="otilde" unicode="&#xf5;" horiz-adv-x="498" 
d="M649 469q5 7 11 8t10.5 -1t6 -7.5t-2.5 -11.5q-20 -29 -46.5 -59t-58 -58.5t-67.5 -52t-76 -38.5q-30 -48 -67.5 -93t-78 -79.5t-82.5 -55.5t-83 -21q-14 0 -33.5 3t-37.5 16.5t-31 40.5t-13 75q0 31 8.5 69.5t22.5 78t32 76.5t37.5 66t39 46.5t35.5 17.5q19 0 30.5 -1.5
t19.5 -3.5q29 53 77.5 82.5t108.5 29.5q32 0 52.5 -11t32.5 -27.5t17 -37t5 -38.5q0 -33 -16 -79.5t-43 -98.5q31 14 59 34t52.5 42.5t44 45.5t34.5 43zM156 70q26 0 53 13t53 35t51 51t48 62q-21 -3 -44 -3q-40 0 -64.5 11.5t-37.5 29.5t-17.5 41t-4.5 47q0 2 0.5 5t0.5 5
q-16 -25 -32.5 -53.5t-30.5 -58.5t-23 -60t-9 -58q0 -19 5.5 -31.5t14 -20.5t18.5 -11.5t19 -3.5zM394 285q34 58 54 112t20 86q0 23 -10.5 36.5t-34.5 13.5q-29 0 -55.5 -17.5t-46.5 -43t-31.5 -54t-11.5 -51.5t7.5 -39t19.5 -26.5t26.5 -15t27.5 -4.5q18 0 35 3zM362 819
q25 0 43.5 -11.5t33.5 -25t27.5 -24.5t25.5 -11q20 0 39.5 8.5t35 19t26 19.5t12.5 9q13 0 3.5 -18t-31.5 -40t-50.5 -40t-54.5 -18t-44 11.5t-33 25.5t-28.5 25.5t-30.5 11.5t-33.5 -9t-31.5 -20t-26.5 -20t-17.5 -9q-15 0 -5.5 18t32 40t52.5 40t56 18z" />
    <glyph glyph-name="odieresis" unicode="&#xf6;" horiz-adv-x="498" 
d="M649 469q5 7 11 8t10.5 -1t6 -7.5t-2.5 -11.5q-20 -29 -46.5 -59t-58 -58.5t-67.5 -52t-76 -38.5q-30 -48 -67.5 -93t-78 -79.5t-82.5 -55.5t-83 -21q-14 0 -33.5 3t-37.5 16.5t-31 40.5t-13 75q0 31 8.5 69.5t22.5 78t32 76.5t37.5 66t39 46.5t35.5 17.5q19 0 30.5 -1.5
t19.5 -3.5q29 53 77.5 82.5t108.5 29.5q32 0 52.5 -11t32.5 -27.5t17 -37t5 -38.5q0 -33 -16 -79.5t-43 -98.5q31 14 59 34t52.5 42.5t44 45.5t34.5 43zM156 70q26 0 53 13t53 35t51 51t48 62q-21 -3 -44 -3q-40 0 -64.5 11.5t-37.5 29.5t-17.5 41t-4.5 47q0 2 0.5 5t0.5 5
q-16 -25 -32.5 -53.5t-30.5 -58.5t-23 -60t-9 -58q0 -19 5.5 -31.5t14 -20.5t18.5 -11.5t19 -3.5zM394 285q34 58 54 112t20 86q0 23 -10.5 36.5t-34.5 13.5q-29 0 -55.5 -17.5t-46.5 -43t-31.5 -54t-11.5 -51.5t7.5 -39t19.5 -26.5t26.5 -15t27.5 -4.5q18 0 35 3zM363 710
q0 -11 -21 -18t-46 -5.5t-46 13.5t-21 40q0 21 8.5 34.5t20.5 22t24.5 12t21.5 3.5q38 0 48.5 -27.5t10.5 -74.5zM598 726q0 -21 -21 -31.5t-46 -10t-46 14t-21 41.5q0 25 8.5 39t20.5 21.5t24.5 9.5t21.5 2q38 0 48.5 -24.5t10.5 -61.5z" />
    <glyph glyph-name="ugrave" unicode="&#xf9;" horiz-adv-x="568" 
d="M723 469q5 7 11.5 8t11 -1t5.5 -7.5t-3 -11.5q-18 -25 -50 -69t-71 -94.5t-82.5 -103t-85.5 -94.5t-79 -69t-62 -27q-31 0 -47 10.5t-24 24.5q-9 16 -10 36q0 31 22.5 76.5t54.5 96.5q-10 -12 -27.5 -34.5t-41 -49.5t-51.5 -55.5t-57.5 -51.5t-60 -38t-58.5 -15
q-34 0 -51 23t-17 61q0 27 17.5 64t44 80.5t57.5 91.5t58.5 95.5t47 93t23.5 84.5q0 4 14.5 3.5t31.5 -8t31.5 -23t14.5 -39.5q0 -30 -21 -75t-50.5 -95.5t-62.5 -101t-56.5 -90.5t-31.5 -65.5t11 -25.5t47 20.5t60.5 54t68.5 77t71.5 89.5t69 91t62.5 82q11 25 18 54.5
t9 51.5q0 4 14.5 3t31.5 -9t31.5 -23t14.5 -38q0 -30 -20.5 -74t-49 -93t-60.5 -98t-54.5 -88t-30 -63.5t11.5 -24.5q17 0 45.5 23.5t63 60t71.5 81t70 87.5t59.5 78.5t39.5 53.5zM542 734q2 -8 -3 -13t-17.5 -9t-39.5 -4q-32 0 -69.5 8.5t-69.5 23t-53.5 34.5t-21.5 43
q0 15 6.5 24.5t15.5 15t18 8t13 2.5t8.5 -6.5t14 -17t25 -24.5t42.5 -29q29 -17 53 -25.5t41.5 -13.5t27 -8t9.5 -9z" />
    <glyph glyph-name="uacute" unicode="&#xfa;" horiz-adv-x="568" 
d="M723 469q5 7 11.5 8t11 -1t5.5 -7.5t-3 -11.5q-18 -25 -50 -69t-71 -94.5t-82.5 -103t-85.5 -94.5t-79 -69t-62 -27q-31 0 -47 10.5t-24 24.5q-9 16 -10 36q0 31 22.5 76.5t54.5 96.5q-10 -12 -27.5 -34.5t-41 -49.5t-51.5 -55.5t-57.5 -51.5t-60 -38t-58.5 -15
q-34 0 -51 23t-17 61q0 27 17.5 64t44 80.5t57.5 91.5t58.5 95.5t47 93t23.5 84.5q0 4 14.5 3.5t31.5 -8t31.5 -23t14.5 -39.5q0 -30 -21 -75t-50.5 -95.5t-62.5 -101t-56.5 -90.5t-31.5 -65.5t11 -25.5t47 20.5t60.5 54t68.5 77t71.5 89.5t69 91t62.5 82q11 25 18 54.5
t9 51.5q0 4 14.5 3t31.5 -9t31.5 -23t14.5 -38q0 -30 -20.5 -74t-49 -93t-60.5 -98t-54.5 -88t-30 -63.5t11.5 -24.5q17 0 45.5 23.5t63 60t71.5 81t70 87.5t59.5 78.5t39.5 53.5zM294 734q0 6 9.5 9t27 8t41 13.5t52.5 25.5q27 15 43 29t25.5 24.5t14 17t8.5 6.5t12.5 -2.5
t17.5 -8t15.5 -15t6.5 -24.5q0 -23 -21.5 -43t-53.5 -34.5t-69.5 -23t-69.5 -8.5q-27 0 -39 4t-17 9t-3 13z" />
    <glyph glyph-name="ucircumflex" unicode="&#xfb;" horiz-adv-x="568" 
d="M723 469q5 7 11.5 8t11 -1t5.5 -7.5t-3 -11.5q-18 -25 -50 -69t-71 -94.5t-82.5 -103t-85.5 -94.5t-79 -69t-62 -27q-31 0 -47 10.5t-24 24.5q-9 16 -10 36q0 31 22.5 76.5t54.5 96.5q-10 -12 -27.5 -34.5t-41 -49.5t-51.5 -55.5t-57.5 -51.5t-60 -38t-58.5 -15
q-34 0 -51 23t-17 61q0 27 17.5 64t44 80.5t57.5 91.5t58.5 95.5t47 93t23.5 84.5q0 4 14.5 3.5t31.5 -8t31.5 -23t14.5 -39.5q0 -30 -21 -75t-50.5 -95.5t-62.5 -101t-56.5 -90.5t-31.5 -65.5t11 -25.5t47 20.5t60.5 54t68.5 77t71.5 89.5t69 91t62.5 82q11 25 18 54.5
t9 51.5q0 4 14.5 3t31.5 -9t31.5 -23t14.5 -38q0 -30 -20.5 -74t-49 -93t-60.5 -98t-54.5 -88t-30 -63.5t11.5 -24.5q17 0 45.5 23.5t63 60t71.5 81t70 87.5t59.5 78.5t39.5 53.5zM535 785q21 -26 40.5 -42.5t34 -27t22 -17t5.5 -11.5q0 -7 -7 -11q-6 -3 -19 -2.5t-38 10.5
q-24 9 -50 24.5t-48.5 34.5t-39.5 40t-23 41q-13 -9 -33.5 -23t-44.5 -30t-48.5 -31.5t-45.5 -28t-37 -20.5t-22 -8q-7 0 -9.5 4t-2.5 9q0 8 13 20.5t33 27t43 29.5t44 29t42.5 29.5t42 29t38.5 22t32 8.5q15 0 21 -3q4 -2 6 -9t6.5 -20t14.5 -31.5t30 -42.5z" />
    <glyph glyph-name="udieresis" unicode="&#xfc;" horiz-adv-x="568" 
d="M723 469q5 7 11.5 8t11 -1t5.5 -7.5t-3 -11.5q-18 -25 -50 -69t-71 -94.5t-82.5 -103t-85.5 -94.5t-79 -69t-62 -27q-31 0 -47 10.5t-24 24.5q-9 16 -10 36q0 31 22.5 76.5t54.5 96.5q-10 -12 -27.5 -34.5t-41 -49.5t-51.5 -55.5t-57.5 -51.5t-60 -38t-58.5 -15
q-34 0 -51 23t-17 61q0 27 17.5 64t44 80.5t57.5 91.5t58.5 95.5t47 93t23.5 84.5q0 4 14.5 3.5t31.5 -8t31.5 -23t14.5 -39.5q0 -30 -21 -75t-50.5 -95.5t-62.5 -101t-56.5 -90.5t-31.5 -65.5t11 -25.5t47 20.5t60.5 54t68.5 77t71.5 89.5t69 91t62.5 82q11 25 18 54.5
t9 51.5q0 4 14.5 3t31.5 -9t31.5 -23t14.5 -38q0 -30 -20.5 -74t-49 -93t-60.5 -98t-54.5 -88t-30 -63.5t11.5 -24.5q17 0 45.5 23.5t63 60t71.5 81t70 87.5t59.5 78.5t39.5 53.5zM353 710q0 -11 -21 -18t-46 -5.5t-46 13.5t-21 40q0 21 8.5 34.5t20.5 22t24.5 12t21.5 3.5
q38 0 48.5 -27.5t10.5 -74.5zM588 726q0 -21 -21 -31.5t-46 -10t-46 14t-21 41.5q0 25 8.5 39t20.5 21.5t24.5 9.5t21.5 2q38 0 48.5 -24.5t10.5 -61.5z" />
    <glyph glyph-name="yacute" unicode="&#xfd;" horiz-adv-x="571" 
d="M721 469q5 7 11.5 8.5t11 -1t5.5 -7.5t-3 -11q-33 -59 -81.5 -116.5t-108 -113t-127.5 -108.5t-138 -102q-45 -69 -94 -138t-98 -132t-97.5 -117t-93.5 -93.5t-85.5 -62t-74.5 -22.5q-63 0 -90 31t-27 83q0 31 34 66.5t92 77t136 89t166 103.5q51 65 96.5 126.5
t80.5 109.5q40 56 76 106q-10 -12 -27.5 -34.5t-41 -50t-51.5 -56t-57.5 -51.5t-60 -38t-58.5 -15q-34 0 -51 23t-17 61q0 27 17.5 64t44 80.5t57.5 91.5t58.5 95.5t47 93t23.5 84.5q0 5 14.5 4.5t31.5 -8t31.5 -23t14.5 -40.5q0 -29 -21 -74.5t-50.5 -95.5t-62.5 -100.5
t-56.5 -91t-31.5 -66t11 -25.5t47 20.5t60.5 54t68.5 77.5t71.5 90t69 91t62.5 82q11 24 17.5 54t8.5 51q0 5 14.5 4.5t32 -8t32 -23t14.5 -40.5q0 -10 -18 -48.5t-49.5 -97.5t-75 -133t-94.5 -155q108 81 207 174t176 203zM-298 -468q18 0 49 24.5t71 65t85 94t92 111.5
q-71 -45 -132 -84t-106.5 -71t-71.5 -57.5t-26 -43.5q0 -11 4 -20q4 -8 11.5 -13.5t23.5 -5.5zM295 734q0 6 9.5 9t27 8t41 13.5t52.5 25.5q27 15 43 29t25.5 24.5t14 17t8.5 6.5t12.5 -2.5t17.5 -8t15.5 -15t6.5 -24.5q0 -23 -21.5 -43t-53.5 -34.5t-69.5 -23t-69.5 -8.5
q-27 0 -39 4t-17 9t-3 13z" />
    <glyph glyph-name="ydieresis" unicode="&#xff;" horiz-adv-x="571" 
d="M721 469q5 7 11.5 8.5t11 -1t5.5 -7.5t-3 -11q-33 -59 -81.5 -116.5t-108 -113t-127.5 -108.5t-138 -102q-45 -69 -94 -138t-98 -132t-97.5 -117t-93.5 -93.5t-85.5 -62t-74.5 -22.5q-63 0 -90 31t-27 83q0 31 34 66.5t92 77t136 89t166 103.5q51 65 96.5 126.5
t80.5 109.5q40 56 76 106q-10 -12 -27.5 -34.5t-41 -50t-51.5 -56t-57.5 -51.5t-60 -38t-58.5 -15q-34 0 -51 23t-17 61q0 27 17.5 64t44 80.5t57.5 91.5t58.5 95.5t47 93t23.5 84.5q0 5 14.5 4.5t31.5 -8t31.5 -23t14.5 -40.5q0 -29 -21 -74.5t-50.5 -95.5t-62.5 -100.5
t-56.5 -91t-31.5 -66t11 -25.5t47 20.5t60.5 54t68.5 77.5t71.5 90t69 91t62.5 82q11 24 17.5 54t8.5 51q0 5 14.5 4.5t32 -8t32 -23t14.5 -40.5q0 -10 -18 -48.5t-49.5 -97.5t-75 -133t-94.5 -155q108 81 207 174t176 203zM-298 -468q18 0 49 24.5t71 65t85 94t92 111.5
q-71 -45 -132 -84t-106.5 -71t-71.5 -57.5t-26 -43.5q0 -11 4 -20q4 -8 11.5 -13.5t23.5 -5.5zM347 710q0 -11 -21 -18t-46 -5.5t-46 13.5t-21 40q0 21 8.5 34.5t20.5 22t24.5 12t21.5 3.5q38 0 48.5 -27.5t10.5 -74.5zM582 726q0 -21 -21 -31.5t-46 -10t-46 14t-21 41.5
q0 25 8.5 39t20.5 21.5t24.5 9.5t21.5 2q38 0 48.5 -24.5t10.5 -61.5z" />
    <glyph glyph-name="dotlessi" unicode="&#x131;" horiz-adv-x="271" 
d="M429 469q5 7 11.5 8t11 -1t5.5 -7.5t-3 -11.5q-18 -25 -50 -69t-71 -94.5t-82.5 -103t-85.5 -94.5t-79 -69t-62 -27q-31 0 -47 11.5t-24 25.5q-9 17 -10 38q0 27 18.5 66.5t47 85.5t61 96.5t61 98.5t47 91.5t18.5 76.5q0 5 14.5 6t31.5 -4t31.5 -18t14.5 -37
q0 -30 -21 -75t-50.5 -95t-61.5 -100.5t-55 -91t-31 -65.5t11 -25q17 0 45.5 23.5t63 60t71.5 81t70 87.5t59.5 78.5t39.5 53.5z" />
    <glyph glyph-name="OE" unicode="&#x152;" horiz-adv-x="1594" 
d="M1497 1033q61 0 102 -14t65.5 -36.5t34.5 -50t10 -55.5t-13.5 -52.5t-34.5 -43t-46 -29t-47 -10.5t-36 6.5t-22.5 15.5t-12 19.5t-3.5 19.5q0 5 18.5 10.5t41 16.5t41.5 31.5t19 56.5q0 39 -33 54t-96 15q-86 0 -156.5 -27t-121 -66t-78.5 -82t-28 -75q0 -23 10 -46
t30 -41t49.5 -29.5t68.5 -11.5q44 0 71.5 6t44.5 13t25.5 13t14.5 6q13 0 18 -18t5 -41t-26 -38.5t-68.5 -28t-97 -26t-111.5 -32t-111.5 -45t-97 -66.5t-68.5 -96t-26 -133q0 -68 19.5 -111.5t48.5 -69t62.5 -35.5t62.5 -10q66 0 136 21t128.5 62t96 102t37.5 141
q0 42 -7.5 73t-16 52t-16 32t-7.5 14q0 5 9.5 8.5t15.5 3.5q14 0 30.5 -15t31 -40.5t24 -60t9.5 -73.5q0 -68 -33.5 -133.5t-98 -118t-157.5 -84.5t-213 -32q-59 0 -106.5 16t-82.5 44t-58.5 64t-33.5 77q-86 -94 -184 -147.5t-196 -53.5q-73 0 -116.5 27.5t-66 69.5
t-29 91.5t-6.5 92.5v20t2 20q-24 15 -45.5 38.5t-37 56.5t-24.5 77t-9 101q0 71 26 142.5t73 137t112.5 122.5t145 98.5t170.5 65.5t188 24q62 0 110.5 -24t81.5 -65t50.5 -96t17.5 -117q0 -70 -10 -137.5t-29 -133.5q45 25 88.5 42t78.5 28q40 12 77 19q-54 9 -95 34
q-18 10 -35 24.5t-30.5 34t-21.5 44.5t-8 56q0 66 44.5 119.5t116.5 91.5t162.5 59t182.5 21zM340 -114q58 0 119.5 42t120 111t110 158.5t90.5 185t61.5 189.5t22.5 172q0 72 -18 117t-44 70t-55 34t-51 9q-84 0 -159.5 -25t-139.5 -67.5t-115.5 -98t-88 -117t-56 -124
t-19.5 -118.5q0 -43 6.5 -75.5t17.5 -57.5q19 62 50 126t68 123.5t79 111.5t84.5 90.5t83.5 61t76 22.5q21 0 36 -4.5t22.5 -10.5t6.5 -10.5t-12 -4.5q-6 0 -33.5 -23t-66.5 -64t-86 -96.5t-92.5 -120.5t-84.5 -136.5t-63 -143.5q22 -14 44 -20.5t39.5 -9.5t28.5 -4t11 -3
q0 -17 -18.5 -31t-44.5 -14q-18 0 -38.5 2t-40.5 7q-4 -21 -6 -42t-2 -42q0 -52 18 -85t43 -51.5t51.5 -25.5t44.5 -7z" />
    <glyph glyph-name="oe" unicode="&#x153;" horiz-adv-x="818" 
d="M978 475q5 6 11.5 7.5t11 -1t5.5 -7.5t-3 -11q-18 -25 -48.5 -69t-70.5 -95.5t-87 -104.5t-97.5 -96t-103 -70.5t-103.5 -27.5q-20 0 -44 8t-45 25t-36.5 44.5t-18.5 66.5q-27 -31 -56 -57t-59 -45.5t-60 -30.5t-59 -11q-14 0 -33.5 3t-37.5 16.5t-31 40.5t-13 75
q0 31 9 70t23.5 79t33.5 78t39 67.5t40 47.5t36 18q19 0 30.5 -1.5t19.5 -3.5q29 53 78.5 79.5t101.5 26.5q32 0 52.5 -11t32.5 -27.5t17 -37t5 -38.5q0 -5 -0.5 -10t-1.5 -10q25 28 53.5 52.5t59 42.5t62.5 28.5t66 10.5q52 0 69.5 -20t17.5 -52q0 -30 -17 -62t-44.5 -61.5
t-63 -55.5t-73 -45.5t-74.5 -31t-66 -11.5q-20 -46 -29 -85t-6 -67t19.5 -44t47.5 -16t72 27t85.5 68.5t89 92t83 98.5t68 87t42.5 57zM770 545q-30 0 -63 -22t-65 -56.5t-61 -77t-51 -83.5q37 0 74.5 17.5t70.5 44.5t59.5 57.5t41 57.5t14 44.5t-19.5 17.5zM156 70
q26 0 53 13t53 35t51 51t48 62q-21 -3 -44 -3q-40 0 -64.5 11.5t-37.5 29.5t-17.5 41t-4.5 47q0 2 0.5 5t0.5 5q-16 -25 -32.5 -53.5t-30.5 -58.5t-23 -60t-9 -58q0 -19 5.5 -31.5t14 -20.5t18.5 -11.5t19 -3.5zM394 285q34 58 54 112t20 86q0 23 -10.5 36.5t-34.5 13.5
q-29 0 -55.5 -17.5t-46.5 -43t-31.5 -54t-11.5 -51.5t7.5 -39t19.5 -26.5t26.5 -15t27.5 -4.5q18 0 35 3z" />
    <glyph glyph-name="Scaron" unicode="&#x160;" 
d="M946 897q0 -54 -36.5 -99t-98 -84.5t-141 -76.5t-164.5 -75q39 -42 84 -86.5t83.5 -92t64 -96.5t25.5 -100q0 -56 -20 -104t-54 -88t-80 -70.5t-98.5 -51.5t-108 -32t-109.5 -11q-38 0 -76 14t-69 40.5t-50.5 65.5t-19.5 89t26 98.5t65 87t86 62t89 23.5q22 0 43.5 -3
t38.5 -10t27.5 -18.5t10.5 -27.5q0 -9 -2 -21.5t-7 -12.5q-8 0 -15 2.5t-17.5 6t-27 6t-43.5 2.5q-38 0 -76 -14t-69.5 -37t-51 -52t-19.5 -58t15.5 -53t40 -41t55.5 -26t62 -9q32 0 71.5 4.5t80.5 14t80.5 25.5t70 38.5t49 53t18.5 69.5q0 53 -26 102.5t-65.5 95.5t-86 89
t-87.5 84q-89 -41 -172 -86.5t-147.5 -101.5t-103.5 -123.5t-39 -151.5q0 -51 10 -85t21.5 -56.5t21.5 -36.5t10 -26q0 -9 -11.5 -16t-30.5 -7q-21 0 -44 9.5t-42.5 31.5t-32 57t-12.5 86q0 96 47 174.5t123.5 143.5t174 118.5t198.5 99.5q-35 37 -57 72t-22 68t17.5 70
t49.5 73t76 69t97 57.5t112.5 39.5t122.5 15q88 0 126.5 -30.5t38.5 -86.5zM478 592q84 36 159.5 69.5t133 65.5t91.5 64.5t34 67.5q0 9 -3 19.5t-14 19.5t-34.5 15t-63.5 6q-31 0 -70.5 -8.5t-80 -22.5t-80 -33.5t-70 -41.5t-49 -46t-18.5 -47q0 -30 18 -61.5t47 -66.5z
M627 1231q-21 25 -40.5 42t-34 27.5t-22 17t-5.5 11.5q0 7 7 11q6 3 18.5 2t38.5 -10q24 -9 50 -24.5t48.5 -34.5t39.5 -40t23 -41q13 9 33.5 23t44.5 30t48.5 31.5t45.5 28t37 20.5t22 8q7 0 9.5 -4t2.5 -9q0 -8 -13 -20.5t-33 -27t-43 -30t-44 -28.5q-21 -14 -42.5 -29.5
t-42 -29t-38.5 -22t-32 -8.5q-15 0 -21 3q-4 1 -6 8.5t-6.5 20.5t-14.5 31.5t-30 42.5z" />
    <glyph glyph-name="scaron" unicode="&#x161;" horiz-adv-x="423" 
d="M576 469q5 7 11 8t10.5 -1t6 -7.5t-2.5 -11.5q-18 -25 -47.5 -69t-67 -94.5t-81.5 -103t-91 -94.5t-96 -69t-96 -27h-15q-33 0 -57 11t-39.5 28t-23 39t-7.5 43q0 19 6 28t13 9.5t13 -7t6 -21.5q0 -27 17.5 -49.5t59.5 -22.5q43 0 63 30t25 77.5t-0.5 106t-15 116
t-18 107t-8.5 78.5q0 33 15.5 62t39.5 50.5t54 33.5t59 12q14 0 23 -6.5t9 -14.5q0 -12 -12 -26.5t-26 -32.5t-26 -41t-12 -53q0 -45 8 -89t17.5 -87.5t17.5 -86t8 -85.5q0 -17 -2.5 -35.5t-7.5 -34.5q23 19 48.5 47t52.5 60t53 66t48.5 64.5t40 54.5t27.5 38zM215 917
q-21 25 -40.5 42t-34 27.5t-22 17t-5.5 11.5q0 7 7 11q6 3 18.5 2t38.5 -10q24 -9 50 -24.5t48.5 -34.5t39.5 -40t23 -41q13 9 33.5 23t44.5 30t48.5 31.5t45.5 28t37 20.5t22 8q7 0 9.5 -4t2.5 -9q0 -8 -13 -20.5t-33 -27t-43 -30t-44 -28.5q-21 -14 -42.5 -29.5t-42 -29
t-38.5 -22t-32 -8.5q-15 0 -21 3q-4 1 -6 8.5t-6.5 20.5t-14.5 31.5t-30 42.5z" />
    <glyph glyph-name="Ydieresis" unicode="&#x178;" horiz-adv-x="655" 
d="M393 122q-44 -48 -100 -100t-120.5 -94.5t-135 -70t-143.5 -27.5q-66 0 -96.5 32t-30.5 88q0 42 30.5 100.5t76.5 126.5t100 142t100 147.5t76.5 142.5t30.5 128q0 35 -7 77.5t-26.5 79.5t-55 62t-92.5 25q-53 0 -98.5 -20.5t-78.5 -54t-52 -75.5t-19 -85t10 -66.5
t21.5 -36t21.5 -18t10 -11.5t-10 -12.5t-27 -6.5q-8 0 -25 6t-34 21.5t-29.5 41.5t-12.5 67q0 40 22.5 89.5t64.5 92.5t102.5 72t135.5 29q68 0 116 -17.5t81 -44.5t53 -59.5t30.5 -63.5t13.5 -55.5t3 -35.5q0 -76 -30.5 -154.5t-76.5 -154.5t-100 -148.5t-100 -136.5
t-76.5 -118t-30.5 -94q0 -21 10 -31t23 -10q35 0 78.5 19t90.5 50.5t95 71.5t93 82q106 99 216 224q48 80 100.5 169.5t97 177.5t73.5 169.5t29 145.5q0 12 13.5 12t30 -15t30.5 -46t14 -80q0 -44 -22.5 -101t-59 -123.5t-82.5 -142t-92 -154.5l-199 -388
q-25 -61 -59.5 -123t-78 -120t-94 -108.5t-108 -88.5t-120 -59.5t-129.5 -21.5q-64 0 -122 31q-54 30 -76 69.5t-25.5 76t3 63t8.5 31.5q5 8 12 14.5t15 6.5t14 -13.5t15 -33.5t22.5 -43t37 -43t59 -33.5t88.5 -13.5q52 0 102 24.5t95 64.5t85.5 91t75.5 104q81 125 149 285
zM437 1102q0 -11 -21 -18t-46 -5.5t-46 13.5t-21 40q0 21 8.5 34.5t20.5 22t24.5 12t21.5 3.5q38 0 48.5 -27.5t10.5 -74.5zM672 1118q0 -21 -21 -31.5t-46 -10t-46 14t-21 41.5q0 25 8.5 39t20.5 21.5t24.5 9.5t21.5 2q38 0 48.5 -24.5t10.5 -61.5z" />
    <glyph glyph-name="Zcaron" unicode="&#x17d;" horiz-adv-x="480" 
d="M860 -436q23 0 44.5 7t37.5 13.5t25.5 7.5t9.5 -11q0 -15 -10 -36t-29.5 -41t-49 -34t-67.5 -14q-94 0 -183.5 24t-175 63t-167 89.5t-158.5 104.5t-150 106.5t-142 96.5q-77 -51 -158.5 -80.5t-170.5 -29.5h-2q-74 0 -114.5 35t-40.5 89q0 30 17.5 55t44.5 42.5
t59.5 27.5t63.5 10q83 0 156 -16.5t141 -45.5q78 77 152.5 176.5t150.5 205.5q-46 -10 -81 -21.5t-61 -21.5t-44 -17.5t-29 -8.5q-14 -2 -24.5 13.5t-12.5 35.5q-2 11 29.5 24t78 25t99.5 22.5t94 16.5q75 104 150.5 200.5t155.5 171.5q-63 23 -130 46.5t-134.5 42.5
t-134.5 31t-130 12q-53 0 -98.5 -20.5t-78.5 -54t-52 -75.5t-19 -85t10 -66.5t21.5 -36t21.5 -18t10 -11.5t-10 -12.5t-27 -6.5q-8 0 -25 6t-34 21.5t-29.5 41.5t-12.5 67q0 40 22.5 89.5t64.5 92.5t102.5 72t135.5 29q70 0 146.5 -10.5t153.5 -26t152.5 -34.5t143.5 -36
q64 50 131.5 78.5t139.5 28.5q51 0 84 -19t49.5 -47t15 -61t-20 -61t-54 -47t-88.5 -19q-46 0 -104.5 15.5t-127.5 39.5q-57 -66 -118 -150.5t-127 -175.5q55 1 108.5 -0.5t96 -6t69.5 -11.5t29 -17q2 -11 -5.5 -15t-13.5 -5q-3 0 -24.5 3t-62.5 5t-100 1.5t-137 -8.5
q-44 -61 -90.5 -121.5t-95.5 -117.5t-101 -109t-106 -95q73 -38 143 -84.5t141 -94t144.5 -92.5t154 -80t170 -56t192.5 -21zM831 975q-42 0 -84 -23.5t-87 -65.5q48 -11 87.5 -17t69.5 -6q46 0 68.5 17.5t23 38.5t-19 38.5t-58.5 17.5zM-471 -139q68 0 131.5 30.5
t125.5 83.5q-65 37 -125.5 59t-117.5 22q-19 0 -39.5 -5.5t-38 -17.5t-29 -31.5t-11.5 -47.5q0 -38 25.5 -65.5t78.5 -27.5zM273 1223q-21 25 -40.5 42t-34 27.5t-22 17t-5.5 11.5q0 7 7 11q6 3 18.5 2t38.5 -10q24 -9 50 -24.5t48.5 -34.5t39.5 -40t23 -41q13 9 33.5 23
t44.5 30t48.5 31.5t45.5 28t37 20.5t22 8q7 0 9.5 -4t2.5 -9q0 -8 -13 -20.5t-33 -27t-43 -30t-44 -28.5q-21 -14 -42.5 -29.5t-42 -29t-38.5 -22t-32 -8.5q-15 0 -21 3q-4 1 -6 8.5t-6.5 20.5t-14.5 31.5t-30 42.5z" />
    <glyph glyph-name="zcaron" unicode="&#x17e;" horiz-adv-x="472" 
d="M633 469q5 7 11 8.5t10.5 -1t6 -7.5t-2.5 -11q-65 -107 -155 -207.5t-187 -191.5q11 -44 0 -106t-38.5 -129.5t-69 -134t-92 -119t-107.5 -85t-116 -32.5q-63 0 -90.5 31t-27.5 83q0 40 38.5 88t104 106.5t151 128.5t179.5 155q5 26 -2 41t-28 15q-34 0 -62.5 -16
t-51 -34.5t-39 -34.5t-26.5 -16q-15 0 -27 8t-20.5 18t-13 19.5t-4.5 12.5t18 23.5t45 51.5t58 68.5t58 75t45 70.5t18 55q0 21 -18 32.5t-39.5 26.5t-39.5 40t-18 72q0 34 13.5 63t35.5 50t50 33t57 12q14 0 23 -6.5t9 -14.5q0 -12 -11 -26.5t-24.5 -32.5t-24.5 -41
t-11 -53t8.5 -49t21.5 -30.5t28.5 -19.5t28.5 -16t21.5 -19.5t8.5 -30.5q0 -15 -15 -44t-39 -65.5t-54.5 -77t-60.5 -77.5q25 6 55 6q29 0 48.5 -10.5t31.5 -29.5q86 81 170.5 173.5t161.5 201.5zM-153 -468q23 0 55.5 21.5t68.5 57t74 82t72.5 96t63 98.5t46.5 91
q-82 -72 -157.5 -135.5t-133.5 -116t-93 -92t-35 -63.5q0 -11 4 -20q4 -8 11.5 -13.5t23.5 -5.5zM209 877q-21 25 -40.5 42t-34 27.5t-22 17t-5.5 11.5q0 7 7 11q6 3 18.5 2t38.5 -10q24 -9 50 -24.5t48.5 -34.5t39.5 -40t23 -41q13 9 33.5 23t44.5 30t48.5 31.5t45.5 28
t37 20.5t22 8q7 0 9.5 -4t2.5 -9q0 -8 -13 -20.5t-33 -27t-43 -30t-44 -28.5q-21 -14 -42.5 -29.5t-42 -29t-38.5 -22t-32 -8.5q-15 0 -21 3q-4 1 -6 8.5t-6.5 20.5t-14.5 31.5t-30 42.5z" />
    <glyph glyph-name="circumflex" unicode="&#x2c6;" 
d="M518 785q21 -26 40.5 -42.5t34 -27t22 -17t5.5 -11.5q0 -7 -7 -11q-6 -3 -19 -2.5t-38 10.5q-24 9 -50 24.5t-48.5 34.5t-39.5 40t-23 41q-13 -9 -33.5 -23t-44.5 -30t-48.5 -31.5t-45.5 -28t-37 -20.5t-22 -8q-7 0 -9.5 4t-2.5 9q0 8 13 20.5t33 27t43 29.5t44 29
t42.5 29.5t42 29t38.5 22t32 8.5q15 0 21 -3q4 -2 6 -9t6.5 -20t14.5 -31.5t30 -42.5z" />
    <glyph glyph-name="caron" unicode="&#x2c7;" 
d="M252 769q-21 25 -40.5 42t-34 27.5t-22 17t-5.5 11.5q0 7 7 11q6 3 18.5 2t38.5 -10q24 -9 50 -24.5t48.5 -34.5t39.5 -40t23 -41q13 9 33.5 23t44.5 30t48.5 31.5t45.5 28t37 20.5t22 8q7 0 9.5 -4t2.5 -9q0 -8 -13 -20.5t-33 -27t-43 -30t-44 -28.5
q-21 -14 -42.5 -29.5t-42 -29t-38.5 -22t-32 -8.5q-15 0 -21 3q-4 1 -6 8.5t-6.5 20.5t-14.5 31.5t-30 42.5z" />
    <glyph glyph-name="ring" unicode="&#x2da;" 
d="M401 655q-22 0 -42 11q-35 21 -41 62q-8 41 14 78q23 38 61 52q40 15 74 -5q34 -19 42 -62q6 -41 -15 -78q-22 -38 -60 -52q-17 -6 -33 -6zM426 826q-5 0 -10 -1t-10 -3q-25 -9 -40 -35q-15 -25 -10 -52q3 -23 23 -35q18 -11 41 -3q25 9 40 35q16 27 11 53q-5 24 -23 35
q-11 6 -22 6z" />
    <glyph glyph-name="tilde" unicode="&#x2dc;" 
d="M324 819q25 0 43.5 -11.5t33.5 -25t27.5 -24.5t25.5 -11q20 0 39.5 8.5t35 19t26 19.5t12.5 9q13 0 3.5 -18t-31.5 -40t-50.5 -40t-54.5 -18t-44 11.5t-33 25.5t-28.5 25.5t-30.5 11.5t-33.5 -9t-31.5 -20t-26.5 -20t-17.5 -9q-15 0 -5.5 18t32 40t52.5 40t56 18z" />
    <glyph glyph-name="endash" unicode="&#x2013;" horiz-adv-x="487" 
d="M442 373q15 -6 19.5 -12.5t4.5 -10.5q0 -6 -0.5 -10.5t-9.5 -9.5q-9 -4 -18.5 -6t-21.5 -2q-3 0 -33 3q-17 1 -29 2.5l-24 3t-26 2.5t-33 1q-62 1 -96 -1t-53.5 -4.5t-30.5 -5.5t-26 -5l-16.5 -1.5t-8.5 -0.5q-6 0 -12.5 1.5t-11.5 5.5q-1 1 -3 2.5t-4 5t-2.5 9t1.5 13.5
q0 5 6.5 11.5t23.5 11.5q21 7 45 11.5t47.5 6t46 1.5h41.5q14 0 43.5 -1t63 -3t65.5 -6.5t52 -11.5z" />
    <glyph glyph-name="emdash" unicode="&#x2014;" horiz-adv-x="653" 
d="M605 373q15 -6 19.5 -12.5t4.5 -10.5q0 -6 -0.5 -10.5t-9.5 -9.5q-9 -4 -18.5 -6t-21.5 -2q-3 0 -33 3q-17 1 -37.5 2.5t-43 3t-45 2.5t-41.5 1q-125 2 -204.5 -5t-109.5 -11l-16.5 -1.5t-8.5 -0.5q-6 0 -12.5 1.5t-11.5 5.5q-1 1 -3 2.5t-4 5t-2.5 9t1.5 13.5
q0 5 6.5 11.5t23.5 11.5q21 7 61.5 11.5t84.5 6t83.5 1.5h58.5q14 0 52 -1t82 -3t84.5 -6.5t60.5 -11.5z" />
    <glyph glyph-name="quoteleft" unicode="&#x2018;" horiz-adv-x="336" 
d="M185 693q-15 0 -19 18t0 44.5t14.5 57.5t26 57.5t34.5 44.5t39 18q8 0 14.5 -7t11 -17.5t7 -22t2.5 -20.5t-7.5 -15t-18.5 -13.5t-25.5 -19t-27.5 -30.5q-14 -19 -22 -36t-13 -30t-8.5 -21t-7.5 -8z" />
    <glyph glyph-name="quoteright" unicode="&#x2019;" horiz-adv-x="329" 
d="M278 937q14 0 18.5 -18t0.5 -44.5t-14.5 -57.5t-26 -57.5t-34.5 -44.5t-39 -18q-8 0 -14.5 7t-11 17.5t-7 22t-2.5 20.5t7.5 15t18.5 13.5t25 19t28 30.5t22 36t12.5 30t8 21t8.5 8z" />
    <glyph glyph-name="quotesinglbase" unicode="&#x201a;" horiz-adv-x="340" 
d="M122 61q0 24 16.5 27.5t37 -5t37 -25.5t16.5 -35q0 -27 -22 -55t-53.5 -51t-65 -37.5t-55.5 -14.5q-16 0 -15 9.5t10.5 25t25.5 35.5t31 42t26 43.5t11 40.5z" />
    <glyph glyph-name="quotedblleft" unicode="&#x201c;" horiz-adv-x="467" 
d="M185 693q-15 0 -19 18t0 44.5t14.5 57.5t26 57.5t34.5 44.5t39 18q8 0 14.5 -7t11 -17.5t7 -22t2.5 -20.5t-7.5 -15t-18.5 -13.5t-25.5 -19t-27.5 -30.5q-14 -19 -22 -36t-13 -30t-8.5 -21t-7.5 -8zM326 693q-15 0 -19 18t0 44.5t14.5 57.5t26 57.5t34.5 44.5t39 18
q8 0 14.5 -7t11 -17.5t7 -22t2.5 -20.5t-7.5 -15t-18.5 -13.5t-25.5 -19t-27.5 -30.5q-14 -19 -22 -36t-12.5 -30t-8 -21t-8.5 -8z" />
    <glyph glyph-name="quotedblright" unicode="&#x201d;" horiz-adv-x="467" 
d="M419 937q14 0 18.5 -18t0.5 -44.5t-14.5 -57.5t-26 -57.5t-34.5 -44.5t-39 -18q-8 0 -14.5 7t-11 17.5t-7 22t-2.5 20.5t7.5 15t18.5 13.5t25 19t28 30.5t22 36t13 30t8 21t8 8zM278 937q14 0 18.5 -18t0.5 -44.5t-14.5 -57.5t-26 -57.5t-34.5 -44.5t-39 -18
q-8 0 -14.5 7t-11 17.5t-7 22t-2.5 20.5t7.5 15t18.5 13.5t25 19t28 30.5t22 36t12.5 30t8 21t8.5 8z" />
    <glyph glyph-name="quotedblbase" unicode="&#x201e;" horiz-adv-x="523" 
d="M122 61q0 24 16.5 27.5t37 -5t37 -25.5t16.5 -35q0 -27 -22 -55t-53.5 -51t-65 -37.5t-55.5 -14.5q-16 0 -15 9.5t10.5 25t25.5 35.5t31 42t26 43.5t11 40.5zM304 61q0 24 16.5 27.5t37 -5t37 -25.5t16.5 -35q0 -27 -22 -55t-53.5 -51t-65 -37.5t-55.5 -14.5
q-16 0 -15 9.5t10.5 25t25.5 35.5t31 42t26 43.5t11 40.5z" />
    <glyph glyph-name="bullet" unicode="&#x2022;" horiz-adv-x="342" 
d="M275 339q0 -17 -8 -33t-20.5 -28.5t-28.5 -20.5t-32 -8t-30 9t-24.5 22.5t-16.5 30.5t-6 33q0 26 10.5 43t25 27.5t30.5 15t27 4.5q24 0 38 -9.5t22 -24t10.5 -31t2.5 -30.5z" />
    <glyph glyph-name="ellipsis" unicode="&#x2026;" horiz-adv-x="790" 
d="M243 15q0 -9 -21 -13.5t-46 -1t-46 17t-21 41.5q0 21 8.5 34.5t20.5 22t24.5 12t21.5 3.5q19 0 30.5 -9.5t18 -25.5t8.5 -37t2 -44zM458 15q0 -9 -21 -13.5t-46 -1t-46 17t-21 41.5q0 21 8.5 34.5t20.5 22t24.5 12t21.5 3.5q19 0 30.5 -9.5t18 -25.5t8.5 -37t2 -44z
M677 15q0 -9 -21 -13.5t-46 -1t-46 17t-21 41.5q0 21 8.5 34.5t20.5 22t24.5 12t21.5 3.5q19 0 30.5 -9.5t18 -25.5t8.5 -37t2 -44z" />
    <glyph glyph-name="perthousand" unicode="&#x2030;" horiz-adv-x="859" 
d="M581 860q0 -22 -19.5 -61.5t-51 -90.5t-71.5 -110.5t-82.5 -122t-82.5 -124.5t-71.5 -118t-51 -103t-19.5 -79q0 -8 -0.5 -16.5t-2.5 -16.5t-6 -13t-12 -5q-13 0 -24.5 8.5t-20.5 22t-14 31.5t-5 38q0 46 33 110.5t82.5 137.5t107.5 148.5t107.5 144t82.5 125t33 89.5
q0 11 13.5 24t30 18.5t30.5 -1.5t14 -36zM317 711v1q-1 15 -8 22.5t-15 7.5q0 10 -3 20q-2 8 -7.5 17t-15.5 17q-38 23 -82 6q-42 -16 -66 -56v-1q-11 -20 -15.5 -41.5t0.5 -42.5q6 -46 45 -69h1q24 -13 46 -13q10 0 19 2t18 5q20 8 37 22t28 34q18 31 18 68v1zM248 672v-1
q-15 -23 -35 -30q-17 -6 -33 2q-15 9 -18 28q-3 24 9 45q14 24 35 31q1 0 2 1q8 2 12 2q13 -1 16.5 -7.5t4 -14t3 -14t14.5 -7.5q0 -19 -10 -35zM527 276v1q-1 15 -8 22.5t-15 7.5q0 10 -3 20q-2 8 -7.5 17t-15.5 17q-38 23 -82 6q-42 -16 -66 -56v-1q-11 -20 -15.5 -41.5
t0.5 -42.5q6 -46 45 -69h1q24 -13 46 -13q10 0 19 2t18 5q20 8 37 22t28 34q18 31 18 68v1zM458 237v-1q-15 -23 -35 -30q-17 -6 -33 2q-15 9 -18 28q-3 24 9 45q14 24 35 31q1 0 2 1q8 2 12 2q13 -1 16.5 -7.5t4 -14t3 -14t14.5 -7.5q0 -19 -10 -35zM787 276v1
q-1 15 -8 22.5t-15 7.5q0 10 -3 20q-2 8 -7.5 17t-15.5 17q-38 23 -82 6q-42 -16 -66 -56v-1q-11 -20 -15.5 -41.5t0.5 -42.5q6 -46 45 -69h1q24 -13 46 -13q10 0 19 2t18 5q20 8 37 22t28 34q18 31 18 68v1zM718 237v-1q-15 -23 -35 -30q-17 -6 -33 2q-15 9 -18 28
q-3 24 9 45q14 24 35 31q1 0 2 1q8 2 12 2q13 -1 16.5 -7.5t4 -14t3 -14t14.5 -7.5q0 -19 -10 -35z" />
    <glyph glyph-name="guilsinglleft" unicode="&#x2039;" horiz-adv-x="392" 
d="M338 571q16 0 16 -23q0 -17 -16 -38.5t-40.5 -43.5t-55 -43t-59 -38.5t-52 -30t-34.5 -16.5q10 -8 24.5 -25t27.5 -38.5t22.5 -44t9.5 -40.5q0 -15 -1 -23t-9 -8q-4 0 -16.5 16t-31.5 39t-44 49t-55 46q-24 17 -24 33q0 19 24 29q7 3 36.5 17.5t72 39t92.5 58t98 74.5
q11 11 15 11z" />
    <glyph glyph-name="guilsinglright" unicode="&#x203a;" horiz-adv-x="482" 
d="M94 147q-16 0 -16 23q0 17 16 38.5t40.5 43.5t55 43t59 38.5t52 30t34.5 16.5q-10 7 -24.5 24.5t-27.5 39t-22.5 44t-9.5 40.5q0 15 1 23t9 8q4 0 16.5 -16t31.5 -39t44 -49t55 -46q24 -17 24 -33q0 -19 -24 -29q-7 -3 -36.5 -17.5t-72 -39t-92.5 -58t-98 -74.5
q-11 -11 -15 -11z" />
    <glyph glyph-name="fraction" unicode="&#x2044;" horiz-adv-x="476" 
d="M534 860q0 -22 -19.5 -61.5t-51 -90.5t-71.5 -110.5t-82.5 -122t-82.5 -124.5t-71.5 -118t-51 -103t-19.5 -79q0 -8 -0.5 -16.5t-2.5 -16.5t-6 -13t-12 -5q-13 0 -24.5 8.5t-20.5 22t-14 31.5t-5 38q0 46 33 110.5t82.5 137.5t107.5 148.5t107.5 144t82.5 125t33 89.5
q0 11 13.5 24t30 18.5t30.5 -1.5t14 -36z" />
    <glyph glyph-name="Euro" unicode="&#x20ac;" horiz-adv-x="766" 
d="M676 910q29 0 55 -11t46.5 -27t35 -35t21.5 -35t6.5 -27t-10.5 -11q-5 0 -11.5 9t-21.5 20.5t-42 20.5t-72 9q-50 0 -98.5 -19.5t-93.5 -54t-85.5 -80.5t-73.5 -99q58 3 107.5 4t74.5 1q34 0 49.5 -16.5t19 -36t-0.5 -35.5t-10 -16q-8 0 -13.5 5t-14.5 11.5t-26 11.5
t-47 5t-79 -3t-104 -6q-5 -13 -11.5 -26.5t-11.5 -27.5q45 2 81 2.5t56 0.5q34 0 43.5 -11.5t0.5 -25.5t-32.5 -25.5t-53.5 -11.5q-21 0 -53 -0.5t-68 -2.5q-11 -39 -16.5 -77.5t-5.5 -74.5q0 -29 9.5 -59t26.5 -54t40.5 -39.5t52.5 -15.5q61 0 104.5 25.5t70.5 63.5
t39.5 81t12.5 79q0 25 11 23t24.5 -17t24.5 -36t11 -34q0 -41 -22 -82.5t-61 -75t-92.5 -54.5t-116.5 -21q-47 0 -86 20t-68 57.5t-45 91.5t-16 121q0 17 2.5 35.5t6.5 37.5q-37 -2 -72 -4t-62.5 -3.5t-45.5 -2.5t-21 -1q-13 0 -20.5 12.5t-7.5 24.5q0 10 21.5 17.5t56.5 13
t80.5 9.5t92.5 7q3 14 8 27.5t11 27.5q-52 -5 -89 -6.5t-42 -1.5q-12 0 -19.5 13.5t-7.5 24.5q0 8 15.5 15t42.5 12t62.5 9t75.5 7q37 67 87 129.5t108.5 111t123.5 77.5t132 29z" />
    <glyph glyph-name="trademark" unicode="&#x2122;" horiz-adv-x="625" 
d="M449 823q-13 -17 -56 -14q-5 0 -8.5 0.5t-8.5 0.5q-7 0 -11 1q-2 -5 -4.5 -10.5t-6.5 -11.5q-2 -4 -4 -7.5t-4 -7.5q-13 -23 -25.5 -46t-24.5 -54q-3 -6 -6 -6h-1q-4 0 -7 4q-2 2 -5 11.5t3 29.5q8 21 20.5 47t28.5 53q-17 1 -32.5 0.5t-32.5 -1.5q-7 0 -8 3q-2 3 0 8
q2 4 9.5 10.5t27.5 9.5q11 1 25.5 1.5t30.5 0.5l1 1q4 7 9 5q5 0 7 -6v-1q20 0 39 -2l38 -4q8 -1 8 -6q2 -6 -2 -9zM603 848q3 -3 6 -12.5t-4 -29.5q-10 -28 -28 -63.5t-41 -69.5q-3 -4 -5 -4.5t-4 -0.5q-4 0 -8 6q-8 21 12 57q2 4 4 7t4 7q6 10 11 19t10 19
q-11 -11 -22 -19.5t-18 -13.5q-4 -2 -8 -1h-1q-3 0 -9.5 4.5t-12.5 19.5q-5 9 -6 19q-1 -1 -1 -1.5t-1 -1.5q-2 -4 -4 -7.5t-4 -6.5q-13 -23 -25.5 -46t-25.5 -55q-2 -6 -6 -6h-1q-3 0 -6 4q-3 2 -6 11.5t4 29.5q10 28 28.5 63.5t41.5 69.5v1q2 6 7 4q3 2 7 -2q12 -9 18 -37
q2 -11 2.5 -17t1.5 -11v-5q6 7 15 15q6 5 12 9.5t11 9.5q12 9 22.5 18t17.5 18h1q2 4 6 2q3 0 5 -3z" />
    <glyph glyph-name="minus" unicode="&#x2212;" horiz-adv-x="633" 
d="M531 377q8 -7 10 -15t2 -12v-14t-5 -12q-9 -11 -20 -11q-4 0 -17 4q-17 5 -40.5 7.5t-43.5 4.5q-63 2 -103.5 -6.5t-55.5 -13.5q-12 -3 -13 -3q-7 0 -12 8q-1 2 -3.5 10t-0.5 29q0 7 3.5 14.5t11.5 14.5q11 9 31.5 14t42.5 7.5t42 2.5t30 -1q7 0 26 -1t41.5 -4t43 -8.5
t30.5 -14.5z" />
    <glyph glyph-name="E001" horiz-adv-x="552" 
d="M120 -45q82 0 133 -36t73.5 -94.5t19.5 -133t-28 -152.5t-69.5 -153t-105 -133.5t-134.5 -94t-158 -35.5q-51 0 -98 30.5t-83 80.5t-57.5 114t-21.5 130q0 67 23.5 122t54.5 95q-75 -1 -158.5 -9.5t-164 -22t-153.5 -30.5t-128.5 -35t-88 -35t-32.5 -31q0 -8 -16.5 -8
t-36 8.5t-35.5 25t-16 43.5q0 19 37.5 39.5t103.5 40t155.5 37t193 30.5t216.5 21t226 8q14 0 31.5 -8t33.5 -20.5t26.5 -27t10.5 -27.5q0 -3 -13.5 -20t-33.5 -44.5t-43 -63t-43 -74.5t-33.5 -79t-13.5 -77q0 -41 11 -71.5t28.5 -51t38 -31t39.5 -10.5q88 0 156.5 30.5
t119 80t84.5 113t53.5 130t25.5 130t2 113t-18.5 80t-35.5 30.5q-49 0 -86.5 -13.5t-64.5 -30t-45.5 -30t-29.5 -13.5q-6 0 -20 8.5t-28 20.5t-25 25t-11 23q0 9 17.5 30.5t42.5 47t52 50.5t46 42q-20 20 -33 50t-13 75q0 37 12.5 83t36 94.5t57 94.5t75.5 82.5t92 58.5
t107 22h8q-1 5 -1 11v11q0 18 6.5 37.5t15.5 36t19 27t17 10.5q9 0 22 -9t24.5 -21t20 -23.5t8.5 -15.5q0 -9 -8 -16.5t-19 -17t-22 -21.5t-17 -29q50 -33 50 -99q0 -35 -21 -77t-46 -76q0 -1 2 -5q2 -2 4 -2q7 -5 24 -5q25 0 59.5 14.5t69.5 37t67 51t52 55.5q5 6 11.5 7.5
t11 -1t5.5 -7.5t-3 -11q-25 -35 -61.5 -75t-78 -75t-84.5 -61t-81 -33q-20 -32 -50 -70t-69 -70.5t-85 -54t-97 -21.5q-24 0 -47 10l-96 -89q15 9 34 16q17 6 40.5 11.5t54.5 5.5zM394 531q-50 0 -97.5 -35.5t-86 -89t-66 -116t-38.5 -116t-3 -89t41 -35.5q32 0 64 22.5
t61.5 56.5t54.5 73t44 71q-6 6 -12.5 15t-12 18.5t-9 17t-3.5 9.5t17 13t37 30t37 45t17 58q0 23 -12.5 37.5t-32.5 14.5zM418 -245q87 0 207 -2.5t256.5 -7.5t281.5 -12.5t283.5 -18t262 -24t216 -30.5t147 -37t54.5 -44q0 -10 -5 -13t-15 -3q-8 0 -71 8t-172.5 20
t-260.5 26t-336 26t-398.5 20t-447.5 8z" />
    <glyph glyph-name="E002" horiz-adv-x="472" 
d="M838 768q20 0 39 -10.5t33.5 -28.5t23 -42t8.5 -51q0 -72 -29.5 -147t-81.5 -146t-122 -133t-152 -109t-171 -74t-178 -27q-74 0 -116 19t-62.5 45t-25 53.5t-4.5 44.5q0 37 14.5 83t40.5 94.5t62.5 94.5t81.5 82t97 58t108 22q51 0 68.5 -22.5t17.5 -54.5
q0 -45 -24.5 -86t-69.5 -73t-108.5 -52t-141.5 -22q-18 -47 -24 -91.5t4 -79.5t38 -56.5t78 -21.5q66 0 135 24.5t134 68t123 103t101 130t68 149t25 160.5q0 27 -6 45.5t-9 29.5t1 16t24 5zM417 546q-36 0 -72.5 -18.5t-70 -49t-62 -71t-49.5 -83.5q62 0 110 17t83 41.5
t56 53t28.5 53t1.5 41t-25 16.5z" />
    </font>
</defs>
</svg>
